<svg xmlns="http://www.w3.org/2000/svg" xmlns:xlink="http://www.w3.org/1999/xlink" width="1476.007" height="932.476" viewBox="0 0 1476.007 932.476">
  <defs>
    <radialGradient id="radial-gradient" cx="0.5" cy="0.02" r="0.622" gradientTransform="matrix(0.003, 1, -14.953, 0.043, 0.793, -0.481)" gradientUnits="objectBoundingBox">
      <stop offset="0" stop-color="#fff"/>
      <stop offset="1" stop-color="#353a50" stop-opacity="0"/>
    </radialGradient>
    <filter id="Ellipse_807" x="340.923" y="471.744" width="22.399" height="22.399" filterUnits="userSpaceOnUse">
      <feOffset input="SourceAlpha"/>
      <feGaussianBlur stdDeviation="3" result="blur"/>
      <feFlood flood-color="#3acce1"/>
      <feComposite operator="in" in2="blur"/>
      <feComposite in="SourceGraphic"/>
    </filter>
    <filter id="Ellipse_808" x="334.225" y="465.046" width="35.795" height="35.795" filterUnits="userSpaceOnUse">
      <feOffset input="SourceAlpha"/>
      <feGaussianBlur stdDeviation="3" result="blur-2"/>
      <feFlood flood-color="#3acce1"/>
      <feComposite operator="in" in2="blur-2"/>
      <feComposite in="SourceGraphic"/>
    </filter>
    <filter id="Ellipse_809" x="431.193" y="372.577" width="22.599" height="22.599" filterUnits="userSpaceOnUse">
      <feOffset input="SourceAlpha"/>
      <feGaussianBlur stdDeviation="3" result="blur-3"/>
      <feFlood flood-color="#3acce1"/>
      <feComposite operator="in" in2="blur-3"/>
      <feComposite in="SourceGraphic"/>
    </filter>
    <filter id="Path_9712" x="798.821" y="363.28" width="166.608" height="166.802" filterUnits="userSpaceOnUse">
      <feOffset input="SourceAlpha"/>
      <feGaussianBlur stdDeviation="3" result="blur-4"/>
      <feFlood flood-color="#3acce1"/>
      <feComposite operator="in" in2="blur-4"/>
      <feComposite in="SourceGraphic"/>
    </filter>
    <filter id="Ellipse_811" x="516.766" y="417.562" width="23.398" height="23.398" filterUnits="userSpaceOnUse">
      <feOffset input="SourceAlpha"/>
      <feGaussianBlur stdDeviation="3" result="blur-5"/>
      <feFlood flood-color="#3acce1"/>
      <feComposite operator="in" in2="blur-5"/>
      <feComposite in="SourceGraphic"/>
    </filter>
    <filter id="Ellipse_812" x="292.439" y="516.73" width="23.398" height="23.398" filterUnits="userSpaceOnUse">
      <feOffset input="SourceAlpha"/>
      <feGaussianBlur stdDeviation="3" result="blur-6"/>
      <feFlood flood-color="#3acce1"/>
      <feComposite operator="in" in2="blur-6"/>
      <feComposite in="SourceGraphic"/>
    </filter>
    <filter id="Path_9680" x="599.339" y="458.849" width="165.052" height="165.052" filterUnits="userSpaceOnUse">
      <feOffset input="SourceAlpha"/>
      <feGaussianBlur stdDeviation="3" result="blur-7"/>
      <feFlood flood-color="#665eff"/>
      <feComposite operator="in" in2="blur-7"/>
      <feComposite in="SourceGraphic"/>
    </filter>
    <filter id="Path_9676" x="638.624" y="305.284" width="279.219" height="282.031" filterUnits="userSpaceOnUse">
      <feOffset input="SourceAlpha"/>
      <feGaussianBlur stdDeviation="5" result="blur-8"/>
      <feFlood flood-color="#665eff"/>
      <feComposite operator="in" in2="blur-8"/>
      <feComposite in="SourceGraphic"/>
    </filter>
    <filter id="Path_9677" x="647.125" y="354.584" width="13.998" height="13.998" filterUnits="userSpaceOnUse">
      <feOffset input="SourceAlpha"/>
      <feGaussianBlur stdDeviation="1.5" result="blur-9"/>
      <feFlood flood-color="#665eff"/>
      <feComposite operator="in" in2="blur-9"/>
      <feComposite in="SourceGraphic"/>
    </filter>
    <filter id="Ellipse_814" x="851.159" y="563.516" width="16.198" height="16.198" filterUnits="userSpaceOnUse">
      <feOffset input="SourceAlpha"/>
      <feGaussianBlur stdDeviation="1.5" result="blur-10"/>
      <feFlood flood-color="#665eff"/>
      <feComposite operator="in" in2="blur-10"/>
      <feComposite in="SourceGraphic"/>
    </filter>
    <filter id="Ellipse_815" x="600.54" y="459.75" width="16.198" height="16.198" filterUnits="userSpaceOnUse">
      <feOffset input="SourceAlpha"/>
      <feGaussianBlur stdDeviation="1.5" result="blur-11"/>
      <feFlood flood-color="#665eff"/>
      <feComposite operator="in" in2="blur-11"/>
      <feComposite in="SourceGraphic"/>
    </filter>
    <filter id="Path_9681" x="603.836" y="316.393" width="303.111" height="303.112" filterUnits="userSpaceOnUse">
      <feOffset input="SourceAlpha"/>
      <feGaussianBlur stdDeviation="5" result="blur-12"/>
      <feFlood flood-color="#665eff"/>
      <feComposite operator="in" in2="blur-12"/>
      <feComposite in="SourceGraphic"/>
    </filter>
    <filter id="Ellipse_816" x="836.364" y="370.379" width="16.598" height="16.598" filterUnits="userSpaceOnUse">
      <feOffset input="SourceAlpha"/>
      <feGaussianBlur stdDeviation="1.5" result="blur-13"/>
      <feFlood flood-color="#3acce1"/>
      <feComposite operator="in" in2="blur-13"/>
      <feComposite in="SourceGraphic"/>
    </filter>
    <filter id="Path_9683" x="600.937" y="313.394" width="308.91" height="308.91" filterUnits="userSpaceOnUse">
      <feOffset input="SourceAlpha"/>
      <feGaussianBlur stdDeviation="5" result="blur-14"/>
      <feFlood flood-color="#3acce1"/>
      <feComposite operator="in" in2="blur-14"/>
      <feComposite in="SourceGraphic"/>
    </filter>
    <filter id="Path_9684" x="735.495" y="612.199" width="28.996" height="39.393" filterUnits="userSpaceOnUse">
      <feOffset input="SourceAlpha"/>
      <feGaussianBlur stdDeviation="3" result="blur-15"/>
      <feFlood flood-color="#3acce1"/>
      <feComposite operator="in" in2="blur-15"/>
      <feComposite in="SourceGraphic"/>
    </filter>
    <filter id="Path_9685" x="711.003" y="609.4" width="31.895" height="40.493" filterUnits="userSpaceOnUse">
      <feOffset input="SourceAlpha"/>
      <feGaussianBlur stdDeviation="3" result="blur-16"/>
      <feFlood flood-color="#3acce1"/>
      <feComposite operator="in" in2="blur-16"/>
      <feComposite in="SourceGraphic"/>
    </filter>
    <filter id="Path_9686" x="687.511" y="603.502" width="34.395" height="41.192" filterUnits="userSpaceOnUse">
      <feOffset input="SourceAlpha"/>
      <feGaussianBlur stdDeviation="3" result="blur-17"/>
      <feFlood flood-color="#3acce1"/>
      <feComposite operator="in" in2="blur-17"/>
      <feComposite in="SourceGraphic"/>
    </filter>
    <filter id="Path_9687" x="665.018" y="594.805" width="36.494" height="41.392" filterUnits="userSpaceOnUse">
      <feOffset input="SourceAlpha"/>
      <feGaussianBlur stdDeviation="3" result="blur-18"/>
      <feFlood flood-color="#3acce1"/>
      <feComposite operator="in" in2="blur-18"/>
      <feComposite in="SourceGraphic"/>
    </filter>
    <filter id="Path_9691" x="789.278" y="603.002" width="34.994" height="41.892" filterUnits="userSpaceOnUse">
      <feOffset input="SourceAlpha"/>
      <feGaussianBlur stdDeviation="3" result="blur-19"/>
      <feFlood flood-color="#3acce1"/>
      <feComposite operator="in" in2="blur-19"/>
      <feComposite in="SourceGraphic"/>
    </filter>
    <filter id="Path_9693" x="746.791" y="611.999" width="29.696" height="39.793" filterUnits="userSpaceOnUse">
      <feOffset input="SourceAlpha"/>
      <feGaussianBlur stdDeviation="3" result="blur-20"/>
      <feFlood flood-color="#3acce1"/>
      <feComposite operator="in" in2="blur-20"/>
      <feComposite in="SourceGraphic"/>
    </filter>
    <filter id="Path_9699" x="576.148" y="464.248" width="41.889" height="75.479" filterUnits="userSpaceOnUse">
      <feOffset input="SourceAlpha"/>
      <feGaussianBlur stdDeviation="1.5" result="blur-21"/>
      <feFlood flood-color="#64b0ff"/>
      <feComposite operator="in" in2="blur-21"/>
      <feComposite in="SourceGraphic"/>
    </filter>
    <filter id="Path_9701" x="787.18" y="302.701" width="69.38" height="45.088" filterUnits="userSpaceOnUse">
      <feOffset input="SourceAlpha"/>
      <feGaussianBlur stdDeviation="1.5" result="blur-22"/>
      <feFlood flood-color="#64b0ff"/>
      <feComposite operator="in" in2="blur-22"/>
      <feComposite in="SourceGraphic"/>
    </filter>
    <filter id="Path_9702" x="861.955" y="376.477" width="62.731" height="210.035" filterUnits="userSpaceOnUse">
      <feOffset input="SourceAlpha"/>
      <feGaussianBlur stdDeviation="1.5" result="blur-23"/>
      <feFlood flood-color="#64b0ff"/>
      <feComposite operator="in" in2="blur-23"/>
      <feComposite in="SourceGraphic"/>
    </filter>
    <filter id="Path_9703" x="850.259" y="337.389" width="26.294" height="26.194" filterUnits="userSpaceOnUse">
      <feOffset input="SourceAlpha"/>
      <feGaussianBlur stdDeviation="1.5" result="blur-24"/>
      <feFlood flood-color="#64b0ff"/>
      <feComposite operator="in" in2="blur-24"/>
      <feComposite in="SourceGraphic"/>
    </filter>
    <filter id="Path_9704" x="843.06" y="573.112" width="31.496" height="31.796" filterUnits="userSpaceOnUse">
      <feOffset input="SourceAlpha"/>
      <feGaussianBlur stdDeviation="3" result="blur-25"/>
      <feFlood flood-color="#3acce1"/>
      <feComposite operator="in" in2="blur-25"/>
      <feComposite in="SourceGraphic"/>
    </filter>
    <filter id="Path_9705" x="827.065" y="585.408" width="30.996" height="31.995" filterUnits="userSpaceOnUse">
      <feOffset input="SourceAlpha"/>
      <feGaussianBlur stdDeviation="3" result="blur-26"/>
      <feFlood flood-color="#3acce1"/>
      <feComposite operator="in" in2="blur-26"/>
      <feComposite in="SourceGraphic"/>
    </filter>
    <filter id="Path_9706" x="809.771" y="595.504" width="30.196" height="31.596" filterUnits="userSpaceOnUse">
      <feOffset input="SourceAlpha"/>
      <feGaussianBlur stdDeviation="3" result="blur-27"/>
      <feFlood flood-color="#3acce1"/>
      <feComposite operator="in" in2="blur-27"/>
      <feComposite in="SourceGraphic"/>
    </filter>
    <filter id="Ellipse_817" x="873.152" y="441.256" width="13.798" height="13.798" filterUnits="userSpaceOnUse">
      <feOffset input="SourceAlpha"/>
      <feGaussianBlur stdDeviation="1.5" result="blur-28"/>
      <feFlood flood-color="#00dfff"/>
      <feComposite operator="in" in2="blur-28"/>
      <feComposite in="SourceGraphic"/>
    </filter>
    <filter id="Path_9708" x="563.429" y="275.886" width="383.924" height="383.924" filterUnits="userSpaceOnUse">
      <feOffset input="SourceAlpha"/>
      <feGaussianBlur stdDeviation="25" result="blur-29"/>
      <feFlood flood-color="#3acce1"/>
      <feComposite operator="in" in2="blur-29"/>
      <feComposite in="SourceGraphic"/>
    </filter>
    <filter id="Ellipse_818" x="1197.345" y="495.836" width="22.399" height="22.399" filterUnits="userSpaceOnUse">
      <feOffset input="SourceAlpha"/>
      <feGaussianBlur stdDeviation="3" result="blur-30"/>
      <feFlood flood-color="#3acce1"/>
      <feComposite operator="in" in2="blur-30"/>
      <feComposite in="SourceGraphic"/>
    </filter>
    <filter id="Ellipse_820" x="990.791" y="377.587" width="27.428" height="27.428" filterUnits="userSpaceOnUse">
      <feOffset input="SourceAlpha"/>
      <feGaussianBlur stdDeviation="3" result="blur-31"/>
      <feFlood flood-color="#3acce1"/>
      <feComposite operator="in" in2="blur-31"/>
      <feComposite in="SourceGraphic"/>
    </filter>
    <filter id="Ellipse_819" x="1190.647" y="489.138" width="35.795" height="35.794" filterUnits="userSpaceOnUse">
      <feOffset input="SourceAlpha"/>
      <feGaussianBlur stdDeviation="3" result="blur-32"/>
      <feFlood flood-color="#3acce1"/>
      <feComposite operator="in" in2="blur-32"/>
      <feComposite in="SourceGraphic"/>
    </filter>
    <filter id="Ellipse_821" x="977.006" y="363.802" width="54.999" height="54.999" filterUnits="userSpaceOnUse">
      <feOffset input="SourceAlpha"/>
      <feGaussianBlur stdDeviation="3" result="blur-33"/>
      <feFlood flood-color="#3acce1"/>
      <feComposite operator="in" in2="blur-33"/>
      <feComposite in="SourceGraphic"/>
    </filter>
    <filter id="Subtraction_77" x="689.056" y="403.253" width="129.846" height="144.791" filterUnits="userSpaceOnUse">
      <feOffset dy="3" input="SourceAlpha"/>
      <feGaussianBlur stdDeviation="3" result="blur-34"/>
      <feFlood flood-opacity="0.161"/>
      <feComposite operator="in" in2="blur-34"/>
      <feComposite in="SourceGraphic"/>
    </filter>
  </defs>
  <g id="js-logo" transform="translate(33)">
    <g id="Group_104132" data-name="Group 104132" transform="translate(-33 0)">
      <g id="Crown" transform="translate(287.293 0)" opacity="0.19" style="isolation: isolate">
        <g id="Group_102948" data-name="Group 102948" transform="translate(0)" opacity="0.67">
          <g id="Group_102934" data-name="Group 102934" transform="translate(428.435)">
            <path id="Polygon_2" data-name="Polygon 2" d="M37.2,0l37.2,465.638H0Z" transform="translate(0 466.838)" fill="url(#radial-gradient)"/>
            <path id="Polygon_3" data-name="Polygon 3" d="M37.2,0l37.2,466.838H0Z" transform="translate(74.406 466.838) rotate(180)" fill="url(#radial-gradient)"/>
          </g>
          <g id="Group_102935" data-name="Group 102935" transform="translate(932.476 429.635) rotate(90)">
            <path id="Polygon_2-2" data-name="Polygon 2" d="M36.6,0l36.6,466.838H0Z" transform="translate(0 465.638)" fill="url(#radial-gradient)"/>
            <path id="Polygon_3-2" data-name="Polygon 3" d="M36.6,0l36.6,465.638H0Z" transform="translate(73.206 465.638) rotate(180)" fill="url(#radial-gradient)"/>
          </g>
          <g id="Group_102936" data-name="Group 102936" transform="translate(769.243 110.481) rotate(45)">
            <path id="Polygon_2-3" data-name="Polygon 2" d="M36.717,0,73.434,465.849H0Z" transform="translate(0 465.849)" fill="url(#radial-gradient)"/>
            <path id="Polygon_3-3" data-name="Polygon 3" d="M36.717,0,73.434,465.849H0Z" transform="translate(73.434 465.849) rotate(180)" fill="url(#radial-gradient)"/>
          </g>
          <g id="Group_102937" data-name="Group 102937" transform="translate(110.432 162.41) rotate(-45)">
            <path id="Polygon_2-4" data-name="Polygon 2" d="M36.717,0,73.434,465.849H0Z" transform="translate(0 465.849)" fill="url(#radial-gradient)"/>
            <path id="Polygon_3-4" data-name="Polygon 3" d="M36.717,0,73.434,465.849H0Z" transform="translate(73.434 465.849) rotate(180)" fill="url(#radial-gradient)"/>
          </g>
          <g id="Group_102938" data-name="Group 102938" transform="matrix(0.966, -0.259, 0.259, 0.966, 309.764, 25.377)">
            <path id="Polygon_2-5" data-name="Polygon 2" d="M36.717,0,73.434,465.849H0Z" transform="translate(0 465.849)" fill="url(#radial-gradient)"/>
            <path id="Polygon_3-5" data-name="Polygon 3" d="M36.717,0,73.434,465.849H0Z" transform="translate(73.434 465.849) rotate(180)" fill="url(#radial-gradient)"/>
          </g>
          <g id="Group_102939" data-name="Group 102939" transform="translate(201.077 80.769) rotate(-30)">
            <path id="Polygon_2-6" data-name="Polygon 2" d="M36.717,0,73.434,465.849H0Z" transform="translate(0 465.849)" fill="url(#radial-gradient)"/>
            <path id="Polygon_3-6" data-name="Polygon 3" d="M36.717,0,73.434,465.849H0Z" transform="translate(73.434 465.849) rotate(180)" fill="url(#radial-gradient)"/>
          </g>
          <g id="Group_102940" data-name="Group 102940" transform="matrix(-0.966, -0.259, 0.259, -0.966, 380.695, 925.326)">
            <path id="Polygon_2-7" data-name="Polygon 2" d="M36.717,0,73.434,465.849H0Z" transform="translate(73.434 465.849) rotate(180)" fill="url(#radial-gradient)"/>
            <path id="Polygon_3-7" data-name="Polygon 3" d="M36.717,0,73.434,465.849H0Z" transform="translate(0 465.849)" fill="url(#radial-gradient)"/>
          </g>
          <g id="Group_102941" data-name="Group 102941" transform="translate(264.672 887.647) rotate(-150)">
            <path id="Polygon_2-8" data-name="Polygon 2" d="M36.717,0,73.434,465.849H0Z" transform="translate(73.434 465.849) rotate(180)" fill="url(#radial-gradient)"/>
            <path id="Polygon_3-8" data-name="Polygon 3" d="M36.717,0,73.434,465.849H0Z" transform="translate(0 465.849)" fill="url(#radial-gradient)"/>
          </g>
          <g id="Group_102942" data-name="Group 102942" transform="translate(850.877 201.124) rotate(60)">
            <path id="Polygon_2-9" data-name="Polygon 2" d="M36.717,0,73.434,465.849H0Z" transform="translate(0 465.849)" fill="url(#radial-gradient)"/>
            <path id="Polygon_3-9" data-name="Polygon 3" d="M36.717,0,73.434,465.849H0Z" transform="translate(73.434 465.849) rotate(180)" fill="url(#radial-gradient)"/>
          </g>
          <g id="Group_102943" data-name="Group 102943" transform="matrix(0.259, 0.966, -0.966, 0.259, 906.273, 309.811)">
            <path id="Polygon_2-10" data-name="Polygon 2" d="M36.717,0,73.434,465.849H0Z" transform="translate(0 465.849)" fill="url(#radial-gradient)"/>
            <path id="Polygon_3-10" data-name="Polygon 3" d="M36.717,0,73.434,465.849H0Z" transform="translate(73.434 465.849) rotate(180)" fill="url(#radial-gradient)"/>
          </g>
          <g id="Group_102944" data-name="Group 102944" transform="matrix(0.259, -0.966, 0.966, 0.259, 6.322, 380.745)">
            <path id="Polygon_2-11" data-name="Polygon 2" d="M36.717,0,73.434,465.849H0Z" transform="translate(73.434 465.849) rotate(180)" fill="url(#radial-gradient)"/>
            <path id="Polygon_3-11" data-name="Polygon 3" d="M36.717,0,73.434,465.849H0Z" transform="translate(0 465.849)" fill="url(#radial-gradient)"/>
          </g>
          <g id="Group_102946" data-name="Group 102946" transform="translate(44.001 264.725) rotate(-60)">
            <path id="Polygon_2-12" data-name="Polygon 2" d="M36.717,0,73.434,465.849H0Z" transform="translate(73.434 465.849) rotate(180)" fill="url(#radial-gradient)"/>
            <path id="Polygon_3-12" data-name="Polygon 3" d="M36.717,0,73.434,465.849H0Z" transform="translate(0 465.849)" fill="url(#radial-gradient)"/>
          </g>
        </g>
      </g>
      <g id="Group_104131" data-name="Group 104131" transform="translate(0 282.509)">
        <path id="Path_9639" data-name="Path 9639" d="M-240.651,185.9H82.719l60.958,75.476H333.251l48.908-9.558H577.6l24,31.037h593.738" transform="translate(252.669 -114.623)" fill="none" stroke="#3acce1" stroke-miterlimit="10" stroke-width="1" opacity="0.14"/>
        <path id="Path_9640" data-name="Path 9640" d="M-110.4,315.093H148.116L169.609,293.7H597.87" transform="translate(356.656 -114.658)" fill="none" stroke="#3acce1" stroke-miterlimit="10" stroke-width="1" opacity="0.14"/>
        <path id="Path_9641" data-name="Path 9641" d="M-210.651,360.585H98.6l27.991-27.991H489.568L507.563,314.7H677.907" transform="translate(276.619 -114.665)" fill="none" stroke="#3acce1" stroke-miterlimit="10" stroke-width="1" opacity="0.14"/>
        <g id="Group_104126" data-name="Group 104126" transform="translate(446.292 210.932)" opacity="0.04">
          <rect id="Rectangle_20034" data-name="Rectangle 20034" width="4.299" height="14.095" fill="#64b0ff"/>
          <rect id="Rectangle_20035" data-name="Rectangle 20035" width="4.299" height="14.095" transform="translate(6.398)" fill="#64b0ff"/>
          <rect id="Rectangle_20036" data-name="Rectangle 20036" width="4.299" height="14.095" transform="translate(12.796)" fill="#64b0ff"/>
          <rect id="Rectangle_20037" data-name="Rectangle 20037" width="4.299" height="14.095" transform="translate(19.094)" fill="#64b0ff"/>
          <rect id="Rectangle_20038" data-name="Rectangle 20038" width="4.299" height="14.095" transform="translate(25.492)" fill="#64b0ff"/>
          <rect id="Rectangle_20039" data-name="Rectangle 20039" width="4.299" height="14.095" transform="translate(31.89)" fill="#64b0ff"/>
          <rect id="Rectangle_20040" data-name="Rectangle 20040" width="4.299" height="14.095" transform="translate(38.288)" fill="#64b0ff"/>
          <rect id="Rectangle_20041" data-name="Rectangle 20041" width="4.299" height="14.095" transform="translate(44.686)" fill="#64b0ff"/>
          <rect id="Rectangle_20042" data-name="Rectangle 20042" width="4.299" height="14.095" transform="translate(50.983)" fill="#64b0ff"/>
          <rect id="Rectangle_20043" data-name="Rectangle 20043" width="4.299" height="14.095" transform="translate(57.381)" fill="#64b0ff"/>
        </g>
        <g transform="matrix(1, 0, 0, 1, 0, -282.51)" filter="url(#Ellipse_807)">
          <ellipse id="Ellipse_807-2" data-name="Ellipse 807" cx="2.199" cy="2.199" rx="2.199" ry="2.199" transform="translate(349.92 480.74)" fill="#665eff"/>
        </g>
        <g transform="matrix(1, 0, 0, 1, 0, -282.51)" filter="url(#Ellipse_808)">
          <ellipse id="Ellipse_808-2" data-name="Ellipse 808" cx="8.397" cy="8.397" rx="8.397" ry="8.397" transform="translate(343.72 474.55)" fill="none" stroke="rgba(102,94,255,0.23)" stroke-miterlimit="10" stroke-width="1"/>
        </g>
        <g transform="matrix(1, 0, 0, 1, 0, -282.51)" filter="url(#Ellipse_809)">
          <ellipse id="Ellipse_809-2" data-name="Ellipse 809" cx="2.299" cy="2.299" rx="2.299" ry="2.299" transform="translate(440.19 381.58)" fill="#ccc"/>
        </g>
        <path id="Path_9642" data-name="Path 9642" d="M53.488,224.075h-.2c-1.3-.1-2.6-.2-3.9-.4h-.2l.9-5.7h.2a18.408,18.408,0,0,0,3.3.3h.2Zm-3.8-.7c1.2.2,2.3.3,3.5.4l.3-5.1-3-.3Zm7.4.7-.3-5.7h.2l3.3-.3h.2l.9,5.7h-.2c-1.3.2-2.6.3-3.9.4Zm0-5.4.3,5.1c1.2-.1,2.3-.2,3.5-.4l-.8-5Zm-11.2,4.3h-.2a22.845,22.845,0,0,1-3.7-1.2l-.2-.1,2-5.4.2.1c1,.4,2.1.7,3.1,1h.2Zm-3.6-1.5a33.806,33.806,0,0,0,3.4,1.1l1.3-4.9c-1-.3-1.9-.6-2.9-.9Zm22.393,1.5-1.4-5.6h.2a28.115,28.115,0,0,0,3.1-1l.1-.1,2,5.4-.1.1c-1.2.4-2.5.8-3.7,1.2Zm-1-5.4,1.3,4.9c1.1-.3,2.3-.7,3.4-1.1l-1.8-4.8A11.1,11.1,0,0,1,63.685,217.577Zm-25.092,2.7-.1-.1a37.165,37.165,0,0,1-3.4-1.9l-.1-.1,3-4.9.1.1a26.918,26.918,0,0,0,2.9,1.6l.1.1Zm-3.2-2.1a30.71,30.71,0,0,0,3.1,1.7l2.2-4.6a13.49,13.49,0,0,1-2.6-1.5Zm36.588,2.1-2.5-5.2.1-.1c1-.5,1.9-1,2.9-1.6l.1-.1,3,4.9-.1.1a37.162,37.162,0,0,1-3.4,1.9Zm-2.1-5,2.3,4.6c1-.5,2.1-1.1,3.1-1.7l-2.7-4.3C71.682,214.378,70.783,214.778,69.883,215.278Zm-37.888,1-.1-.1a34.674,34.674,0,0,1-2.9-2.5l-.1-.1,4-4.2.1.1a16.374,16.374,0,0,0,2.5,2.1l.1.1Zm-2.7-2.8c.9.8,1.8,1.6,2.7,2.3l3.1-4a21.969,21.969,0,0,1-2.3-2Zm49.284,2.7-3.5-4.5.1-.1c.9-.7,1.7-1.4,2.5-2.1l.1-.1,4,4.2-.1.1a34.672,34.672,0,0,1-2.9,2.5Zm-3.1-4.5,3.1,4c.9-.7,1.8-1.5,2.7-2.3l-3.5-3.7A14.331,14.331,0,0,1,75.481,211.679Zm-49.084-.8-.1-.1c-.8-1-1.6-2-2.4-3.1l-.1-.1,4.7-3.3.1.1a25.593,25.593,0,0,0,2,2.6l.1.1Zm-2.1-3.2a30.117,30.117,0,0,0,2.2,2.8l3.9-3.3c-.6-.8-1.3-1.6-1.8-2.4Zm59.881,3.2-4.4-3.7.1-.1a25.582,25.582,0,0,0,2-2.6l.1-.1,4.7,3.3-.1.1a23.387,23.387,0,0,1-2.4,3.1Zm-3.9-3.8,3.9,3.3a30.116,30.116,0,0,0,2.2-2.8l-4.2-2.9A15.445,15.445,0,0,1,80.279,207.081Zm-58.381-2.5-.1-.1a37.781,37.781,0,0,1-1.7-3.5l-.1-.1,5.3-2.3.1.1a20.979,20.979,0,0,0,1.5,3l.1.1Zm-1.4-3.6c.5,1.1,1,2.1,1.6,3.2l4.5-2.5c-.5-.9-.9-1.8-1.3-2.7Zm68.178,3.6-5-2.8.1-.1,1.5-3,.1-.1,5.3,2.3-.1.1c-.5,1.2-1.1,2.3-1.7,3.5Zm-4.6-2.9,4.5,2.5a31.824,31.824,0,0,0,1.6-3.2l-4.7-2C84.978,199.883,84.578,200.783,84.078,201.682Zm-65.279-4.2v-.2c-.4-1.2-.7-2.5-1-3.8v-.2l5.6-1.2v.2c.2,1.1.5,2.1.8,3.2v.2Zm-.6-3.8a21.353,21.353,0,0,0,.9,3.4l4.9-1.5c-.3-1-.5-1.9-.8-2.9Zm73.576,3.8-5.5-1.7v-.2a29.924,29.924,0,0,0,.8-3.2v-.2l5.6,1.2v.2c-.3,1.3-.6,2.5-1,3.8Zm-5.1-1.9,4.9,1.5c.3-1.1.6-2.3.9-3.4l-5-1C87.177,193.585,86.977,194.585,86.677,195.584Zm-69.477-5.7v-.2c-.1-1.3-.2-2.6-.2-3.9v-.2h5.7v.2c0,1.1.1,2.2.2,3.3v.2Zm.2-3.8c0,1.2.1,2.4.2,3.5l5.1-.5c-.1-1-.1-2-.2-3Zm75.875,3.8-5.7-.6v-.2c.1-1.1.2-2.2.2-3.3v-.2h5.7v.2c0,1.3-.1,2.6-.2,3.9Zm-5.3-.9,5.1.5c.1-1.2.2-2.4.2-3.6h-5.1C88.077,186.987,88.077,187.987,87.977,188.987Zm-65.079-6.2-5.7-.6v-.2a23.174,23.174,0,0,1,.6-3.8v-.2l5.6,1.1v.2c-.2,1.1-.4,2.2-.5,3.3Zm-5.3-.9,5.1.5c.1-1,.3-2,.4-3l-5-1C17.9,179.59,17.7,180.789,17.6,181.889Zm70.077.8v-.2c-.1-1.1-.3-2.2-.5-3.3v-.2l5.6-1.2v.2a25,25,0,0,1,.6,3.8v.2Zm-.2-3.3c.2,1,.4,2,.5,3l5.1-.5c-.1-1.2-.3-2.3-.5-3.5Zm-63.279-3.1-5.5-1.7v-.2c.4-1.2.8-2.4,1.3-3.6l.1-.1,5.3,2.3-.1.1a28.255,28.255,0,0,0-1.1,3.1Zm-5.1-1.9,4.9,1.5c.3-.9.7-1.9,1-2.8l-4.7-2Zm67.278,1.8v-.2c-.3-1-.7-2.1-1.1-3.1l-.1-.1,5.3-2.3.1.1c.5,1.2,1,2.4,1.4,3.6v.2Zm-.9-3.2c.4.9.7,1.9,1,2.8l4.9-1.5-1.2-3.3Zm-58.681-2.7-5-2.8.1-.1c.6-1.1,1.3-2.2,2-3.3l.1-.1,4.7,3.3-.1.1a26.047,26.047,0,0,0-1.7,2.8Zm-4.6-2.9,4.5,2.5c.5-.9,1-1.7,1.6-2.6l-4.2-2.9A15.275,15.275,0,0,0,22.2,167.394Zm61.58,2.8-.1-.1a26.048,26.048,0,0,0-1.7-2.8l-.1-.1,4.7-3.3.1.1,2.1,3.3.1.1Zm-1.5-3c.6.8,1.1,1.7,1.6,2.5l4.5-2.5c-.6-1-1.2-2-1.9-3Zm-51.783-2.3-4.4-3.7.1-.1a23.66,23.66,0,0,1,2.7-2.8l.1-.1,4,4.2-.1.1c-.8.8-1.6,1.6-2.3,2.4Zm-3.9-3.8,3.9,3.3c.7-.8,1.4-1.5,2.1-2.2l-3.5-3.7A20.346,20.346,0,0,0,26.6,161.1Zm53.383,3.7-.1-.1c-.7-.8-1.5-1.6-2.3-2.4l-.1-.1,4-4.2.1.1c.9.9,1.8,1.8,2.7,2.8l.1.1Zm-2-2.6c.7.7,1.4,1.4,2.1,2.2l3.9-3.3c-.8-.9-1.6-1.7-2.4-2.5Zm-42.786-1.9-3.5-4.5.1-.1a36.166,36.166,0,0,1,3.2-2.2l.1-.1,3.1,4.9-.1.1c-.9.6-1.8,1.2-2.7,1.9Zm-3-4.5,3.1,4a21.955,21.955,0,0,1,2.5-1.7l-2.7-4.3A29.759,29.759,0,0,0,32.2,155.8Zm43.086,4.4-.1-.1c-.9-.7-1.8-1.3-2.7-1.9l-.1-.1,3-4.9.1.1a36.165,36.165,0,0,1,3.2,2.2l.1.1Zm-2.6-2.1c.8.5,1.7,1.1,2.5,1.7l3.1-4a29.76,29.76,0,0,0-2.9-2Zm-31.89-1.3-2.5-5.2.1-.1a27.484,27.484,0,0,1,3.6-1.5l.2-.1,2,5.4-.1.1c-1,.4-2,.8-3,1.3Zm-2.1-5,2.3,4.6c.9-.4,1.8-.8,2.8-1.2l-1.8-4.8A25.174,25.174,0,0,0,38.693,151.8Zm30.99,4.9-.1-.1c-1-.5-2-.9-3-1.3l-.2-.1,2-5.4.2.1c1.2.4,2.4,1,3.6,1.5l.1.1Zm-2.9-1.6a16.847,16.847,0,0,1,2.8,1.2l2.2-4.6c-1.1-.5-2.1-1-3.2-1.4Zm-19.894-.6-1.4-5.6h.2c1.2-.3,2.5-.6,3.8-.8h.2l.9,5.7h-.2a30.035,30.035,0,0,0-3.2.7Zm-1-5.4,1.3,4.9c1-.2,2-.4,2.9-.6l-.8-5C48.19,148.6,46.99,148.8,45.891,149.1Zm17.594,5.3h-.2c-1.1-.3-2.1-.5-3.2-.7h-.2l.9-5.7h.2c1.3.2,2.6.5,3.8.8h.2Zm-3.1-1c1,.2,2,.4,2.9.6l1.3-4.9c-1.1-.3-2.3-.5-3.5-.7Zm-7,0-.3-5.7h.2a12.1,12.1,0,0,0,1.9-.1h2.2l-.3,5.7h-3.5Zm.1-5.4.3,5.1h3l.2-5.1h-1.8A9.654,9.654,0,0,0,53.488,148Z" transform="translate(356.615 -114.611)" fill="#64b0ff" opacity="0.16"/>
        <g transform="matrix(1, 0, 0, 1, 0, -282.51)" filter="url(#Path_9712)">
          <path id="Path_9712-2" data-name="Path 9712" d="M87.9,296.208h-.389c-2.525-.194-5.051-.389-7.576-.777h-.389L81.3,284.358h.389a35.776,35.776,0,0,0,6.411.583h.389Zm-7.382-1.36c2.331.389,4.468.583,6.8.777l.583-9.907-5.828-.583Zm14.375,1.36-.583-11.073H94.7l6.411-.583h.389l1.748,11.073h-.389c-2.525.389-5.051.583-7.576.777Zm0-10.49.583,9.907c2.331-.194,4.468-.388,6.8-.777l-1.554-9.713Zm-21.757,8.353h-.389a44.393,44.393,0,0,1-7.188-2.331l-.389-.194,3.885-10.49.389.194c1.943.777,4.079,1.36,6.022,1.943h.389Zm-6.993-2.914a65.678,65.678,0,0,0,6.6,2.137l2.525-9.519c-1.943-.583-3.691-1.166-5.633-1.748Zm43.514,2.914-2.72-10.879h.389a54.62,54.62,0,0,0,6.022-1.943l.194-.194,3.885,10.49-.194.194c-2.331.777-4.856,1.554-7.188,2.331Zm-1.943-10.49,2.525,9.519c2.137-.583,4.468-1.36,6.6-2.137l-3.5-9.324A21.573,21.573,0,0,1,107.719,283.581ZM58.96,288.826l-.194-.194a72.294,72.294,0,0,1-6.6-3.691l-.194-.194,5.828-9.519.194.194a52.33,52.33,0,0,0,5.633,3.108l.194.194Zm-6.216-4.079a59.643,59.643,0,0,0,6.022,3.3l4.274-8.936a26.219,26.219,0,0,1-5.051-2.914Zm71.1,4.079-4.856-10.1.194-.194c1.943-.971,3.691-1.943,5.633-3.108l.194-.194,5.828,9.519-.194.194a72.237,72.237,0,0,1-6.6,3.691Zm-4.079-9.713,4.468,8.936c1.943-.971,4.079-2.137,6.022-3.3l-5.245-8.353C123.259,277.365,121.511,278.142,119.763,279.113Zm-73.624,1.943-.194-.194A67.368,67.368,0,0,1,40.311,276l-.194-.194,7.77-8.159.194.194a31.817,31.817,0,0,0,4.856,4.079l.194.194Zm-5.245-5.439c1.748,1.554,3.5,3.108,5.245,4.468l6.022-7.77a42.689,42.689,0,0,1-4.468-3.885Zm95.769,5.245-6.8-8.742.194-.194c1.748-1.36,3.3-2.72,4.856-4.079l.194-.194,7.77,8.159-.194.194a67.347,67.347,0,0,1-5.633,4.857Zm-6.022-8.742,6.022,7.77c1.748-1.36,3.5-2.914,5.245-4.468l-6.8-7.188A27.846,27.846,0,0,1,130.641,272.12ZM35.26,270.566l-.194-.194c-1.554-1.943-3.108-3.885-4.662-6.022l-.194-.194,9.13-6.41.194.194a49.739,49.739,0,0,0,3.885,5.051l.194.194Zm-4.079-6.216a58.532,58.532,0,0,0,4.274,5.439l7.576-6.411c-1.166-1.554-2.525-3.108-3.5-4.662Zm116.361,6.216-8.547-7.188.194-.194a49.739,49.739,0,0,0,3.885-5.051l.194-.194,9.13,6.411-.194.194a45.446,45.446,0,0,1-4.662,6.022Zm-7.576-7.382,7.576,6.411a58.528,58.528,0,0,0,4.274-5.439l-8.159-5.633A30.022,30.022,0,0,1,139.965,263.184ZM26.519,258.327l-.194-.194a73.4,73.4,0,0,1-3.3-6.8l-.194-.194,10.3-4.468.194.194a40.767,40.767,0,0,0,2.914,5.828l.194.194Zm-2.72-6.993c.971,2.137,1.943,4.079,3.108,6.216l8.742-4.856c-.971-1.748-1.748-3.5-2.525-5.245Zm132.484,6.993-9.713-5.439.194-.194,2.914-5.828.194-.194,10.3,4.468-.194.194c-.971,2.331-2.137,4.468-3.3,6.8Zm-8.936-5.634,8.742,4.856a61.825,61.825,0,0,0,3.108-6.216l-9.13-3.885C149.1,249.2,148.319,250.945,147.347,252.694ZM20.5,244.535v-.389c-.777-2.331-1.36-4.857-1.943-7.382v-.389l10.878-2.331v.388c.389,2.137.971,4.08,1.554,6.216v.389Zm-1.166-7.382a41.5,41.5,0,0,0,1.748,6.6l9.519-2.914c-.583-1.943-.971-3.691-1.554-5.634Zm142.974,7.382-10.684-3.3v-.388a58.129,58.129,0,0,0,1.554-6.216v-.389l10.878,2.331v.388c-.583,2.525-1.166,4.856-1.943,7.382Zm-9.907-3.691,9.519,2.914c.583-2.137,1.166-4.468,1.748-6.6l-9.713-1.943C153.369,236.959,152.981,238.9,152.4,240.844ZM17.389,229.771v-.389c-.194-2.525-.389-5.051-.389-7.576v-.389H28.073v.389c0,2.137.194,4.274.389,6.41v.388Zm.389-7.382c0,2.331.194,4.662.389,6.8l9.907-.971c-.194-1.943-.194-3.885-.389-5.828Zm147.442,7.382-11.073-1.166v-.388c.194-2.137.389-4.274.389-6.411v-.388h11.073v.388c0,2.525-.194,5.051-.389,7.576Zm-10.3-1.748,9.907.971c.194-2.331.388-4.662.388-6.993h-9.907C155.118,224.138,155.118,226.08,154.923,228.023ZM28.461,215.979l-11.073-1.166v-.389a45.032,45.032,0,0,1,1.166-7.382v-.388l10.878,2.137v.388c-.389,2.137-.777,4.274-.971,6.411Zm-10.3-1.748,9.907.971c.194-1.943.583-3.885.777-5.828l-9.713-1.943C18.748,209.763,18.36,212.094,18.166,214.231Zm136.175,1.554V215.4c-.194-2.137-.583-4.274-.971-6.411V208.6l10.878-2.331v.389a48.573,48.573,0,0,1,1.166,7.382v.388Zm-.388-6.41c.388,1.943.777,3.885.971,5.828l9.907-.971c-.194-2.331-.583-4.468-.971-6.8ZM30.987,203.352,20.3,200.05v-.388c.777-2.331,1.554-4.662,2.525-6.993l.194-.194,10.3,4.468-.194.194a54.906,54.906,0,0,0-2.137,6.022Zm-9.907-3.691,9.519,2.914c.583-1.748,1.36-3.691,1.943-5.439l-9.13-3.885Zm130.736,3.5v-.389c-.583-1.943-1.36-4.079-2.137-6.022l-.194-.194,10.3-4.468.194.194c.971,2.331,1.943,4.662,2.72,6.993v.389Zm-1.748-6.216c.777,1.748,1.36,3.691,1.943,5.439l9.519-2.914-2.331-6.411ZM36.037,191.7l-9.713-5.439.194-.194c1.166-2.137,2.525-4.274,3.885-6.411l.194-.194,9.13,6.41-.194.194a50.627,50.627,0,0,0-3.3,5.439ZM27.1,186.063l8.742,4.856c.971-1.748,1.943-3.3,3.108-5.051l-8.159-5.633A29.684,29.684,0,0,0,27.1,186.063ZM146.765,191.5l-.194-.194a50.623,50.623,0,0,0-3.3-5.439l-.194-.194,9.13-6.411.194.194,4.079,6.41.194.194Zm-2.914-5.828c1.166,1.554,2.137,3.3,3.108,4.856l8.742-4.856c-1.166-1.943-2.331-3.885-3.691-5.828ZM43.225,181.207l-8.547-7.188.194-.194a45.979,45.979,0,0,1,5.245-5.439l.194-.194,7.77,8.159-.194.194c-1.554,1.554-3.108,3.108-4.468,4.662Zm-7.576-7.382,7.576,6.411c1.36-1.554,2.72-2.914,4.079-4.274l-6.8-7.188A39.535,39.535,0,0,0,35.649,173.825Zm103.734,7.188-.194-.194c-1.36-1.554-2.914-3.108-4.468-4.662l-.194-.194,7.77-8.159.194.194c1.748,1.748,3.5,3.5,5.245,5.439l.194.194Zm-3.885-5.051c1.36,1.36,2.72,2.72,4.079,4.274l7.576-6.411c-1.554-1.748-3.108-3.3-4.662-4.856Zm-83.143-3.691-6.8-8.742.194-.194a70.285,70.285,0,0,1,6.216-4.274l.194-.194,6.022,9.519-.194.194c-1.748,1.166-3.5,2.331-5.245,3.691Zm-5.828-8.742,6.022,7.77a42.638,42.638,0,0,1,4.856-3.3l-5.245-8.353A57.822,57.822,0,0,0,46.527,163.529Zm83.725,8.547-.194-.194c-1.748-1.36-3.5-2.525-5.245-3.691l-.194-.194,5.828-9.519.194.194a70.263,70.263,0,0,1,6.216,4.274l.194.194ZM125.2,168c1.554.971,3.3,2.137,4.856,3.3l6.022-7.77a57.833,57.833,0,0,0-5.633-3.885Zm-61.968-2.525-4.856-10.1.194-.194a53.4,53.4,0,0,1,6.993-2.914l.389-.194,3.885,10.49-.194.194c-1.943.777-3.885,1.554-5.828,2.525Zm-4.079-9.713,4.468,8.936c1.748-.777,3.5-1.554,5.439-2.331l-3.5-9.324A48.919,48.919,0,0,0,59.154,155.759Zm60.22,9.519-.194-.194c-1.943-.971-3.885-1.748-5.828-2.525l-.389-.194,3.885-10.49.389.194c2.331.777,4.662,1.943,6.993,2.914l.194.194Zm-5.633-3.108a32.744,32.744,0,0,1,5.439,2.331l4.274-8.936c-2.137-.971-4.079-1.943-6.216-2.72ZM75.083,161l-2.72-10.878h.389c2.331-.583,4.856-1.166,7.382-1.554h.389l1.748,11.073h-.389A58.393,58.393,0,0,0,75.666,161Zm-1.943-10.49,2.525,9.519c1.943-.389,3.885-.777,5.633-1.166l-1.554-9.713C77.609,149.543,75.277,149.931,73.141,150.514Zm34.189,10.3h-.389c-2.137-.583-4.079-.971-6.216-1.36h-.389l1.748-11.073h.389c2.525.389,5.051.971,7.382,1.554h.388Zm-6.022-1.943c1.943.388,3.885.777,5.633,1.166l2.525-9.519c-2.137-.583-4.468-.971-6.8-1.36Zm-13.6,0-.583-11.073h.389a23.509,23.509,0,0,0,3.691-.194H95.48L94.9,158.673H88.1Zm.194-10.49.583,9.907h5.828l.388-9.907h-3.5A18.751,18.751,0,0,0,87.9,148.377Z" transform="translate(790.82 224.68)" fill="#64b0ff" opacity="0.16"/>
        </g>
        <path id="Path_9643" data-name="Path 9643" d="M140.288,145.391h-9.3l7.5-8.5H104.4v-10h34.089l-7.5-8.6h9.3l11.7,13.6Z" transform="translate(445.658 -41.625)" fill="#3acce1" opacity="0.18"/>
        <path id="Path_9644" data-name="Path 9644" d="M-8.507,442.895h-5.7l4.6-5.3H-30.5v-6.1H-9.607l-4.6-5.2h5.7l7.2,8.3Z" transform="translate(394.934 -294.035)" fill="#3acce1" opacity="0.06"/>
        <g id="Group_104124" data-name="Group 104124" transform="translate(1085.58 92.332)" opacity="0.14">
          <path id="Path_9645" data-name="Path 9645" d="M141.876,257.2H122.088L97.8,285.658l24.288,28.524h19.788l-24.355-28.524Z" transform="translate(-97.8 -257.2)" fill="#665eff"/>
          <path id="Path_9646" data-name="Path 9646" d="M203.043,257.2H183.255L158.9,285.658l24.355,28.524h19.788l-24.355-28.524Z" transform="translate(-118.463 -257.2)" fill="#665eff"/>
          <path id="Path_9647" data-name="Path 9647" d="M264.177,257.2H244.455L220.1,285.658l24.355,28.524h19.722l-24.288-28.524Z" transform="translate(-139.161 -257.2)" fill="#665eff"/>
          <path id="Path_9648" data-name="Path 9648" d="M325.376,257.2H305.588L281.3,285.658l24.288,28.524h19.788l-24.355-28.524Z" transform="translate(-159.858 -257.2)" fill="#665eff"/>
          <path id="Path_9649" data-name="Path 9649" d="M386.543,257.2H366.755L342.4,285.658l24.355,28.524h19.788l-24.355-28.524Z" transform="translate(-180.522 -257.2)" fill="#665eff"/>
          <path id="Path_9650" data-name="Path 9650" d="M447.676,257.2H427.888L403.6,285.658l24.288,28.524h19.788l-24.355-28.524Z" transform="translate(-201.219 -257.2)" fill="#665eff"/>
          <path id="Path_9651" data-name="Path 9651" d="M508.843,257.2H489.055L464.7,285.658l24.355,28.524h19.788l-24.355-28.524Z" transform="translate(-221.882 -257.2)" fill="#665eff"/>
          <path id="Path_9652" data-name="Path 9652" d="M569.977,257.2H550.255L525.9,285.658l24.354,28.524h19.722l-24.289-28.524Z" transform="translate(-242.58 -257.2)" fill="#665eff"/>
        </g>
        <g id="Group_104125" data-name="Group 104125" transform="translate(0 109.565)" opacity="0.17">
          <path id="Path_9653" data-name="Path 9653" d="M-61.6,211.9h19.354l24.09,28.015-24.09,28.151H-61.6l23.955-28.151Z" transform="translate(181.24 -211.9)" fill="#665eff"/>
          <path id="Path_9654" data-name="Path 9654" d="M-32.1,211.9h19.489l23.955,28.015-23.955,28.151H-32.1l23.955-28.151Z" transform="translate(111.815 -211.9)" fill="#665eff"/>
          <path id="Path_9655" data-name="Path 9655" d="M-2.6,211.9H16.889l23.955,28.015L16.889,268.066H-2.6l24.09-28.151Z" transform="translate(42.39 -211.9)" fill="#665eff"/>
          <path id="Path_9656" data-name="Path 9656" d="M26.8,211.9H46.289l23.955,28.015L46.289,268.066H26.8l23.955-28.151Z" transform="translate(-26.8 -211.9)" fill="#665eff"/>
        </g>
        <g id="Group_104127" data-name="Group 104127" transform="translate(426.704 162.148)" opacity="0.12">
          <path id="Path_9657" data-name="Path 9657" d="M197.5,367.8h9l11.036,12.924-11.036,13h-9l11.036-13Z" transform="translate(-142.172 -367.8)" fill="#665eff"/>
          <path id="Path_9658" data-name="Path 9658" d="M222.9,367.8h9l11.036,12.924-11.036,13h-9l11.036-13Z" transform="translate(-186.015 -367.8)" fill="#665eff"/>
          <path id="Path_9659" data-name="Path 9659" d="M248.3,367.8h9l11.036,12.924-11.036,13h-9l11.036-13Z" transform="translate(-229.858 -367.8)" fill="#665eff"/>
          <path id="Path_9660" data-name="Path 9660" d="M273.7,367.8h9l11.036,12.924-11.036,13h-9l11.036-13Z" transform="translate(-273.7 -367.8)" fill="#665eff"/>
        </g>
        <g transform="matrix(1, 0, 0, 1, 0, -282.51)" filter="url(#Ellipse_811)">
          <ellipse id="Ellipse_811-2" data-name="Ellipse 811" cx="2.699" cy="2.699" rx="2.699" ry="2.699" transform="translate(525.77 426.56)" fill="#33aab9"/>
        </g>
        <g transform="matrix(1, 0, 0, 1, 0, -282.51)" filter="url(#Ellipse_812)">
          <ellipse id="Ellipse_812-2" data-name="Ellipse 812" cx="2.699" cy="2.699" rx="2.699" ry="2.699" transform="translate(301.44 525.73)" fill="#33aab9"/>
        </g>
        <path id="Path_9675" data-name="Path 9675" d="M35.1,442.88h-1L169.056,377.6H597.917v.339H169.356Z" transform="translate(216.655 -114.685)" fill="#3acce1" opacity="0.21"/>
        <path id="Path_9678" data-name="Path 9678" d="M281.883,460.969h-10.1l-1.7-9.8a26.133,26.133,0,0,1-3.8-.9l-5.8,8.1-9.1-4.4,2.7-9.6c-1-.8-2.1-1.6-3-2.4l-8.7,4.8-6.3-7.9,6.6-7.4a37.768,37.768,0,0,1-1.7-3.5l-9.9.5-2.2-9.8,9.2-3.8v-3.8l-9.2-3.8,2.2-9.8,9.9.5c.5-1.2,1.1-2.3,1.7-3.5l-6.6-7.4,6.3-7.9,8.7,4.8,3-2.4-2.7-9.6,9.1-4.4,5.8,8.1c1.2-.3,2.5-.6,3.8-.9l1.7-9.8h10.1l1.7,9.8a26.144,26.144,0,0,1,3.8.9l5.8-8.1,9.1,4.4-2.7,9.6c1,.7,2,1.6,3,2.4l8.7-4.8,6.3,7.9-6.6,7.4a37.788,37.788,0,0,1,1.7,3.5l9.9-.5,2.2,9.8-9.2,3.8v1.9a12.1,12.1,0,0,1-.1,1.9l9.2,3.8-2.2,9.8-9.9-.5c-.5,1.2-1.1,2.3-1.7,3.5l6.6,7.4-6.3,7.9-8.7-4.8-3,2.4,2.7,9.6-9.1,4.4-5.8-8.1c-1.2.3-2.5.6-3.8.9Zm-9.4-.7h8.9l1.7-9.7h.2c1.4-.2,2.8-.6,4.2-.9l.2-.1,5.7,8,8-3.9-2.7-9.5.2-.1a21.579,21.579,0,0,0,3.3-2.7l.2-.2,8.6,4.7,5.5-6.9-6.5-7.4.1-.2c.7-1.2,1.3-2.5,1.9-3.8l.1-.2,9.8.5,2-8.7-9.1-3.8v-.3c0-.7.1-1.5.1-2.1a14.763,14.763,0,0,0-.1-2.1v-.3l9.1-3.8-2-8.7-9.8.5-.1-.2a26.932,26.932,0,0,0-1.9-3.8l-.1-.2,6.5-7.4-5.5-6.9-8.6,4.7-.2-.2-3.3-2.7-.2-.1,2.7-9.5-8-3.9-5.7,8-.2-.1a31.469,31.469,0,0,0-4.2-.9h-.2l-1.7-9.7h-8.9l-1.7,9.7h-.2c-1.4.2-2.8.6-4.2.9l-.2.1-5.7-8-8,3.9,2.7,9.5-.2.1a21.573,21.573,0,0,0-3.3,2.7l-.2.2-8.6-4.7-5.5,6.9,6.5,7.4-.1.2c-.7,1.2-1.3,2.5-1.9,3.8l-.1.2-9.8-.5-2,8.7,9.1,3.8v.3c0,.7-.1,1.4-.1,2.1a14.763,14.763,0,0,0,.1,2.1v.3l-9.1,3.8,2,8.7,9.8-.5.1.2a26.937,26.937,0,0,0,1.9,3.8l.1.2-6.5,7.4,5.5,6.9,8.6-4.7.2.2,3.3,2.7.2.1-2.7,9.5,8,3.9,5.7-8,.2.1a31.471,31.471,0,0,0,4.2.9h.2Zm8.6-.4h-8.3l-1.7-9.7h-.1a37.236,37.236,0,0,1-4.8-1.1h-.1l-5.7,8-7.5-3.6,2.7-9.4-.1-.1a29.48,29.48,0,0,1-3.9-3.1l-.1-.1-8.6,4.7-5.2-6.5,6.5-7.3-.1-.1a47.05,47.05,0,0,1-2.2-4.5v-.1l-9.8.5-1.9-8.1,9.1-3.8v-.1a20.891,20.891,0,0,1-.1-2.5,21.741,21.741,0,0,1,.1-2.5v-.1l-9.1-3.8,1.9-8.1,9.8.5v-.1a31.076,31.076,0,0,1,2.2-4.5l.1-.1-6.5-7.3,5.2-6.5,8.6,4.7.1-.1a40.829,40.829,0,0,1,3.9-3.1l.1-.1-2.7-9.4,7.5-3.6,5.7,8h.1a41.526,41.526,0,0,1,4.8-1.1h.1l1.7-9.7h8.3l1.7,9.7h.1a37.248,37.248,0,0,1,4.8,1.1h.1l5.7-8,7.5,3.6-2.7,9.4.1.1a29.489,29.489,0,0,1,3.9,3.1l.1.1,8.6-4.7,5.2,6.5-6.5,7.3.1.1a47.044,47.044,0,0,1,2.2,4.5v.1l9.8-.5,1.9,8.1-9.1,3.8v.1a31.267,31.267,0,0,1,0,5v.1l9.1,3.8-1.9,8.1-9.8-.5v.1a31.058,31.058,0,0,1-2.2,4.5l-.1.1,6.5,7.3-5.2,6.5-8.6-4.7-.1.1a40.819,40.819,0,0,1-3.9,3.1l-.1.1,2.7,9.4-7.5,3.6-5.7-8h-.1a41.505,41.505,0,0,1-4.8,1.1h-.1Zm-7.8-.7h7.1l1.6-9.6.6-.1a35.735,35.735,0,0,0,4.7-1.1l.6-.2,5.6,7.9,6.4-3.1-2.7-9.3.5-.4a35.721,35.721,0,0,0,3.8-3l.5-.4,8.5,4.7,4.5-5.6-6.5-7.3.3-.5a35.487,35.487,0,0,0,2.1-4.4l.2-.6,9.7.5,1.6-7-9-3.7v-.6a20.077,20.077,0,0,0,.1-2.4,19.261,19.261,0,0,0-.1-2.4v-.6l9-3.7-1.6-7-9.7.5-.2-.6a35.464,35.464,0,0,0-2.1-4.4l-.3-.5,6.5-7.3-4.5-5.6-8.5,4.7-.5-.4a35.7,35.7,0,0,0-3.8-3l-.5-.4,2.7-9.3-6.4-3.1-5.6,7.9-.6-.2a35.74,35.74,0,0,0-4.7-1.1l-.6-.1-1.6-9.6h-7.1l-1.6,9.6-.6.1a35.743,35.743,0,0,0-4.7,1.1l-.6.2-5.6-7.9-6.4,3.1,2.7,9.3-.5.4c-1.3.9-2.6,2-3.8,3l-.5.4-8.5-4.7-4.5,5.6,6.5,7.3-.3.5a35.464,35.464,0,0,0-2.1,4.4l-.2.6-9.7-.5-1.6,7,9,3.7v.6a28.839,28.839,0,0,0,0,4.8v.6l-9,3.7,1.6,7,9.7-.5.2.6a35.487,35.487,0,0,0,2.1,4.4l.3.5-6.5,7.3,4.5,5.6,8.5-4.7.5.4a35.724,35.724,0,0,0,3.8,3l.5.4-2.7,9.3,6.4,3.1,5.6-7.9.6.2a39.913,39.913,0,0,0,4.7,1.1l.6.1Zm3.6-34.789a11.3,11.3,0,1,1,11.3-11.3A11.285,11.285,0,0,1,276.884,424.381Zm0-21.893a10.6,10.6,0,1,0,10.6,10.6A10.6,10.6,0,0,0,276.884,402.488Zm0,20.893a10.3,10.3,0,1,1,10.3-10.3A10.282,10.282,0,0,1,276.884,423.381Zm0-19.894a9.6,9.6,0,1,0,9.6,9.6A9.6,9.6,0,0,0,276.884,403.488Z" transform="translate(278.572 -47.703)" fill="rgba(102,94,255,0.09)" opacity="0.76"/>
        <path id="Path_9679" data-name="Path 9679" d="M544.291,213.082l-6.2-.7-.3-5.6c-.5-.2-1-.3-1.5-.5l-3.7,4.2-5.3-3.3,2.1-5.2-.6-.6-.6-.6-5.2,2.1-3.3-5.3,4.2-3.7a8.785,8.785,0,0,1-.5-1.5l-5.6-.3-.7-6.2,5.4-1.6a8.749,8.749,0,0,1,.2-1.6l-4.9-2.7,2.1-5.9,5.5.9c.3-.5.6-.9.9-1.4l-3.2-4.6,4.4-4.4,4.6,3.2c.4-.3.9-.6,1.4-.9l-.9-5.5,5.9-2.1,2.7,4.9c.5-.1,1.1-.1,1.6-.2l1.6-5.4,6.2.7.3,5.6c.5.2,1,.3,1.5.5l3.7-4.2,5.3,3.3-2.1,5.2.6.6.6.6,5.2-2.1,3.3,5.3-4.2,3.7a8.806,8.806,0,0,1,.5,1.5l5.6.3.7,6.2-5.4,1.6a8.728,8.728,0,0,1-.2,1.6l4.9,2.7-2.1,5.9-5.5-.9c-.3.5-.6.9-.9,1.4l3.2,4.6-4.4,4.4-4.6-3.2c-.5.3-.9.6-1.4.9l.9,5.5-5.9,2.1-2.7-4.9c-.5.1-1.1.1-1.6.2Zm-5.6-1.4,5,.6,1.5-5.3h.2a14.916,14.916,0,0,0,2.1-.2h.2l2.7,4.8,4.8-1.7-.9-5.4.2-.1a17.37,17.37,0,0,0,1.8-1.1l.2-.1,4.5,3.2,3.6-3.6-3.2-4.5.1-.2a17.407,17.407,0,0,0,1.1-1.8l.1-.2,5.4.9,1.7-4.8-4.8-2.7v-.2a14.913,14.913,0,0,0,.2-2.1v-.2l5.3-1.5-.6-5-5.5-.3-.1-.2a15.864,15.864,0,0,0-.7-2l-.1-.2,4.1-3.7-2.7-4.3-5.1,2.1-.2-.2a4.646,4.646,0,0,0-.7-.7l-.7-.7-.2-.2,2.1-5.1-4.3-2.7-3.7,4.1-.2-.1a11.759,11.759,0,0,0-2-.7l-.2-.1-.3-5.5-5-.6-1.5,5.3h-.2a14.919,14.919,0,0,0-2.1.2h-.2l-2.7-4.8-4.8,1.7.9,5.4-.2.1a17.4,17.4,0,0,0-1.8,1.1l-.2.1-4.5-3.2-3.6,3.6,3.2,4.5-.1.2a17.408,17.408,0,0,0-1.1,1.8l-.1.2-5.4-.9-1.7,4.8,4.8,2.7v.2a14.913,14.913,0,0,0-.2,2.1v.2l-5.3,1.5.6,5,5.5.3.1.2a15.829,15.829,0,0,0,.7,2l.1.2-4.1,3.7,2.7,4.3,5.1-2.1.2.2a4.613,4.613,0,0,0,.7.7l.7.7.2.2-2.1,5.1,4.3,2.7,3.7-4.1.2.1a11.759,11.759,0,0,0,2,.7l.2.1Zm4.8.3-4.5-.5-.3-5.4h-.1a11.417,11.417,0,0,1-2.6-.9h-.1l-3.6,4.1-3.8-2.4,2.1-5-.1-.1a12.812,12.812,0,0,1-1.9-1.9l-.1-.1-5,2.1-2.4-3.8,4.1-3.6v-.1a11.413,11.413,0,0,1-.9-2.6v-.1l-5.4-.3-.5-4.5,5.2-1.5v-.1a12.407,12.407,0,0,1,.3-2.7v-.1l-4.8-2.6,1.5-4.3,5.4.9.1-.1a11.35,11.35,0,0,1,1.5-2.3l.1-.1-3.1-4.5,3.2-3.2,4.5,3.1.1-.1c.7-.5,1.5-1,2.3-1.5l.1-.1-.9-5.4,4.3-1.5,2.6,4.8h.1a12.407,12.407,0,0,1,2.7-.3h.1l1.5-5.2,4.5.5.3,5.4h.1a19.842,19.842,0,0,1,2.6.9h.1l3.6-4.1,3.8,2.4-2.1,5,.1.1a12.778,12.778,0,0,1,1.9,1.9l.1.1,5-2.1,2.4,3.8-4.1,3.6v.1a11.423,11.423,0,0,1,.9,2.6v.1l5.4.3.5,4.5-5.2,1.5v.1a12.423,12.423,0,0,1-.3,2.7v.1l4.8,2.6-1.5,4.3-5.4-.9-.1.1a11.352,11.352,0,0,1-1.5,2.3l-.1.1,3.1,4.5-3.2,3.2-4.5-3.1-.1.1c-.7.5-1.5,1-2.3,1.5l-.1.1.9,5.4-4.3,1.5-2.6-4.8h-.1a12.407,12.407,0,0,1-2.7.3h-.1Zm-3.8-1.2,3.3.4,1.5-5.1h.6a10.894,10.894,0,0,0,2.6-.3l.6-.1,2.6,4.7,3.1-1.1-.9-5.3.5-.3c.8-.4,1.5-.9,2.3-1.4l.5-.4,4.4,3.1,2.4-2.4-3.1-4.4.4-.5c.5-.7,1-1.5,1.4-2.2l.3-.5,5.3.9,1.1-3.1-4.6-2.8.1-.6a12.211,12.211,0,0,0,.3-2.6v-.6l5.1-1.5-.4-3.3-5.4-.3-.2-.6a10.647,10.647,0,0,0-.9-2.5l-.2-.6,4-3.6-1.8-2.8-5,2-.4-.5c-.3-.3-.6-.7-.9-1a9.009,9.009,0,0,0-1-.9l-.5-.4,2-5-2.8-1.8-3.6,4-.6-.2c-.8-.3-1.7-.6-2.5-.9l-.6-.2-.3-5.4-3.3-.4-1.5,5.1h-.6a10.9,10.9,0,0,0-2.6.3l-.6.1-2.6-4.7-3.1,1.1.9,5.3-.5.3c-.8.4-1.5.9-2.3,1.4l-.5.4-4.4-3.1-2.4,2.4,3.1,4.4-.4.5c-.5.7-1,1.5-1.4,2.2l-.3.5-5.3-.9-1.1,3.1,4.7,2.6-.1.6a12.2,12.2,0,0,0-.3,2.6v.6l-5.1,1.5.4,3.3,5.4.3.2.6a10.652,10.652,0,0,0,.9,2.5l.2.6-4,3.6,1.8,2.8,5-2,.4.5a12.778,12.778,0,0,0,1.9,1.9l.5.4-2,5,2.8,1.8,3.6-4,.6.2c.8.3,1.7.6,2.5.9l.6.2Zm4.5-8.1a16.795,16.795,0,1,1,11.9-4.9A17.047,17.047,0,0,1,544.191,202.686Zm0-32.989a16.095,16.095,0,1,0,11.4,4.7A16.208,16.208,0,0,0,544.191,169.7Zm0,31.99a15.795,15.795,0,1,1,11.2-4.6A16.253,16.253,0,0,1,544.191,201.686Zm0-30.89a15.391,15.391,0,0,0-10.7,4.4,15.127,15.127,0,1,0,21.393,0A14.967,14.967,0,0,0,544.191,170.8Z" transform="translate(400.439 -158.6)" fill="#64b0ff" opacity="0.04"/>
        <g transform="matrix(1, 0, 0, 1, 0, -282.51)" filter="url(#Path_9680)">
          <path id="Path_9680-2" data-name="Path 9680" d="M398.852,447.052A147.1,147.1,0,0,1,251.8,300h.5c0,80.774,65.779,146.553,146.552,146.553Z" transform="translate(356.54 167.85)" fill="#665eff"/>
        </g>
        <g id="Group_104128" data-name="Group 104128" transform="translate(651.625 37.775)">
          <g transform="matrix(1, 0, 0, 1, -651.63, -320.28)" filter="url(#Path_9676)">
            <path id="Path_9676-2" data-name="Path 9676" d="M502.933,404.419l-.9-.9.3-.3c56.982-56.982,56.982-149.752,0-206.733C446.751,140.9,355.181,139.7,298.2,193.887l-.3.2-.8-.9.3-.2A147.409,147.409,0,0,1,503.133,404.119ZM398.867,153.4a147.719,147.719,0,0,1,62.18,13.6,147.691,147.691,0,0,0-119.761-2A146.685,146.685,0,0,1,398.867,153.4Z" transform="translate(356.52 167.9)" fill="#665eff"/>
          </g>
          <g id="Group_104123" data-name="Group 104123" transform="translate(0 38.8)">
            <g transform="matrix(1, 0, 0, 1, -651.63, -359.08)" filter="url(#Path_9677)">
              <path id="Path_9677-2" data-name="Path 9677" d="M300.1,195l-5,1.2,1.4-5Z" transform="translate(356.52 167.88)" fill="#665eff"/>
            </g>
          </g>
          <g transform="matrix(1, 0, 0, 1, -651.63, -320.28)" filter="url(#Ellipse_814)">
            <ellipse id="Ellipse_814-2" data-name="Ellipse 814" cx="3.599" cy="3.599" rx="3.599" ry="3.599" transform="translate(855.66 568.02)" fill="#665eff"/>
          </g>
        </g>
        <g transform="matrix(1, 0, 0, 1, 0, -282.51)" filter="url(#Ellipse_815)">
          <ellipse id="Ellipse_815-2" data-name="Ellipse 815" cx="3.599" cy="3.599" rx="3.599" ry="3.599" transform="translate(605.04 464.25)" fill="#665eff"/>
        </g>
        <g transform="matrix(1, 0, 0, 1, 0, -282.51)" filter="url(#Path_9681)">
          <path id="Path_9681-2" data-name="Path 9681" d="M398.856,436.612a136.524,136.524,0,1,1,96.569-39.987A135.653,135.653,0,0,1,398.856,436.612Zm0-272.812C323.78,163.8,262.7,224.88,262.7,299.956s61.08,136.156,136.156,136.156,136.156-61.08,136.156-136.156S473.931,163.8,398.856,163.8Z" transform="translate(356.54 167.89)" fill="#665eff" opacity="0.17"/>
        </g>
        <path id="Path_9682" data-name="Path 9682" d="M398.871,426.33A125.849,125.849,0,0,1,309.5,389.342l.3-.3A125.895,125.895,0,1,0,487.842,211l.3-.3a126.259,126.259,0,0,1-89.271,215.63Z" transform="translate(356.52 -114.631)" fill="#3acce1" opacity="0.51"/>
        <g transform="matrix(1, 0, 0, 1, 0, -282.51)" filter="url(#Ellipse_816)">
          <ellipse id="Ellipse_816-2" data-name="Ellipse 816" cx="3.799" cy="3.799" rx="3.799" ry="3.799" transform="translate(840.86 374.88)" fill="#3acce1"/>
        </g>
        <g transform="matrix(1, 0, 0, 1, 0, -282.51)" filter="url(#Path_9683)">
          <path id="Path_9683-2" data-name="Path 9683" d="M398.955,439.41v-6.1c73.476,0,133.257-59.881,133.257-133.357v-.3h6.1v.3A139.425,139.425,0,0,1,398.955,439.41Zm-69.677-18.594a141.194,141.194,0,0,1-50.584-50.084,139.47,139.47,0,0,1-.7-140.355l5.3,3a133.4,133.4,0,0,0,48.984,182.141Zm184.94-187.739a133.591,133.591,0,0,0-182.241-48.484l-3.1-5.3a139.329,139.329,0,0,1,140.454.4,141.163,141.163,0,0,1,50.084,50.284Z" transform="translate(356.54 167.89)" fill="#3acce1"/>
        </g>
        <g transform="matrix(1, 0, 0, 1, 0, -282.51)" filter="url(#Path_9684)">
          <path id="Path_9684-2" data-name="Path 9684" d="M389.2,453.4s.6,0,1.5.1,2.1.1,3.4.1c2.4.1,4.9.1,4.9.1v21.093s-2.8-.1-5.5-.1c-1.4,0-2.8-.1-3.8-.1-1-.1-1.7-.1-1.7-.1Z" transform="translate(356.49 167.8)" fill="#3acce1"/>
        </g>
        <g transform="matrix(1, 0, 0, 1, 0, -282.51)" filter="url(#Path_9685)">
          <path id="Path_9685-2" data-name="Path 9685" d="M367.8,450.6a1.576,1.576,0,0,1,.4.1,6.518,6.518,0,0,1,1.1.2c.9.2,2.1.4,3.3.6s2.4.5,3.3.6,1.5.2,1.5.2l-2.9,20.793s-.7-.1-1.7-.2-2.4-.4-3.8-.6-2.7-.5-3.8-.7a7.388,7.388,0,0,0-1.2-.2,1.749,1.749,0,0,0-.5-.1Z" transform="translate(356.5 167.8)" fill="#3acce1"/>
        </g>
        <g transform="matrix(1, 0, 0, 1, 0, -282.51)" filter="url(#Path_9686)">
          <path id="Path_9686-2" data-name="Path 9686" d="M347.1,444.7l4.6,1.6c.6.2,1.2.4,1.7.6.6.2,1.1.3,1.5.4.9.2,1.5.4,1.5.4l-5.8,20.193s-.7-.2-1.7-.5a15.411,15.411,0,0,1-1.7-.5c-.6-.2-1.3-.4-1.9-.6-2.6-.9-5.3-1.8-5.3-1.8Z" transform="translate(356.51 167.8)" fill="#3acce1"/>
        </g>
        <g transform="matrix(1, 0, 0, 1, 0, -282.51)" filter="url(#Path_9687)">
          <path id="Path_9687-2" data-name="Path 9687" d="M327.3,436s2.2,1.1,4.3,2.2c.5.3,1.1.5,1.6.8a14.719,14.719,0,0,0,1.4.6,11.894,11.894,0,0,0,1.4.6l-8.6,19.194s-.6-.3-1.6-.7c-.5-.2-1-.5-1.6-.7a15.1,15.1,0,0,1-1.8-.9c-2.5-1.3-4.9-2.5-4.9-2.5Z" transform="translate(356.52 167.8)" fill="#3acce1"/>
        </g>
        <g transform="matrix(1, 0, 0, 1, 0, -282.51)" filter="url(#Path_9691)">
          <path id="Path_9691-2" data-name="Path 9691" d="M447.8,468.092l-6-20.693,1.7-.5a22.229,22.229,0,0,0,2.8-.9l5.2-1.8,7.3,20.194-5.8,2-3.3,1.1ZM442.4,447.7l5.8,19.694,1.4-.4c.9-.2,2.1-.6,3.3-1l5.4-1.8-7-19.294-4.8,1.6a22.227,22.227,0,0,1-2.8.9Z" transform="translate(356.48 167.8)" fill="#3acce1"/>
        </g>
        <path id="Path_9692" data-name="Path 9692" d="M423.8,473.193v-.2l-3-21.093h.3s.6-.1,1.5-.2l6.9-1.2c.3-.1.6-.1.8-.2l.7-.2,4.4,21.093-.7.2c-.2.1-.6.1-.9.2l-7.8,1.4a3.082,3.082,0,0,1-.9.1h-.3ZM421.3,452.3l2.9,20.293h.5c.3,0,.6-.1.9-.1l7.8-1.4a6.367,6.367,0,0,0,.9-.2l.2-.1L430.3,450.7h-.2c-.2.1-.5.1-.8.2l-6.9,1.2A5.149,5.149,0,0,1,421.3,452.3Z" transform="translate(356.484 -114.709)" fill="#3acce1"/>
        <g transform="matrix(1, 0, 0, 1, 0, -282.51)" filter="url(#Path_9693)">
          <path id="Path_9693-2" data-name="Path 9693" d="M399.4,474.993l-.1-21.493,5.1-.1h1.1a16.932,16.932,0,0,0,2.3-.1l1.8-.1,1.4,21.493-2,.1a20.9,20.9,0,0,1-2.6.1h-1.2ZM399.8,454l.1,20.593,5.3-.1h1.2a20.1,20.1,0,0,0,2.6-.1l1.5-.1L409.1,453.8l-1.3.1a15.524,15.524,0,0,1-2.3.1h-5.7Z" transform="translate(356.49 167.8)" fill="#3acce1"/>
        </g>
        <g id="Group_104129" data-name="Group 104129" transform="translate(620.335 10.497)">
          <path id="Path_9688" data-name="Path 9688" d="M280.395,202.493,263.8,188.8l4.4-5.1c.7-.8,1.3-1.5,1.9-2.1l1.4-1.4,15.695,14.7-1.2,1.3c-.5.5-1,1.1-1.6,1.8-.2.2-.4.5-.6.7ZM264.5,188.7l15.795,13.1,3-3.5c.2-.2.4-.5.6-.7.6-.7,1.2-1.3,1.6-1.8l.9-.9-15-14.1-1,1.1c-.6.6-1.2,1.3-1.9,2.1Z" transform="translate(-263.8 -125.118)" fill="#3acce1" opacity="0.4"/>
          <path id="Path_9689" data-name="Path 9689" d="M295.2,186.792l-.2-.2L280.6,170.9l.5-.5,3.8-3.3c.4-.3.7-.6,1.1-.9q1.05-.9,1.8-1.5l1.6-1.2,13.5,16.795-1.4,1.1c-.4.4-1,.8-1.5,1.3-.3.3-.7.6-1,.9ZM281.4,171l13.9,15.2.3-.3,3.2-2.8c.3-.3.7-.6,1-.9.6-.5,1.1-1,1.5-1.3l1-.8L289.4,164.1l-1.2.9c-.5.4-1.1,1-1.8,1.5a9.96,9.96,0,0,0-1.1,1Z" transform="translate(-263.805 -125.112)" fill="#3acce1" opacity="0.4"/>
          <path id="Path_9690" data-name="Path 9690" d="M312.1,173.492l-.1-.2L300,155.7l.7-.5c.2-.2.6-.4,1-.7l6.4-4.1c.9-.5,1.5-.9,1.5-.9l.2-.1,11,18.494-.2.1s-.5.3-1.3.8l-5.6,3.6a2.761,2.761,0,0,0-.8.6ZM300.6,155.8l11.6,16.995.2-.1a3.488,3.488,0,0,1,.9-.6l5.6-3.6a7.17,7.17,0,0,0,1.1-.7L309.5,150.1c-.2.1-.7.4-1.3.8l-6.4,4.1c-.4.2-.7.5-1,.6Z" transform="translate(-263.812 -125.108)" fill="#3acce1" opacity="0.4"/>
          <path id="Path_9694" data-name="Path 9694" d="M330.6,162.492l-.1-.2L321,143.2l1.8-.9c.6-.3,1.4-.6,2.2-1,.4-.2.9-.4,1.3-.6l3.5-1.6c.9-.4,1.6-.7,1.6-.7l.2-.1,8.3,19.894-.2.1a11.883,11.883,0,0,0-1.4.6l-3.1,1.4-1.2.6c-.7.3-1.3.6-1.8.8ZM321.7,143.5l9.1,18.394,1.1-.6c.5-.3,1.2-.5,1.8-.8l1.2-.6,3.1-1.4c.5-.2.9-.4,1.2-.5L331.3,139a11.424,11.424,0,0,0-1.4.6l-3.5,1.6c-.4.2-.9.4-1.3.6-.8.4-1.6.7-2.2,1Z" transform="translate(-263.819 -125.104)" fill="#3acce1" opacity="0.4"/>
          <path id="Path_9695" data-name="Path 9695" d="M350.5,154.292l-.1-.2L343.7,133.9l1.9-.6c.9-.3,2.1-.7,3.4-1l5.9-1.7,5.4,20.793-5.3,1.5c-1.1.3-2.1.6-2.9.9ZM344.4,134.2l6.5,19.494,1.2-.4c.8-.3,1.8-.6,2.9-.9l4.8-1.4L354.6,131.1l-5.4,1.5c-1.3.4-2.4.7-3.3,1Z" transform="translate(-263.826 -125.102)" fill="#3acce1" opacity="0.4"/>
          <path id="Path_9696" data-name="Path 9696" d="M371.4,148.993v-.2L367.6,127.8l4.7-.8,6.8-.9,2.5,21.393-6.8.9ZM368.1,128.2l3.6,20.193,3.7-.7,5.5-.7L378.6,126.6l-6.3.8Z" transform="translate(-263.834 -125.1)" fill="#3acce1" opacity="0.4"/>
          <path id="Path_9697" data-name="Path 9697" d="M392.7,146.693l-.8-21.493,5.8-.1h5.8l-.5,21.493h-2.7a19.192,19.192,0,0,0-2.4,0Zm-.3-21.093.8,20.493,4.6-.1h4.6l.5-20.593h-2.5a26.074,26.074,0,0,0-2.8,0Z" transform="translate(-263.842 -125.1)" fill="#3acce1" opacity="0.4"/>
          <path id="Path_9698" data-name="Path 9698" d="M424.4,148.693l-1.7-.3c-.6-.1-1.3-.2-2-.3-.4-.1-.9-.1-1.3-.2l-4.4-.6h-.7v-.3l2.1-21.193h.2a1.75,1.75,0,0,1,.5.1l5,.6c.5.1,1,.1,1.4.2q1.35.15,2.4.3l1.9.3Zm-9.6-1.9h.2l4.4.6c.4.1.9.1,1.3.2.7.1,1.4.2,2,.3l1.3.2,3.4-20.293-1.5-.3c-.7-.1-1.5-.2-2.3-.3-.5-.1-1-.1-1.4-.2l-5-.6H417Z" transform="translate(-263.849 -125.1)" fill="#3acce1" opacity="0.4"/>
        </g>
        <g transform="matrix(1, 0, 0, 1, 0, -282.51)" filter="url(#Path_9699)">
          <path id="Path_9699-2" data-name="Path 9699" d="M245.193,300.9s0,.9.1,2.6c0,.8,0,1.8.1,3a10.859,10.859,0,0,0,.1,1.8,15.023,15.023,0,0,0,.2,2q.15,2.1.3,4.5a24.145,24.145,0,0,0,.3,2.5c.1.8.2,1.7.3,2.6.4,3.5,1.1,7.2,1.7,10.8l1.2,5.4.6,2.7c.2.9.5,1.7.7,2.6.5,1.7.9,3.3,1.4,4.9.5,1.5,1,3,1.5,4.3a61.956,61.956,0,0,0,2.4,6.3c.6,1.5.9,2.4.9,2.4l-19.394,8.1s-.4-1-1.1-2.7-1.7-4.2-2.7-7.2c-.5-1.5-1.1-3.1-1.6-4.9-.5-1.7-1-3.6-1.6-5.5-.3-1-.5-1.9-.8-2.9s-.5-2-.7-3c-.5-2-1-4.1-1.4-6.2-.7-4.2-1.6-8.4-2-12.3a25.343,25.343,0,0,0-.4-2.9c-.1-1-.2-1.9-.3-2.8-.1-1.8-.3-3.5-.4-5.1-.1-.8-.1-1.6-.2-2.3s0-1.4-.1-2.1c0-1.3-.1-2.4-.1-3.3,0-1.9-.1-2.9-.1-2.9Z" transform="translate(356.55 167.85)" fill="#64b0ff" opacity="0.23"/>
        </g>
        <path id="Path_9700" data-name="Path 9700" d="M261.188,231.8l-.3.6c-.2.4-.5,1-.8,1.7-.7,1.5-1.6,3.6-2.8,6.2-.5,1.3-1.1,2.7-1.7,4.2-.3.7-.6,1.5-.9,2.3a22.508,22.508,0,0,0-.8,2.4c-.6,1.7-1.1,3.4-1.7,5.1l-1.5,5.4a52.893,52.893,0,0,0-1.3,5.4l-.6,2.7c-.1.4-.2.9-.3,1.3a5.855,5.855,0,0,0-.2,1.3c-.3,1.7-.6,3.4-.9,5-.1.4-.1.8-.2,1.2,0,.4-.1.8-.1,1.1-.1.7-.2,1.5-.3,2.2-.2,1.4-.3,2.7-.5,3.8-.1.6-.1,1.1-.2,1.6,0,.5-.1.9-.1,1.4-.1,1.6-.2,2.6-.2,2.6l-20.993-1.5s.1-1.1.2-2.9c0-.5.1-1,.1-1.5a11.014,11.014,0,0,1,.2-1.8c.2-1.3.3-2.7.5-4.3.1-.8.2-1.6.3-2.5.1-.4.1-.9.2-1.3a5.849,5.849,0,0,0,.2-1.3c.3-1.8.7-3.7,1-5.7l.3-1.5.3-1.5c.2-1,.5-2,.7-3,.5-2,.9-4.1,1.5-6.2.6-2,1.2-4.1,1.7-6.1.7-2,1.3-3.9,2-5.8.3-.9.6-1.9,1-2.8s.7-1.8,1-2.6c.7-1.7,1.3-3.3,1.9-4.8,1.3-2.9,2.4-5.3,3.2-7,.4-.9.7-1.5.9-1.9a5.942,5.942,0,0,0,.3-.7Z" transform="translate(356.548 -114.635)" fill="#64b0ff" opacity="0.1"/>
        <g transform="matrix(1, 0, 0, 1, 0, -282.51)" filter="url(#Path_9701)">
          <path id="Path_9701-2" data-name="Path 9701" d="M488.983,175.388s-.8-.5-2.1-1.5c-.7-.5-1.5-1.1-2.4-1.7-1-.6-2-1.3-3.2-2.1-2.3-1.6-5.2-3.1-8.2-4.9-.7-.5-1.6-.8-2.4-1.3l-2.4-1.2c-.8-.4-1.6-.8-2.5-1.3-.8-.4-1.7-.8-2.5-1.2-.9-.4-1.7-.8-2.6-1.2s-1.7-.8-2.5-1.1c-1.7-.7-3.4-1.3-5-2-.4-.2-.8-.3-1.2-.5-.4-.1-.8-.3-1.2-.4-.8-.3-1.6-.5-2.3-.8-.8-.3-1.5-.5-2.2-.8-.7-.2-1.4-.5-2.1-.7-2.7-.8-4.9-1.4-6.5-1.9-1.6-.4-2.5-.6-2.5-.6l2.6-10.9s1,.2,2.7.6c1.7.5,4.1,1.2,7,2,.7.2,1.5.5,2.2.7.8.3,1.6.5,2.4.8s1.7.6,2.5.9c.4.1.9.3,1.3.4.4.2.9.3,1.3.5,1.7.7,3.6,1.4,5.4,2.1.9.3,1.8.8,2.7,1.2l2.7,1.2,2.7,1.2c.9.5,1.8.9,2.7,1.4s1.8.9,2.6,1.3c.9.4,1.7.9,2.5,1.3,3.3,1.9,6.3,3.6,8.8,5.3,1.3.8,2.4,1.6,3.5,2.2,1,.7,1.9,1.3,2.6,1.8,1.4,1,2.2,1.6,2.2,1.6Z" transform="translate(356.48 167.9)" fill="#64b0ff" opacity="0.23"/>
        </g>
        <g transform="matrix(1, 0, 0, 1, 0, -282.51)" filter="url(#Path_9702)">
          <path id="Path_9702-2" data-name="Path 9702" d="M510,406.138a18.311,18.311,0,0,1,1.6-1.6c1.1-1,2.4-2.7,4.3-4.8.5-.5.9-1.1,1.4-1.7s1-1.2,1.5-1.9c1-1.3,2.1-2.7,3.3-4.3,1.1-1.6,2.3-3.2,3.6-5,.6-.9,1.2-1.8,1.8-2.8s1.2-1.9,1.9-2.9a154.67,154.67,0,0,0,14.2-29.091,161.914,161.914,0,0,0,8.3-36.188,157.815,157.815,0,0,0-.7-37.088,148.483,148.483,0,0,0-7.8-31.39,189,189,0,0,0-9.4-20.893c-1.4-2.4-2.5-4.3-3.2-5.6-.4-.7-.7-1.1-.9-1.4a5.145,5.145,0,0,1-.3-.5l9.5-5.9a5.2,5.2,0,0,0,.3.5l1,1.5c.8,1.4,2,3.4,3.4,6a175.426,175.426,0,0,1,10.1,22.393,162.243,162.243,0,0,1,8.3,33.789,170.01,170.01,0,0,1,.7,39.787,164.914,164.914,0,0,1-24.092,70.077c-.7,1.1-1.4,2.1-2,3.2-.7,1-1.3,2-2,3-1.3,1.9-2.6,3.7-3.8,5.4-1.3,1.6-2.5,3.2-3.6,4.6-.6.7-1.1,1.4-1.6,2s-1.1,1.2-1.5,1.8c-2,2.2-3.4,4-4.6,5.2-1.1,1.2-1.7,1.8-1.7,1.8Z" transform="translate(356.46 167.88)" fill="#64b0ff" opacity="0.23"/>
        </g>
        <g transform="matrix(1, 0, 0, 1, 0, -282.51)" filter="url(#Path_9703)">
          <path id="Path_9703-2" data-name="Path 9703" d="M507.6,191.194l-4.6-4.4c-.6-.6-1.2-1.1-1.7-1.6-.6-.5-1.1-.9-1.5-1.3-.9-.8-1.5-1.3-1.5-1.3l7.3-8.6s.6.6,1.6,1.4c.5.4,1,.9,1.6,1.4s1.2,1.1,1.9,1.7c2.5,2.3,4.9,4.7,4.9,4.7Z" transform="translate(356.46 167.89)" fill="#64b0ff" opacity="0.23"/>
        </g>
        <g transform="matrix(1, 0, 0, 1, 0, -282.51)" filter="url(#Path_9704)">
          <path id="Path_9704-2" data-name="Path 9704" d="M495.6,419.5s.4-.3,1-.8,1.3-1.1,2-1.8l3-2.6,7.5,8.4s-1.6,1.4-3.2,2.7c-.8.7-1.6,1.4-2.2,1.9s-1,.8-1,.8Z" transform="translate(356.46 167.81)" fill="#3acce1"/>
        </g>
        <g transform="matrix(1, 0, 0, 1, 0, -282.51)" filter="url(#Path_9705)">
          <path id="Path_9705-2" data-name="Path 9705" d="M479.6,430.9s1.6-1.1,3.3-2.1a22.932,22.932,0,0,0,2.3-1.5c.6-.4,1-.7,1-.7l6.4,9.3s-.4.3-1.1.8c-.6.5-1.5,1-2.4,1.6-1.8,1.1-3.5,2.3-3.5,2.3Z" transform="translate(356.47 167.81)" fill="#3acce1"/>
        </g>
        <g transform="matrix(1, 0, 0, 1, 0, -282.51)" filter="url(#Path_9706)">
          <path id="Path_9706-2" data-name="Path 9706" d="M462.3,440.1s.4-.2,1.1-.5,1.6-.7,2.4-1.1c1.7-.9,3.5-1.8,3.5-1.8l5.2,10s-1.9,1-3.7,1.9a27.84,27.84,0,0,1-2.6,1.2c-.7.3-1.2.5-1.2.5Z" transform="translate(356.47 167.8)" fill="#3acce1"/>
        </g>
        <g transform="matrix(1, 0, 0, 1, 0, -282.51)" filter="url(#Ellipse_817)">
          <ellipse id="Ellipse_817-2" data-name="Ellipse 817" cx="2.399" cy="2.399" rx="2.399" ry="2.399" transform="translate(877.65 445.76)" fill="#3acce1"/>
        </g>
        <path id="Path_9707" data-name="Path 9707" d="M523.6,288.595a8.3,8.3,0,1,1,8.3-8.3A8.406,8.406,0,0,1,523.6,288.595Zm0-15.995a7.7,7.7,0,1,0,7.7,7.7A7.7,7.7,0,0,0,523.6,272.6Z" transform="translate(356.454 -114.651)" fill="#33aab9"/>
        <g transform="matrix(1, 0, 0, 1, 0, -282.51)" filter="url(#Path_9708)">
          <path id="Path_9708-2" data-name="Path 9708" d="M398.862,416.924A116.962,116.962,0,1,1,515.824,299.962,117.113,117.113,0,0,1,398.862,416.924Zm0-233.225A116.262,116.262,0,1,0,515.124,299.962,116.366,116.366,0,0,0,398.862,183.7Z" transform="translate(356.53 167.89)" fill="#3acce1" opacity="0.17"/>
        </g>
        <path id="Path_9709" data-name="Path 9709" d="M596.918,442.881h1L462.961,377.6H34.1v.339H462.661Z" transform="translate(706.496 -104.688)" fill="#3acce1" opacity="0.21"/>
        <path id="Path_9710" data-name="Path 9710" d="M759.46,299.8l-435.61-6.1L303.1,315.093H-110.4" transform="translate(716.54 -69.173)" fill="none" stroke="#3acce1" stroke-miterlimit="10" stroke-width="1" opacity="0.14"/>
        <path id="Path_9711" data-name="Path 9711" d="M597.87,314.7H468.912l-27.991,27.991H77.939L59.945,360.585H-110.4" transform="translate(716.54 -233.52)" fill="none" stroke="#3acce1" stroke-miterlimit="10" stroke-width="1" opacity="0.14"/>
        <g id="Group_104130" data-name="Group 104130" transform="translate(1052.695 199.935)" opacity="0.07">
          <rect id="Rectangle_20034-2" data-name="Rectangle 20034" width="4.299" height="14.095" transform="translate(57.381 0)" fill="#3acce1"/>
          <rect id="Rectangle_20035-2" data-name="Rectangle 20035" width="4.299" height="14.095" transform="translate(50.983 0)" fill="#3acce1"/>
          <rect id="Rectangle_20036-2" data-name="Rectangle 20036" width="4.299" height="14.095" transform="translate(44.586 0)" fill="#3acce1"/>
          <rect id="Rectangle_20037-2" data-name="Rectangle 20037" width="4.299" height="14.095" transform="translate(38.288 0)" fill="#3acce1"/>
          <rect id="Rectangle_20038-2" data-name="Rectangle 20038" width="4.299" height="14.095" transform="translate(31.89 0)" fill="#3acce1"/>
          <rect id="Rectangle_20039-2" data-name="Rectangle 20039" width="4.299" height="14.095" transform="translate(25.492 0)" fill="#3acce1"/>
          <rect id="Rectangle_20040-2" data-name="Rectangle 20040" width="4.299" height="14.095" transform="translate(19.094 0)" fill="#3acce1"/>
          <rect id="Rectangle_20041-2" data-name="Rectangle 20041" width="4.299" height="14.095" transform="translate(12.696 0)" fill="#3acce1"/>
          <rect id="Rectangle_20042-2" data-name="Rectangle 20042" width="4.299" height="14.095" transform="translate(6.398 0)" fill="#3acce1"/>
          <rect id="Rectangle_20043-2" data-name="Rectangle 20043" width="4.299" height="14.095" transform="translate(0 0)" fill="#3acce1"/>
        </g>
        <g transform="matrix(1, 0, 0, 1, 0, -282.51)" filter="url(#Ellipse_818)">
          <ellipse id="Ellipse_818-2" data-name="Ellipse 818" cx="2.199" cy="2.199" rx="2.199" ry="2.199" transform="translate(1206.35 504.84)" fill="#665eff"/>
        </g>
        <g transform="matrix(1, 0, 0, 1, 0, -282.51)" filter="url(#Ellipse_820)">
          <ellipse id="Ellipse_820-2" data-name="Ellipse 820" cx="4.714" cy="4.714" rx="4.714" ry="4.714" transform="translate(999.79 386.59)" fill="#665eff" opacity="0.33"/>
        </g>
        <g transform="matrix(1, 0, 0, 1, 0, -282.51)" filter="url(#Ellipse_819)">
          <ellipse id="Ellipse_819-2" data-name="Ellipse 819" cx="8.397" cy="8.397" rx="8.397" ry="8.397" transform="translate(1200.15 498.64)" fill="none" stroke="rgba(102,94,255,0.23)" stroke-miterlimit="10" stroke-width="1"/>
        </g>
        <g transform="matrix(1, 0, 0, 1, 0, -282.51)" filter="url(#Ellipse_821)">
          <ellipse id="Ellipse_821-2" data-name="Ellipse 821" cx="17.999" cy="17.999" rx="17.999" ry="17.999" transform="translate(986.51 373.3)" fill="none" stroke="rgba(102,94,255,0.23)" stroke-miterlimit="10" stroke-width="1"/>
        </g>
      </g>
    </g>
    <g id="logo-js" transform="translate(665.056 382.054)">
      <g transform="matrix(1, 0, 0, 1, -698.06, -382.05)" filter="url(#Subtraction_77)">
        <path id="Subtraction_77-2" data-name="Subtraction 77" d="M55.965,126.791a3.634,3.634,0,0,1-1.115-.176c-12.988-3.67-26.736-7.541-43.267-12.183a1.582,1.582,0,0,1-1.38-1.681c-1.311-15.177-2.66-30.52-4.007-45.6q-.463-5.221-.923-10.441c-1.083-12.275-2.2-24.97-3.385-37.455-.161-1.718-.294-3.459-.423-5.143V14.1A121.23,121.23,0,0,0,.052,1.484,1.355,1.355,0,0,1,.177.362c.23-.276.663-.3,1.2-.3H1.5l.127,0C14.814.045,27.9.032,41.65.032c4.69,0,9.539,0,14.315.005q6.42,0,12.84,0,3.211,0,6.421.005h6.42C92.551.045,101.883.032,110.175,0c.718,0,1.181.055,1.43.326.223.242.282.649.214,1.453-1.022,11-2,22.194-2.945,33.018l-.036.415c-.476,5.437-.967,11.067-1.459,16.6-1.483,16.633-3.063,34.334-4.631,51.81-.1,1.116-.208,2.254-.316,3.357l0,.039c-.185,1.886-.376,3.835-.5,5.771-.061,1.056-.542,1.392-1.409,1.642-15.7,4.384-29.9,8.366-43.435,12.183A3.569,3.569,0,0,1,55.965,126.791ZM81.956,69.273a.8.8,0,0,1,.628.218,1.547,1.547,0,0,1,.192,1.185c-.218,2.614-.426,5.416-.462,8.177-.03,1.258-.611,1.65-1.674,1.936-3.268.846-6.532,1.713-9.293,2.448-3.027.8-6.248,1.657-9.429,2.482-1.072.271-1.416.7-1.416,1.77.044,2.572.029,5.2.015,7.741v.045c-.007,1.135-.014,2.545-.014,3.885l.023.032.007.011c.079.105.169.223.293.223a.078.078,0,0,0,.037-.008c1.158-.357,7.676-2.178,13.98-3.938l.793-.218c7.249-2.02,15-4.182,15.195-4.287.622-.292.618-.827.613-1.342v-.016c0-.108,0-.218,0-.323.009-.134.06-.783.145-1.857,1.52-19.191,2.224-29.824,2.094-31.61a.975.975,0,0,0-.173-.717.588.588,0,0,0-.448-.144,3.618,3.618,0,0,0-.5.05l-.163.018c-3.155.4-6.349.8-9.437,1.179-2.937.36-6.395.788-9.778,1.224a5.1,5.1,0,0,1-.623.047,1.143,1.143,0,0,1-.867-.276,1.82,1.82,0,0,1-.322-1.324c.1-5.445.1-10.972,0-16.423,0-1.4.38-1.81,1.7-1.81.047,0,.1,0,.145,0,4.242.06,8.544.06,12.7.06h1.042c.347,0,.7-.005,1.043-.005h2.091c1.346,0,2.453.005,3.487.011.849,0,1.514-.071,1.71-1.014.219-.163.879-10.785.954-12l-.035,0-.66-.039-.1-.008c-.387-.026-.786-.047-1.176-.047H62.835c-.458,0-.963-.039-1.369-.066l-.3-.024-.27-.016-.032,0h-.031a.287.287,0,0,0-.181.055.27.27,0,0,0-.117.221c0,.368.008.738.014,1.059s.014.7.014,1.077c.008,16.044,0,30.6-.029,44.513,0,1.009.141,1.484.943,1.484a4.075,4.075,0,0,0,.694-.071c3.4-.651,6.878-1.274,10.238-1.878l.355-.066.281-.047c2.687-.483,5.464-.982,8.186-1.489A3.589,3.589,0,0,1,81.956,69.273ZM20.221,77.424c-.043,0-.079.005-.11.008l-.022,0a1.7,1.7,0,0,0-.785,1.547c0,1.022-.016,2.062-.032,3.065v.042c-.04,2.519-.081,5.122.128,7.7a1.9,1.9,0,0,0,.33.523c.26.074,30.592,8.479,31.216,8.611.3-.108.521-47.752.521-72.509,0-.139.008-.289.015-.42a2.539,2.539,0,0,0-.176-1.355l-10.188-.029a2.164,2.164,0,0,0-.183,1.319c.011.15.022.307.022.457,0,4.324.018,9.9.036,15.28v.045c.06,18.288.135,41.046-.367,41.379C40.552,83.037,22.454,77.424,20.221,77.424Z" transform="translate(698.06 409.25)" fill="#ffb900"/>
      </g>
      <path id="Path_1262" data-name="Path 1262" d="M645.564,244.166V350.709H645.4V244.1A.25.25,0,0,0,645.564,244.166Z" transform="translate(-589.762 -206.319)" fill="#ffb900"/>
      <path id="Path_1278" data-name="Path 1278" d="M658.565,288.166v47.407H658.4V288.1a.25.25,0,0,0,.164.066Z" transform="translate(-598.491 -235.863)" fill="#ffb900"/>
      <path id="Path_1282" data-name="Path 1282" d="M658.1,487.655V475.4h.165v12.32A.251.251,0,0,0,658.1,487.655Z" transform="translate(-598.29 -361.629)" fill="#ffb900"/>
      <path id="Path_1283" data-name="Path 1283" d="M9.855-48.883a2.853,2.853,0,0,0,2.14-.833,2.852,2.852,0,0,0,.833-2.14V-72.8H5.379v17.938H1.04v5.979Zm7.04-11.856,6.492,4.3v1.573H14.878v5.979H27.9a2.853,2.853,0,0,0,2.14-.833,2.852,2.852,0,0,0,.833-2.14v-5.433c0-1.913-.376-2.973-2.016-4.066L22.36-65.693v-1.095h7.347l1.162-3.075V-72.8H17.885a2.861,2.861,0,0,0-3.007,2.973V-64.8A4.113,4.113,0,0,0,16.895-60.739Z" transform="translate(43.653 72.8)" fill="#ffb900"/>
    </g>
  </g>
</svg>
