<svg height="839" viewBox="0 0 1023 839" width="1023" xmlns="http://www.w3.org/2000/svg" xmlns:xlink="http://www.w3.org/1999/xlink"><radialGradient id="a" cx=".5" cy=".5" gradientTransform="matrix(-1 0 0 1 1 0)" gradientUnits="objectBoundingBox" r=".5"><stop offset="0" stop-color="#3acce1"/><stop offset="1" stop-color="#3acce1" stop-opacity="0"/></radialGradient><filter id="b" filterUnits="userSpaceOnUse" height="130" width="130" x="441" y="315"><feOffset dy="1"/><feGaussianBlur result="blur" stdDeviation="15"/><feFlood flood-color="#3acce1"/><feComposite in2="blur" operator="in"/><feComposite in="SourceGraphic"/></filter><filter id="c" filterUnits="userSpaceOnUse" height="119" width="118" x="446" y="320"><feOffset dy="1"/><feGaussianBlur result="blur-2" stdDeviation="15"/><feFlood flood-color="#3acce1"/><feComposite in2="blur-2" operator="in"/><feComposite in="SourceGraphic"/></filter><filter id="d" filterUnits="userSpaceOnUse" height="111" width="110" x="450" y="324"><feOffset dy="1"/><feGaussianBlur result="blur-3" stdDeviation="15"/><feFlood flood-color="#3acce1"/><feComposite in2="blur-3" operator="in"/><feComposite in="SourceGraphic"/></filter><filter id="e" filterUnits="userSpaceOnUse" height="155" width="155" x="242" y="75"><feOffset dy="1"/><feGaussianBlur result="blur-4" stdDeviation="15"/><feFlood flood-color="#3acce1"/><feComposite in2="blur-4" operator="in"/><feComposite in="SourceGraphic"/></filter><filter id="f" filterUnits="userSpaceOnUse" height="140" width="141" x="249" y="83"><feOffset dy="1"/><feGaussianBlur result="blur-5" stdDeviation="15"/><feFlood flood-color="#3acce1"/><feComposite in2="blur-5" operator="in"/><feComposite in="SourceGraphic"/></filter><filter id="g" filterUnits="userSpaceOnUse" height="124" width="124" x="256" y="89"><feOffset dy="1"/><feGaussianBlur result="blur-6" stdDeviation="15"/><feFlood flood-color="#3acce1"/><feComposite in2="blur-6" operator="in"/><feComposite in="SourceGraphic"/></filter><filter id="h" filterUnits="userSpaceOnUse" height="121" width="119" x="154" y="216"><feOffset dy="1"/><feGaussianBlur result="blur-7" stdDeviation="15"/><feFlood flood-color="#3acce1"/><feComposite in2="blur-7" operator="in"/><feComposite in="SourceGraphic"/></filter><filter id="i" filterUnits="userSpaceOnUse" height="111" width="112" x="157" y="221"><feOffset dy="1"/><feGaussianBlur result="blur-8" stdDeviation="15"/><feFlood flood-color="#3acce1"/><feComposite in2="blur-8" operator="in"/><feComposite in="SourceGraphic"/></filter><filter id="j" filterUnits="userSpaceOnUse" height="107" width="105" x="160" y="223"><feOffset dy="1"/><feGaussianBlur result="blur-9" stdDeviation="15"/><feFlood flood-color="#3acce1"/><feComposite in2="blur-9" operator="in"/><feComposite in="SourceGraphic"/></filter><filter id="k" filterUnits="userSpaceOnUse" height="120" width="120" x="307" y="140"><feOffset dy="1"/><feGaussianBlur result="blur-10" stdDeviation="15"/><feFlood flood-color="#3acce1"/><feComposite in2="blur-10" operator="in"/><feComposite in="SourceGraphic"/></filter><filter id="l" filterUnits="userSpaceOnUse" height="111" width="110" x="312" y="145"><feOffset dy="1"/><feGaussianBlur result="blur-11" stdDeviation="15"/><feFlood flood-color="#3acce1"/><feComposite in2="blur-11" operator="in"/><feComposite in="SourceGraphic"/></filter><filter id="m" filterUnits="userSpaceOnUse" height="106" width="106" x="313" y="147"><feOffset dy="1"/><feGaussianBlur result="blur-12" stdDeviation="15"/><feFlood flood-color="#3acce1"/><feComposite in2="blur-12" operator="in"/><feComposite in="SourceGraphic"/></filter><filter id="n" filterUnits="userSpaceOnUse" height="120" width="120" x="470" y="93"><feOffset dy="1"/><feGaussianBlur result="blur-13" stdDeviation="15"/><feFlood flood-color="#3acce1"/><feComposite in2="blur-13" operator="in"/><feComposite in="SourceGraphic"/></filter><filter id="o" filterUnits="userSpaceOnUse" height="112" width="112" x="474" y="96"><feOffset dy="1"/><feGaussianBlur result="blur-14" stdDeviation="15"/><feFlood flood-color="#3acce1"/><feComposite in2="blur-14" operator="in"/><feComposite in="SourceGraphic"/></filter><filter id="p" filterUnits="userSpaceOnUse" height="106" width="107" x="477" y="99"><feOffset dy="1"/><feGaussianBlur result="blur-15" stdDeviation="15"/><feFlood flood-color="#3acce1"/><feComposite in2="blur-15" operator="in"/><feComposite in="SourceGraphic"/></filter><filter id="q" filterUnits="userSpaceOnUse" height="120" width="121" x="509" y="0"><feOffset dy="1"/><feGaussianBlur result="blur-16" stdDeviation="15"/><feFlood flood-color="#3acce1"/><feComposite in2="blur-16" operator="in"/><feComposite in="SourceGraphic"/></filter><filter id="r" filterUnits="userSpaceOnUse" height="110" width="112" x="513" y="5"><feOffset dy="1"/><feGaussianBlur result="blur-17" stdDeviation="15"/><feFlood flood-color="#3acce1"/><feComposite in2="blur-17" operator="in"/><feComposite in="SourceGraphic"/></filter><filter id="s" filterUnits="userSpaceOnUse" height="106" width="105" x="517" y="6"><feOffset dy="1"/><feGaussianBlur result="blur-18" stdDeviation="15"/><feFlood flood-color="#3acce1"/><feComposite in2="blur-18" operator="in"/><feComposite in="SourceGraphic"/></filter><filter id="t" filterUnits="userSpaceOnUse" height="120" width="120" x="353" y="233"><feOffset dy="1"/><feGaussianBlur result="blur-19" stdDeviation="15"/><feFlood flood-color="#3acce1"/><feComposite in2="blur-19" operator="in"/><feComposite in="SourceGraphic"/></filter><filter id="u" filterUnits="userSpaceOnUse" height="110" width="112" x="357" y="238"><feOffset dy="1"/><feGaussianBlur result="blur-20" stdDeviation="15"/><feFlood flood-color="#3acce1"/><feComposite in2="blur-20" operator="in"/><feComposite in="SourceGraphic"/></filter><filter id="v" filterUnits="userSpaceOnUse" height="104" width="107" x="360" y="240"><feOffset dy="1"/><feGaussianBlur result="blur-21" stdDeviation="15"/><feFlood flood-color="#3acce1"/><feComposite in2="blur-21" operator="in"/><feComposite in="SourceGraphic"/></filter><filter id="w" filterUnits="userSpaceOnUse" height="120" width="120" x="378" y="327"><feOffset dy="1"/><feGaussianBlur result="blur-22" stdDeviation="15"/><feFlood flood-color="#3acce1"/><feComposite in2="blur-22" operator="in"/><feComposite in="SourceGraphic"/></filter><filter id="x" filterUnits="userSpaceOnUse" height="110" width="110" x="383" y="332"><feOffset dy="1"/><feGaussianBlur result="blur-23" stdDeviation="15"/><feFlood flood-color="#3acce1"/><feComposite in2="blur-23" operator="in"/><feComposite in="SourceGraphic"/></filter><filter id="y" filterUnits="userSpaceOnUse" height="106" width="106" x="385" y="333"><feOffset dy="1"/><feGaussianBlur result="blur-24" stdDeviation="15"/><feFlood flood-color="#3acce1"/><feComposite in2="blur-24" operator="in"/><feComposite in="SourceGraphic"/></filter><filter id="z" filterUnits="userSpaceOnUse" height="120" width="120" x="338" y="88"><feOffset dy="1"/><feGaussianBlur result="blur-25" stdDeviation="15"/><feFlood flood-color="#3acce1"/><feComposite in2="blur-25" operator="in"/><feComposite in="SourceGraphic"/></filter><filter id="A" filterUnits="userSpaceOnUse" height="110" width="113" x="342" y="93"><feOffset dy="1"/><feGaussianBlur result="blur-26" stdDeviation="15"/><feFlood flood-color="#3acce1"/><feComposite in2="blur-26" operator="in"/><feComposite in="SourceGraphic"/></filter><filter id="B" filterUnits="userSpaceOnUse" height="106" width="106" x="345" y="95"><feOffset dy="1"/><feGaussianBlur result="blur-27" stdDeviation="15"/><feFlood flood-color="#3acce1"/><feComposite in2="blur-27" operator="in"/><feComposite in="SourceGraphic"/></filter><filter id="C" filterUnits="userSpaceOnUse" height="151" width="149" x="631" y="7"><feOffset dy="1"/><feGaussianBlur result="blur-28" stdDeviation="15"/><feFlood flood-color="#3acce1"/><feComposite in2="blur-28" operator="in"/><feComposite in="SourceGraphic"/></filter><filter id="D" filterUnits="userSpaceOnUse" height="133" width="133" x="639" y="16"><feOffset dy="1"/><feGaussianBlur result="blur-29" stdDeviation="15"/><feFlood flood-color="#3acce1"/><feComposite in2="blur-29" operator="in"/><feComposite in="SourceGraphic"/></filter><filter id="E" filterUnits="userSpaceOnUse" height="121" width="121" x="645" y="21"><feOffset dy="1"/><feGaussianBlur result="blur-30" stdDeviation="15"/><feFlood flood-color="#3acce1"/><feComposite in2="blur-30" operator="in"/><feComposite in="SourceGraphic"/></filter><filter id="F" filterUnits="userSpaceOnUse" height="149" width="149" x="440" y="305"><feOffset dy="1"/><feGaussianBlur result="blur-31" stdDeviation="15"/><feFlood flood-color="#3acce1"/><feComposite in2="blur-31" operator="in"/><feComposite in="SourceGraphic"/></filter><filter id="G" filterUnits="userSpaceOnUse" height="133" width="133" x="447" y="314"><feOffset dy="1"/><feGaussianBlur result="blur-32" stdDeviation="15"/><feFlood flood-color="#3acce1"/><feComposite in2="blur-32" operator="in"/><feComposite in="SourceGraphic"/></filter><filter id="H" filterUnits="userSpaceOnUse" height="122" width="120" x="453" y="318"><feOffset dy="1"/><feGaussianBlur result="blur-33" stdDeviation="15"/><feFlood flood-color="#3acce1"/><feComposite in2="blur-33" operator="in"/><feComposite in="SourceGraphic"/></filter><linearGradient id="I" gradientUnits="objectBoundingBox" x1=".068" x2=".942" y1=".735" y2=".182"><stop offset="0" stop-color="#665eff"/><stop offset="1" stop-color="#3acce1"/></linearGradient><filter id="J" filterUnits="userSpaceOnUse" height="238" width="275" x="559" y="142"><feOffset/><feGaussianBlur result="blur-34" stdDeviation="3"/><feFlood flood-color="#3acce1"/><feComposite in2="blur-34" operator="in"/><feComposite in="SourceGraphic"/></filter><linearGradient id="K" gradientUnits="objectBoundingBox" x1=".091" x2="2.267" y1=".467" y2=".373"><stop offset="0" stop-color="#665eff" stop-opacity="0"/><stop offset="1" stop-color="#3acce1"/></linearGradient><filter id="L" filterUnits="userSpaceOnUse" height="142" width="164" x="617" y="185"><feOffset/><feGaussianBlur result="blur-35" stdDeviation="3"/><feFlood flood-color="#3acce1"/><feComposite in2="blur-35" operator="in"/><feComposite in="SourceGraphic"/></filter><filter id="M" filterUnits="userSpaceOnUse" height="142" width="164" x="463" y="508"><feOffset/><feGaussianBlur result="blur-36" stdDeviation="3"/><feFlood flood-color="#3acce1"/><feComposite in2="blur-36" operator="in"/><feComposite in="SourceGraphic"/></filter><filter id="N" filterUnits="userSpaceOnUse" height="201" width="233" x="774" y="487"><feOffset/><feGaussianBlur result="blur-37" stdDeviation="3"/><feFlood flood-color="#3acce1"/><feComposite in2="blur-37" operator="in"/><feComposite in="SourceGraphic"/></filter><filter id="O" filterUnits="userSpaceOnUse" height="142" width="164" x="209" y="356"><feOffset/><feGaussianBlur result="blur-38" stdDeviation="3"/><feFlood flood-color="#3acce1"/><feComposite in2="blur-38" operator="in"/><feComposite in="SourceGraphic"/></filter><filter id="P" filterUnits="userSpaceOnUse" height="96" width="110" x="128" y="323"><feOffset/><feGaussianBlur result="blur-39" stdDeviation="3"/><feFlood flood-color="#3acce1"/><feComposite in2="blur-39" operator="in"/><feComposite in="SourceGraphic"/></filter><filter id="Q" filterUnits="userSpaceOnUse" height="142" width="164" x="800" y="294"><feOffset/><feGaussianBlur result="blur-40" stdDeviation="3"/><feFlood flood-color="#3acce1"/><feComposite in2="blur-40" operator="in"/><feComposite in="SourceGraphic"/></filter><filter id="R" filterUnits="userSpaceOnUse" height="238" width="275" x="559" y="356"><feOffset/><feGaussianBlur result="blur-41" stdDeviation="3"/><feFlood flood-color="#3acce1"/><feComposite in2="blur-41" operator="in"/><feComposite in="SourceGraphic"/></filter><filter id="S" filterUnits="userSpaceOnUse" height="238" width="275" x="748" y="250"><feOffset/><feGaussianBlur result="blur-42" stdDeviation="3"/><feFlood flood-color="#3acce1"/><feComposite in2="blur-42" operator="in"/><feComposite in="SourceGraphic"/></filter><filter id="T" filterUnits="userSpaceOnUse" height="88" width="101" x="260" y="275"><feOffset/><feGaussianBlur result="blur-43" stdDeviation="3"/><feFlood flood-color="#3acce1"/><feComposite in2="blur-43" operator="in"/><feComposite in="SourceGraphic"/></filter><linearGradient id="U" x1=".068" x2="1.985" xlink:href="#K" y1=".735" y2=".546"/><filter id="V" filterUnits="userSpaceOnUse" height="141" width="164" x="615" y="402"><feOffset/><feGaussianBlur result="blur-44" stdDeviation="3"/><feFlood flood-color="#3acce1"/><feComposite in2="blur-44" operator="in"/><feComposite in="SourceGraphic"/></filter><filter id="W" filterUnits="userSpaceOnUse" height="186" width="215" x="775" y="275"><feOffset/><feGaussianBlur result="blur-45" stdDeviation="3"/><feFlood flood-color="#3acce1"/><feComposite in2="blur-45" operator="in"/><feComposite in="SourceGraphic"/></filter><filter id="X" filterUnits="userSpaceOnUse" height="186" width="215" x="784" y="58"><feOffset/><feGaussianBlur result="blur-46" stdDeviation="3"/><feFlood flood-color="#3acce1"/><feComposite in2="blur-46" operator="in"/><feComposite in="SourceGraphic"/></filter><filter id="Y" filterUnits="userSpaceOnUse" height="151" width="175" x="725" y="174"><feOffset/><feGaussianBlur result="blur-47" stdDeviation="3"/><feFlood flood-color="#3acce1"/><feComposite in2="blur-47" operator="in"/><feComposite in="SourceGraphic"/></filter><filter id="Z" filterUnits="userSpaceOnUse" height="151" width="175" x="419" y="110"><feOffset/><feGaussianBlur result="blur-48" stdDeviation="3"/><feFlood flood-color="#3acce1"/><feComposite in2="blur-48" operator="in"/><feComposite in="SourceGraphic"/></filter><filter id="aa" filterUnits="userSpaceOnUse" height="151" width="175" x="95" y="296"><feOffset/><feGaussianBlur result="blur-49" stdDeviation="3"/><feFlood flood-color="#3acce1"/><feComposite in2="blur-49" operator="in"/><feComposite in="SourceGraphic"/></filter><filter id="ab" filterUnits="userSpaceOnUse" height="66" width="76" x="210" y="60"><feOffset/><feGaussianBlur result="blur-50" stdDeviation="3"/><feFlood flood-color="#3acce1"/><feComposite in2="blur-50" operator="in"/><feComposite in="SourceGraphic"/></filter><filter id="ac" filterUnits="userSpaceOnUse" height="86" width="98" x="804" y="481"><feOffset/><feGaussianBlur result="blur-51" stdDeviation="3"/><feFlood flood-color="#3acce1"/><feComposite in2="blur-51" operator="in"/><feComposite in="SourceGraphic"/></filter><filter id="ad" filterUnits="userSpaceOnUse" height="120" width="121" x="509" y="334"><feOffset dy="1"/><feGaussianBlur result="blur-52" stdDeviation="15"/><feFlood flood-color="#3acce1"/><feComposite in2="blur-52" operator="in"/><feComposite in="SourceGraphic"/></filter><filter id="ae" filterUnits="userSpaceOnUse" height="112" width="112" x="513" y="339"><feOffset dy="1"/><feGaussianBlur result="blur-53" stdDeviation="15"/><feFlood flood-color="#3acce1"/><feComposite in2="blur-53" operator="in"/><feComposite in="SourceGraphic"/></filter><filter id="af" filterUnits="userSpaceOnUse" height="107" width="105" x="517" y="341"><feOffset dy="1"/><feGaussianBlur result="blur-54" stdDeviation="15"/><feFlood flood-color="#3acce1"/><feComposite in2="blur-54" operator="in"/><feComposite in="SourceGraphic"/></filter><filter id="ag" filterUnits="userSpaceOnUse" height="184" width="186" x="731" y="165"><feOffset dy="1"/><feGaussianBlur result="blur-55" stdDeviation="15"/><feFlood flood-color="#3acce1"/><feComposite in2="blur-55" operator="in"/><feComposite in="SourceGraphic"/></filter><filter id="ah" filterUnits="userSpaceOnUse" height="157" width="156" x="746" y="179"><feOffset dy="1"/><feGaussianBlur result="blur-56" stdDeviation="15"/><feFlood flood-color="#3acce1"/><feComposite in2="blur-56" operator="in"/><feComposite in="SourceGraphic"/></filter><filter id="ai" filterUnits="userSpaceOnUse" height="139" width="140" x="753" y="187"><feOffset dy="1"/><feGaussianBlur result="blur-57" stdDeviation="15"/><feFlood flood-color="#3acce1"/><feComposite in2="blur-57" operator="in"/><feComposite in="SourceGraphic"/></filter><filter id="aj" filterUnits="userSpaceOnUse" height="330" width="331" x="628" y="509"><feOffset dy="1"/><feGaussianBlur result="blur-58" stdDeviation="15"/><feFlood flood-color="#3acce1"/><feComposite in2="blur-58" operator="in"/><feComposite in="SourceGraphic"/></filter><filter id="ak" filterUnits="userSpaceOnUse" height="262" width="263" x="661" y="543"><feOffset dy="1"/><feGaussianBlur result="blur-59" stdDeviation="15"/><feFlood flood-color="#3acce1"/><feComposite in2="blur-59" operator="in"/><feComposite in="SourceGraphic"/></filter><filter id="al" filterUnits="userSpaceOnUse" height="218" width="218" x="681" y="562"><feOffset dy="1"/><feGaussianBlur result="blur-60" stdDeviation="15"/><feFlood flood-color="#3acce1"/><feComposite in2="blur-60" operator="in"/><feComposite in="SourceGraphic"/></filter><g opacity=".11" transform="translate(0 44)"><g filter="url(#b)" transform="translate(0 -44)"><circle cx="20" cy="20" fill="url(#a)" opacity=".48" r="20" transform="translate(486 359)"/></g><g filter="url(#c)" transform="translate(0 -44)"><ellipse cx="14" cy="14.5" fill="url(#a)" opacity=".37" rx="14" ry="14.5" transform="translate(491 364)"/></g><g filter="url(#d)" transform="translate(0 -44)"><ellipse cx="10" cy="10.5" fill="url(#a)" opacity=".42" rx="10" ry="10.5" transform="translate(495 368)"/></g><g filter="url(#e)" transform="translate(0 -44)"><circle cx="32.5" cy="32.5" fill="url(#a)" opacity=".48" r="32.5" transform="translate(287 119)"/></g><g filter="url(#f)" transform="translate(0 -44)"><ellipse cx="25.5" cy="25" fill="url(#a)" opacity=".37" rx="25.5" ry="25" transform="translate(294 127)"/></g><g filter="url(#g)" transform="translate(0 -44)"><circle cx="17" cy="17" fill="url(#a)" opacity=".42" r="17" transform="translate(301 133)"/></g><g filter="url(#h)" transform="translate(0 -44)"><ellipse cx="14.5" cy="15.5" fill="url(#a)" opacity=".48" rx="14.5" ry="15.5" transform="translate(199 260)"/></g><g filter="url(#i)" transform="translate(0 -44)"><ellipse cx="11" cy="10.5" fill="url(#a)" opacity=".37" rx="11" ry="10.5" transform="translate(202 265)"/></g><g filter="url(#j)" transform="translate(0 -44)"><ellipse cx="7.5" cy="8.5" fill="url(#a)" opacity=".42" rx="7.5" ry="8.5" transform="translate(205 267)"/></g><g filter="url(#k)" transform="translate(0 -44)"><circle cx="15" cy="15" fill="url(#a)" opacity=".48" r="15" transform="translate(352 184)"/></g><g filter="url(#l)" transform="translate(0 -44)"><ellipse cx="10" cy="10.5" fill="url(#a)" opacity=".37" rx="10" ry="10.5" transform="translate(357 189)"/></g><g filter="url(#m)" transform="translate(0 -44)"><circle cx="8" cy="8" fill="url(#a)" opacity=".42" r="8" transform="translate(358 191)"/></g><g filter="url(#n)" transform="translate(0 -44)"><circle cx="15" cy="15" fill="url(#a)" opacity=".48" r="15" transform="translate(515 137)"/></g><g filter="url(#o)" transform="translate(0 -44)"><circle cx="11" cy="11" fill="url(#a)" opacity=".37" r="11" transform="translate(519 140)"/></g><g filter="url(#p)" transform="translate(0 -44)"><ellipse cx="8.5" cy="8" fill="url(#a)" opacity=".42" rx="8.5" ry="8" transform="translate(522 143)"/></g><g filter="url(#q)" transform="translate(0 -44)"><ellipse cx="15.5" cy="15" fill="url(#a)" opacity=".48" rx="15.5" ry="15" transform="translate(554 44)"/></g><g filter="url(#r)" transform="translate(0 -44)"><ellipse cx="11" cy="10" fill="url(#a)" opacity=".37" rx="11" ry="10" transform="translate(558 49)"/></g><g filter="url(#s)" transform="translate(0 -44)"><ellipse cx="7.5" cy="8" fill="url(#a)" opacity=".42" rx="7.5" ry="8" transform="translate(562 50)"/></g><g filter="url(#t)" transform="translate(0 -44)"><circle cx="15" cy="15" fill="url(#a)" opacity=".48" r="15" transform="translate(398 277)"/></g><g filter="url(#u)" transform="translate(0 -44)"><ellipse cx="11" cy="10" fill="url(#a)" opacity=".37" rx="11" ry="10" transform="translate(402 282)"/></g><g filter="url(#v)" transform="translate(0 -44)"><ellipse cx="8.5" cy="7" fill="url(#a)" opacity=".42" rx="8.5" ry="7" transform="translate(405 284)"/></g><g filter="url(#w)" transform="translate(0 -44)"><circle cx="15" cy="15" fill="url(#a)" opacity=".48" r="15" transform="translate(423 371)"/></g><g filter="url(#x)" transform="translate(0 -44)"><circle cx="10" cy="10" fill="url(#a)" opacity=".37" r="10" transform="translate(428 376)"/></g><g filter="url(#y)" transform="translate(0 -44)"><circle cx="8" cy="8" fill="url(#a)" opacity=".42" r="8" transform="translate(430 377)"/></g><g filter="url(#z)" transform="translate(0 -44)"><circle cx="15" cy="15" fill="url(#a)" opacity=".48" r="15" transform="translate(383 132)"/></g><g filter="url(#A)" transform="translate(0 -44)"><ellipse cx="11.5" cy="10" fill="url(#a)" opacity=".37" rx="11.5" ry="10" transform="translate(387 137)"/></g><g filter="url(#B)" transform="translate(0 -44)"><circle cx="8" cy="8" fill="url(#a)" opacity=".42" r="8" transform="translate(390 139)"/></g><g filter="url(#C)" transform="translate(0 -44)"><ellipse cx="29.5" cy="30.5" fill="url(#a)" opacity=".48" rx="29.5" ry="30.5" transform="translate(676 51)"/></g><g filter="url(#D)" transform="translate(0 -44)"><circle cx="21.5" cy="21.5" fill="url(#a)" opacity=".37" r="21.5" transform="translate(684 60)"/></g><g filter="url(#E)" transform="translate(0 -44)"><circle cx="15.5" cy="15.5" fill="url(#a)" opacity=".42" r="15.5" transform="translate(690 65)"/></g><g filter="url(#F)" transform="translate(0 -44)"><circle cx="29.5" cy="29.5" fill="url(#a)" opacity=".48" r="29.5" transform="translate(485 349)"/></g><g filter="url(#G)" transform="translate(0 -44)"><circle cx="21.5" cy="21.5" fill="url(#a)" opacity=".37" r="21.5" transform="translate(492 358)"/></g><g filter="url(#H)" transform="translate(0 -44)"><ellipse cx="15" cy="16" fill="url(#a)" opacity=".42" rx="15" ry="16" transform="translate(498 362)"/></g><g filter="url(#J)" transform="translate(0 -44)"><path d="m192.75 0h-128.5l-64.25 110 64.25 110h128.5l64.25-110zm-126 215-61.759-105.416 61.754-105.417h123.51l61.755 105.417-61.755 105.416h-123.509z" fill="url(#I)" opacity=".68" transform="matrix(-1 0 0 -1 825 371)"/></g><g filter="url(#L)" transform="translate(0 -44)"><path d="m109.5 124 36.5-62-36.5-62h-73l-36.5 62 36.5 62z" fill="url(#K)" transform="matrix(-1 0 0 -1 772 318)"/></g><g filter="url(#M)" transform="translate(0 -44)"><path d="m109.5 124 36.5-62-36.5-62h-73l-36.5 62 36.5 62z" fill="url(#K)" transform="matrix(-1 0 0 -1 618 641)"/></g><g filter="url(#N)" transform="translate(0 -44)"><path d="m161.25 183 53.75-91.5-53.75-91.5h-107.5l-53.75 91.5 53.75 91.5z" fill="url(#K)" opacity=".31" transform="matrix(-1 0 0 -1 998 679)"/></g><g filter="url(#O)" transform="translate(0 -44)"><path d="m109.5 124 36.5-62-36.5-62h-73l-36.5 62 36.5 62z" fill="url(#K)" transform="matrix(-1 0 0 -1 364 489)"/></g><g filter="url(#P)" transform="translate(0 -44)"><path d="m69 78 23-39-23-39h-46l-23 39 23 39z" fill="url(#K)" transform="matrix(-1 0 0 -1 229 410)"/></g><g filter="url(#Q)" transform="translate(0 -44)"><path d="m109.5 124 36.5-62-36.5-62h-73l-36.5 62 36.5 62z" fill="url(#K)" transform="matrix(-1 0 0 -1 955 427)"/></g><g filter="url(#R)" transform="translate(0 -44)"><path d="m192.75 0h-128.5l-64.25 110 64.25 110h128.5l64.25-110zm-126 215-61.759-105.416 61.754-105.417h123.51l61.755 105.417-61.755 105.416h-123.509z" fill="url(#I)" transform="matrix(-1 0 0 -1 825 585)"/></g><g filter="url(#S)" transform="translate(0 -44)"><path d="m192.75 0h-128.5l-64.25 110 64.25 110h128.5l64.25-110zm-126 215-61.759-105.416 61.754-105.417h123.51l61.755 105.417-61.755 105.416h-123.509z" fill="url(#I)" opacity=".29" transform="matrix(-1 0 0 -1 1014 479)"/></g><g filter="url(#T)" transform="translate(0 -44)"><path d="m62.25 0h-41.5l-20.75 35 20.75 35h41.5l20.75-35zm-39.856 66.743-19.106-31.875 19.106-31.876h38.212l19.106 31.875-19.106 31.876z" fill="url(#I)" opacity=".13" transform="matrix(-1 0 0 -1 352 354)"/></g><g filter="url(#V)" transform="translate(0 -44)"><path d="m109.5 0h-73l-36.5 61.5 36.5 61.5h73l36.5-61.5zm-70.108 117.277-33.608-56.009 33.608-56.01h67.216l33.608 56.009-33.608 56.01z" fill="url(#U)" transform="matrix(-1 0 0 -1 770 534)"/></g><g filter="url(#W)" transform="translate(0 -44)"><path d="m147.749 0h-98.499l-49.25 84 49.25 84h98.5l49.25-84-49.25-84zm-94.6 160.183-45.349-76.5 45.348-76.5h90.7l45.348 76.5-45.348 76.5h-90.7z" fill="url(#U)" opacity=".23" transform="matrix(-1 0 0 -1 981 452)"/></g><g filter="url(#X)" transform="translate(0 -44)"><path d="m147.749 0h-98.499l-49.25 84 49.25 84h98.5l49.25-84-49.25-84zm-94.6 160.183-45.349-76.5 45.348-76.5h90.7l45.348 76.5-45.348 76.5h-90.7z" fill="url(#U)" transform="matrix(-1 0 0 -1 990 235)"/></g><g filter="url(#Y)" transform="translate(0 -44)"><path d="m117.75 0h-78.5l-39.25 66.5 39.25 66.5h78.5l39.25-66.5zm-75.39 126.811-36.14-60.562 36.14-60.564h72.28l36.14 60.562-36.14 60.564z" fill="url(#U)" transform="matrix(-1 0 0 -1 891 316)"/></g><g filter="url(#Z)" transform="translate(0 -44)"><path d="m117.75 0h-78.5l-39.25 66.5 39.25 66.5h78.5l39.25-66.5zm-75.39 126.811-36.14-60.562 36.14-60.564h72.28l36.14 60.562-36.14 60.564z" fill="url(#U)" transform="matrix(-1 0 0 -1 585 252)"/></g><g filter="url(#aa)" transform="translate(0 -44)"><path d="m117.75 0h-78.5l-39.25 66.5 39.25 66.5h78.5l39.25-66.5zm-75.39 126.811-36.14-60.562 36.14-60.564h72.28l36.14 60.562-36.14 60.564z" fill="url(#U)" opacity=".26" transform="matrix(-1 0 0 -1 261 438)"/></g><g filter="url(#ab)" transform="translate(0 -44)"><path d="m43.5 0h-29l-14.5 24 14.5 24h29l14.5-24zm-27.851 45.766-13.349-21.857 13.349-21.857h26.7l13.351 21.857-13.349 21.857z" fill="url(#U)" opacity=".58" transform="matrix(-1 0 0 -1 277 117)"/></g><g filter="url(#ac)" transform="translate(0 -44)"><path d="m60 0h-40l-20 34 20 34h40l20-34zm-38.415 64.836-18.416-30.964 18.416-30.965h36.83l18.416 30.964-18.416 30.965z" fill="url(#U)" transform="matrix(-1 0 0 -1 893 558)"/></g><g opacity=".44" transform="translate(381 .277)"><path d="m640.189 17.333-46.252 84.195h-151.773l-40.994-44.308h-166.17" fill="none" stroke="#665eff" stroke-width="6" transform="translate(-212.414 -17.333)"/><path d="m12.5 0a12.5 12.5 0 0 0 -8.839 21.339 12.5 12.5 0 0 0 17.678-17.678 12.418 12.418 0 0 0 -8.839-3.661zm-.067 20.7a8.132 8.132 0 1 1 8.131-8.132 8.141 8.141 0 0 1 -8.131 8.132z" fill="#665eff" transform="matrix(-1 0 0 -1 25 52.723)"/></g><g opacity=".25" transform="translate(157 182)"><path d="m12.5 0a12.5 12.5 0 0 0 -8.839 21.339 12.5 12.5 0 0 0 17.678-17.678 12.418 12.418 0 0 0 -8.839-3.661zm-.067 20.7a8.132 8.132 0 1 1 8.131-8.132 8.141 8.141 0 0 1 -8.131 8.132z" fill="#665eff" transform="matrix(-1 0 0 -1 25 25)"/><path d="m921.795 319.465-19.387-38.22h-140.141l-32.681-29.911h-139.586" fill="none" stroke="#665eff" stroke-width="6" transform="translate(-564.979 -238.632)"/></g><g opacity=".21" transform="translate(207 451.717)"><path d="m12.5 0a12.5 12.5 0 0 0 -8.839 21.339 12.5 12.5 0 0 0 17.678-17.678 12.418 12.418 0 0 0 -8.839-3.661zm-.067 20.7a8.132 8.132 0 1 1 8.131-8.132 8.141 8.141 0 0 1 -8.131 8.132z" fill="#665eff" transform="matrix(-1 0 0 -1 25 55.283)"/><path d="m863.466 560.667h-176.145l-44.867 42.651h-109.121" fill="none" stroke="#665eff" stroke-width="6" transform="translate(-509.568 -560.667)"/></g><g opacity=".21" transform="translate(498 528.711)"><path d="m12.5 0a12.5 12.5 0 0 0 -8.839 21.339 12.5 12.5 0 0 0 17.678-17.678 12.418 12.418 0 0 0 -8.839-3.661zm-.067 20.7a8.132 8.132 0 1 1 8.131-8.132 8.141 8.141 0 0 1 -8.131 8.132z" fill="#665eff" transform="matrix(-1 0 0 -1 25 100.289)"/><path d="m873.276 508.333-31.143 43.482h-96.811l-44.867 42.651h-109.122" fill="none" stroke="#665eff" stroke-width="6" transform="translate(-567.763 -508.333)"/></g><g opacity=".29" transform="translate(0 351.459)"><path d="m12.5 0a12.5 12.5 0 0 0 -8.839 21.339 12.5 12.5 0 0 0 17.678-17.678 12.418 12.418 0 0 0 -8.839-3.661zm-.067 20.7a8.132 8.132 0 1 1 8.131-8.132 8.141 8.141 0 0 1 -8.131 8.132z" fill="#665eff" transform="matrix(-1 0 0 -1 25 130.541)"/><path d="m1048.939 471-39.166 74.5h-161.905l-44.868 42.653h-299.667" fill="none" stroke="#665eff" stroke-width="6" transform="translate(-479.732 -471)"/></g><g filter="url(#ad)" transform="translate(0 -44)"><ellipse cx="15.5" cy="15" fill="url(#a)" opacity=".48" rx="15.5" ry="15" transform="translate(554 378)"/></g><g filter="url(#ae)" transform="translate(0 -44)"><circle cx="11" cy="11" fill="url(#a)" opacity=".37" r="11" transform="translate(558 383)"/></g><g filter="url(#af)" transform="translate(0 -44)"><ellipse cx="7.5" cy="8.5" fill="url(#a)" opacity=".42" rx="7.5" ry="8.5" transform="translate(562 385)"/></g><g filter="url(#ag)" transform="translate(0 -44)"><ellipse cx="48" cy="47" fill="url(#a)" opacity=".48" rx="48" ry="47" transform="translate(776 209)"/></g><g filter="url(#ah)" transform="translate(0 -44)"><ellipse cx="33" cy="33.5" fill="url(#a)" opacity=".37" rx="33" ry="33.5" transform="translate(791 223)"/></g><g filter="url(#ai)" transform="translate(0 -44)"><ellipse cx="25" cy="24.5" fill="url(#a)" opacity=".42" rx="25" ry="24.5" transform="translate(798 231)"/></g><g opacity=".41" transform="translate(673 509)"><g filter="url(#aj)" transform="translate(-673 -553)"><ellipse cx="120.5" cy="120" fill="url(#a)" opacity=".48" rx="120.5" ry="120" transform="translate(673 553)"/></g><g filter="url(#ak)" transform="translate(-673 -553)"><ellipse cx="86.5" cy="86" fill="url(#a)" opacity=".37" rx="86.5" ry="86" transform="translate(706 587)"/></g><g filter="url(#al)" transform="translate(-673 -553)"><circle cx="64" cy="64" fill="url(#a)" opacity=".42" r="64" transform="translate(726 606)"/></g></g></g></svg>