<svg height="796" viewBox="0 0 965 796" width="965" xmlns="http://www.w3.org/2000/svg" xmlns:xlink="http://www.w3.org/1999/xlink"><radialGradient id="a" cx=".5" cy=".5" gradientUnits="objectBoundingBox" r=".5"><stop offset="0" stop-color="#3acce1"/><stop offset="1" stop-color="#3acce1" stop-opacity="0"/></radialGradient><filter id="b" filterUnits="userSpaceOnUse" height="128" width="127" x="425" y="296"><feOffset dy="1"/><feGaussianBlur result="blur" stdDeviation="15"/><feFlood flood-color="#3acce1"/><feComposite in2="blur" operator="in"/><feComposite in="SourceGraphic"/></filter><filter id="c" filterUnits="userSpaceOnUse" height="116" width="118" x="429" y="302"><feOffset dy="1"/><feGaussianBlur result="blur-2" stdDeviation="15"/><feFlood flood-color="#3acce1"/><feComposite in2="blur-2" operator="in"/><feComposite in="SourceGraphic"/></filter><filter id="d" filterUnits="userSpaceOnUse" height="109" width="109" x="435" y="305"><feOffset dy="1"/><feGaussianBlur result="blur-3" stdDeviation="15"/><feFlood flood-color="#3acce1"/><feComposite in2="blur-3" operator="in"/><feComposite in="SourceGraphic"/></filter><filter id="e" filterUnits="userSpaceOnUse" height="153" width="152" x="588" y="70"><feOffset dy="1"/><feGaussianBlur result="blur-4" stdDeviation="15"/><feFlood flood-color="#3acce1"/><feComposite in2="blur-4" operator="in"/><feComposite in="SourceGraphic"/></filter><filter id="f" filterUnits="userSpaceOnUse" height="137" width="136" x="596" y="78"><feOffset dy="1"/><feGaussianBlur result="blur-5" stdDeviation="15"/><feFlood flood-color="#3acce1"/><feComposite in2="blur-5" operator="in"/><feComposite in="SourceGraphic"/></filter><filter id="g" filterUnits="userSpaceOnUse" height="122" width="122" x="604" y="85"><feOffset dy="1"/><feGaussianBlur result="blur-6" stdDeviation="15"/><feFlood flood-color="#3acce1"/><feComposite in2="blur-6" operator="in"/><feComposite in="SourceGraphic"/></filter><filter id="h" filterUnits="userSpaceOnUse" height="117" width="118" x="705" y="205"><feOffset dy="1"/><feGaussianBlur result="blur-7" stdDeviation="15"/><feFlood flood-color="#3acce1"/><feComposite in2="blur-7" operator="in"/><feComposite in="SourceGraphic"/></filter><filter id="i" filterUnits="userSpaceOnUse" height="111" width="110" x="709" y="208"><feOffset dy="1"/><feGaussianBlur result="blur-8" stdDeviation="15"/><feFlood flood-color="#3acce1"/><feComposite in2="blur-8" operator="in"/><feComposite in="SourceGraphic"/></filter><filter id="j" filterUnits="userSpaceOnUse" height="104" width="105" x="712" y="211"><feOffset dy="1"/><feGaussianBlur result="blur-9" stdDeviation="15"/><feFlood flood-color="#3acce1"/><feComposite in2="blur-9" operator="in"/><feComposite in="SourceGraphic"/></filter><filter id="k" filterUnits="userSpaceOnUse" height="117" width="119" x="559" y="133"><feOffset dy="1"/><feGaussianBlur result="blur-10" stdDeviation="15"/><feFlood flood-color="#3acce1"/><feComposite in2="blur-10" operator="in"/><feComposite in="SourceGraphic"/></filter><filter id="l" filterUnits="userSpaceOnUse" height="111" width="110" x="564" y="136"><feOffset dy="1"/><feGaussianBlur result="blur-11" stdDeviation="15"/><feFlood flood-color="#3acce1"/><feComposite in2="blur-11" operator="in"/><feComposite in="SourceGraphic"/></filter><filter id="m" filterUnits="userSpaceOnUse" height="104" width="105" x="567" y="139"><feOffset dy="1"/><feGaussianBlur result="blur-12" stdDeviation="15"/><feFlood flood-color="#3acce1"/><feComposite in2="blur-12" operator="in"/><feComposite in="SourceGraphic"/></filter><filter id="n" filterUnits="userSpaceOnUse" height="118" width="119" x="405" y="87"><feOffset dy="1"/><feGaussianBlur result="blur-13" stdDeviation="15"/><feFlood flood-color="#3acce1"/><feComposite in2="blur-13" operator="in"/><feComposite in="SourceGraphic"/></filter><filter id="o" filterUnits="userSpaceOnUse" height="110" width="110" x="409" y="91"><feOffset dy="1"/><feGaussianBlur result="blur-14" stdDeviation="15"/><feFlood flood-color="#3acce1"/><feComposite in2="blur-14" operator="in"/><feComposite in="SourceGraphic"/></filter><filter id="p" filterUnits="userSpaceOnUse" height="105" width="105" x="413" y="93"><feOffset dy="1"/><feGaussianBlur result="blur-15" stdDeviation="15"/><feFlood flood-color="#3acce1"/><feComposite in2="blur-15" operator="in"/><feComposite in="SourceGraphic"/></filter><filter id="q" filterUnits="userSpaceOnUse" height="119" width="118" x="369" y="0"><feOffset dy="1"/><feGaussianBlur result="blur-16" stdDeviation="15"/><feFlood flood-color="#3acce1"/><feComposite in2="blur-16" operator="in"/><feComposite in="SourceGraphic"/></filter><filter id="r" filterUnits="userSpaceOnUse" height="110" width="110" x="373" y="4"><feOffset dy="1"/><feGaussianBlur result="blur-17" stdDeviation="15"/><feFlood flood-color="#3acce1"/><feComposite in2="blur-17" operator="in"/><feComposite in="SourceGraphic"/></filter><filter id="s" filterUnits="userSpaceOnUse" height="105" width="104" x="376" y="6"><feOffset dy="1"/><feGaussianBlur result="blur-18" stdDeviation="15"/><feFlood flood-color="#3acce1"/><feComposite in2="blur-18" operator="in"/><feComposite in="SourceGraphic"/></filter><filter id="t" filterUnits="userSpaceOnUse" height="118" width="118" x="516" y="219"><feOffset dy="1"/><feGaussianBlur result="blur-19" stdDeviation="15"/><feFlood flood-color="#3acce1"/><feComposite in2="blur-19" operator="in"/><feComposite in="SourceGraphic"/></filter><filter id="u" filterUnits="userSpaceOnUse" height="111" width="110" x="520" y="223"><feOffset dy="1"/><feGaussianBlur result="blur-20" stdDeviation="15"/><feFlood flood-color="#3acce1"/><feComposite in2="blur-20" operator="in"/><feComposite in="SourceGraphic"/></filter><filter id="v" filterUnits="userSpaceOnUse" height="105" width="105" x="523" y="225"><feOffset dy="1"/><feGaussianBlur result="blur-21" stdDeviation="15"/><feFlood flood-color="#3acce1"/><feComposite in2="blur-21" operator="in"/><feComposite in="SourceGraphic"/></filter><filter id="w" filterUnits="userSpaceOnUse" height="118" width="117" x="493" y="308"><feOffset dy="1"/><feGaussianBlur result="blur-22" stdDeviation="15"/><feFlood flood-color="#3acce1"/><feComposite in2="blur-22" operator="in"/><feComposite in="SourceGraphic"/></filter><filter id="x" filterUnits="userSpaceOnUse" height="110" width="111" x="496" y="312"><feOffset dy="1"/><feGaussianBlur result="blur-23" stdDeviation="15"/><feFlood flood-color="#3acce1"/><feComposite in2="blur-23" operator="in"/><feComposite in="SourceGraphic"/></filter><filter id="y" filterUnits="userSpaceOnUse" height="104" width="104" x="500" y="314"><feOffset dy="1"/><feGaussianBlur result="blur-24" stdDeviation="15"/><feFlood flood-color="#3acce1"/><feComposite in2="blur-24" operator="in"/><feComposite in="SourceGraphic"/></filter><filter id="z" filterUnits="userSpaceOnUse" height="118" width="119" x="530" y="83"><feOffset dy="1"/><feGaussianBlur result="blur-25" stdDeviation="15"/><feFlood flood-color="#3acce1"/><feComposite in2="blur-25" operator="in"/><feComposite in="SourceGraphic"/></filter><filter id="A" filterUnits="userSpaceOnUse" height="110" width="110" x="534" y="87"><feOffset dy="1"/><feGaussianBlur result="blur-26" stdDeviation="15"/><feFlood flood-color="#3acce1"/><feComposite in2="blur-26" operator="in"/><feComposite in="SourceGraphic"/></filter><filter id="B" filterUnits="userSpaceOnUse" height="105" width="105" x="537" y="89"><feOffset dy="1"/><feGaussianBlur result="blur-27" stdDeviation="15"/><feFlood flood-color="#3acce1"/><feComposite in2="blur-27" operator="in"/><feComposite in="SourceGraphic"/></filter><filter id="C" filterUnits="userSpaceOnUse" height="146" width="146" x="227" y="7"><feOffset dy="1"/><feGaussianBlur result="blur-28" stdDeviation="15"/><feFlood flood-color="#3acce1"/><feComposite in2="blur-28" operator="in"/><feComposite in="SourceGraphic"/></filter><filter id="D" filterUnits="userSpaceOnUse" height="130" width="131" x="234" y="15"><feOffset dy="1"/><feGaussianBlur result="blur-29" stdDeviation="15"/><feFlood flood-color="#3acce1"/><feComposite in2="blur-29" operator="in"/><feComposite in="SourceGraphic"/></filter><filter id="E" filterUnits="userSpaceOnUse" height="119" width="120" x="240" y="20"><feOffset dy="1"/><feGaussianBlur result="blur-30" stdDeviation="15"/><feFlood flood-color="#3acce1"/><feComposite in2="blur-30" operator="in"/><feComposite in="SourceGraphic"/></filter><filter id="F" filterUnits="userSpaceOnUse" height="146" width="146" x="407" y="288"><feOffset dy="1"/><feGaussianBlur result="blur-31" stdDeviation="15"/><feFlood flood-color="#3acce1"/><feComposite in2="blur-31" operator="in"/><feComposite in="SourceGraphic"/></filter><filter id="G" filterUnits="userSpaceOnUse" height="130" width="130" x="415" y="296"><feOffset dy="1"/><feGaussianBlur result="blur-32" stdDeviation="15"/><feFlood flood-color="#3acce1"/><feComposite in2="blur-32" operator="in"/><feComposite in="SourceGraphic"/></filter><filter id="H" filterUnits="userSpaceOnUse" height="119" width="119" x="422" y="300"><feOffset dy="1"/><feGaussianBlur result="blur-33" stdDeviation="15"/><feFlood flood-color="#3acce1"/><feComposite in2="blur-33" operator="in"/><feComposite in="SourceGraphic"/></filter><linearGradient id="I" gradientUnits="objectBoundingBox" x1=".932" x2=".058" y1=".735" y2=".182"><stop offset="0" stop-color="#665eff"/><stop offset="1" stop-color="#3acce1"/></linearGradient><filter id="J" filterUnits="userSpaceOnUse" height="224" width="260" x="179" y="136"><feOffset/><feGaussianBlur result="blur-34" stdDeviation="3"/><feFlood flood-color="#3acce1"/><feComposite in2="blur-34" operator="in"/><feComposite in="SourceGraphic"/></filter><linearGradient id="K" gradientUnits="objectBoundingBox" x1=".909" x2="-1.267" y1=".467" y2=".373"><stop offset="0" stop-color="#665eff" stop-opacity="0"/><stop offset="1" stop-color="#3acce1"/></linearGradient><filter id="L" filterUnits="userSpaceOnUse" height="136" width="156" x="229" y="176"><feOffset/><feGaussianBlur result="blur-35" stdDeviation="3"/><feFlood flood-color="#3acce1"/><feComposite in2="blur-35" operator="in"/><feComposite in="SourceGraphic"/></filter><filter id="M" filterUnits="userSpaceOnUse" height="136" width="156" x="373" y="480"><feOffset/><feGaussianBlur result="blur-36" stdDeviation="3"/><feFlood flood-color="#3acce1"/><feComposite in2="blur-36" operator="in"/><feComposite in="SourceGraphic"/></filter><filter id="N" filterUnits="userSpaceOnUse" height="191" width="221" x="14" y="461"><feOffset/><feGaussianBlur result="blur-37" stdDeviation="3"/><feFlood flood-color="#3acce1"/><feComposite in2="blur-37" operator="in"/><feComposite in="SourceGraphic"/></filter><filter id="O" filterUnits="userSpaceOnUse" height="136" width="156" x="613" y="338"><feOffset/><feGaussianBlur result="blur-38" stdDeviation="3"/><feFlood flood-color="#3acce1"/><feComposite in2="blur-38" operator="in"/><feComposite in="SourceGraphic"/></filter><filter id="P" filterUnits="userSpaceOnUse" height="92" width="104" x="739" y="306"><feOffset/><feGaussianBlur result="blur-39" stdDeviation="3"/><feFlood flood-color="#3acce1"/><feComposite in2="blur-39" operator="in"/><feComposite in="SourceGraphic"/></filter><filter id="Q" filterUnits="userSpaceOnUse" height="136" width="156" x="55" y="279"><feOffset/><feGaussianBlur result="blur-40" stdDeviation="3"/><feFlood flood-color="#3acce1"/><feComposite in2="blur-40" operator="in"/><feComposite in="SourceGraphic"/></filter><filter id="R" filterUnits="userSpaceOnUse" height="224" width="260" x="179" y="338"><feOffset/><feGaussianBlur result="blur-41" stdDeviation="3"/><feFlood flood-color="#3acce1"/><feComposite in2="blur-41" operator="in"/><feComposite in="SourceGraphic"/></filter><filter id="S" filterUnits="userSpaceOnUse" height="224" width="260" x="0" y="238"><feOffset/><feGaussianBlur result="blur-42" stdDeviation="3"/><feFlood flood-color="#3acce1"/><feComposite in2="blur-42" operator="in"/><feComposite in="SourceGraphic"/></filter><filter id="T" filterUnits="userSpaceOnUse" height="84" width="95" x="624" y="260"><feOffset/><feGaussianBlur result="blur-43" stdDeviation="3"/><feFlood flood-color="#3acce1"/><feComposite in2="blur-43" operator="in"/><feComposite in="SourceGraphic"/></filter><linearGradient id="U" x1=".932" x2="-.985" xlink:href="#K" y1=".735" y2=".546"/><filter id="V" filterUnits="userSpaceOnUse" height="135" width="155" x="231" y="380"><feOffset/><feGaussianBlur result="blur-44" stdDeviation="3"/><feFlood flood-color="#3acce1"/><feComposite in2="blur-44" operator="in"/><feComposite in="SourceGraphic"/></filter><filter id="W" filterUnits="userSpaceOnUse" height="176" width="203" x="30" y="260"><feOffset/><feGaussianBlur result="blur-45" stdDeviation="3"/><feFlood flood-color="#3acce1"/><feComposite in2="blur-45" operator="in"/><feComposite in="SourceGraphic"/></filter><filter id="X" filterUnits="userSpaceOnUse" height="176" width="203" x="23" y="57"><feOffset/><feGaussianBlur result="blur-46" stdDeviation="3"/><feFlood flood-color="#3acce1"/><feComposite in2="blur-46" operator="in"/><feComposite in="SourceGraphic"/></filter><filter id="Y" filterUnits="userSpaceOnUse" height="144" width="165" x="115" y="166"><feOffset/><feGaussianBlur result="blur-47" stdDeviation="3"/><feFlood flood-color="#3acce1"/><feComposite in2="blur-47" operator="in"/><feComposite in="SourceGraphic"/></filter><filter id="Z" filterUnits="userSpaceOnUse" height="144" width="165" x="405" y="105"><feOffset/><feGaussianBlur result="blur-48" stdDeviation="3"/><feFlood flood-color="#3acce1"/><feComposite in2="blur-48" operator="in"/><feComposite in="SourceGraphic"/></filter><filter id="aa" filterUnits="userSpaceOnUse" height="144" width="165" x="709" y="280"><feOffset/><feGaussianBlur result="blur-49" stdDeviation="3"/><feFlood flood-color="#3acce1"/><feComposite in2="blur-49" operator="in"/><feComposite in="SourceGraphic"/></filter><filter id="ab" filterUnits="userSpaceOnUse" height="64" width="72" x="695" y="59"><feOffset/><feGaussianBlur result="blur-50" stdDeviation="3"/><feFlood flood-color="#3acce1"/><feComposite in2="blur-50" operator="in"/><feComposite in="SourceGraphic"/></filter><filter id="ac" filterUnits="userSpaceOnUse" height="81" width="93" x="114" y="455"><feOffset/><feGaussianBlur result="blur-51" stdDeviation="3"/><feFlood flood-color="#3acce1"/><feComposite in2="blur-51" operator="in"/><feComposite in="SourceGraphic"/></filter><filter id="ad" filterUnits="userSpaceOnUse" height="119" width="118" x="369" y="315"><feOffset dy="1"/><feGaussianBlur result="blur-52" stdDeviation="15"/><feFlood flood-color="#3acce1"/><feComposite in2="blur-52" operator="in"/><feComposite in="SourceGraphic"/></filter><filter id="ae" filterUnits="userSpaceOnUse" height="110" width="110" x="373" y="320"><feOffset dy="1"/><feGaussianBlur result="blur-53" stdDeviation="15"/><feFlood flood-color="#3acce1"/><feComposite in2="blur-53" operator="in"/><feComposite in="SourceGraphic"/></filter><filter id="af" filterUnits="userSpaceOnUse" height="104" width="104" x="376" y="322"><feOffset dy="1"/><feGaussianBlur result="blur-54" stdDeviation="15"/><feFlood flood-color="#3acce1"/><feComposite in2="blur-54" operator="in"/><feComposite in="SourceGraphic"/></filter><filter id="ag" filterUnits="userSpaceOnUse" height="178" width="179" x="98" y="156"><feOffset dy="1"/><feGaussianBlur result="blur-55" stdDeviation="15"/><feFlood flood-color="#3acce1"/><feComposite in2="blur-55" operator="in"/><feComposite in="SourceGraphic"/></filter><filter id="ah" filterUnits="userSpaceOnUse" height="153" width="154" x="111" y="168"><feOffset dy="1"/><feGaussianBlur result="blur-56" stdDeviation="15"/><feFlood flood-color="#3acce1"/><feComposite in2="blur-56" operator="in"/><feComposite in="SourceGraphic"/></filter><filter id="ai" filterUnits="userSpaceOnUse" height="138" width="137" x="121" y="175"><feOffset dy="1"/><feGaussianBlur result="blur-57" stdDeviation="15"/><feFlood flood-color="#3acce1"/><feComposite in2="blur-57" operator="in"/><feComposite in="SourceGraphic"/></filter><filter id="aj" filterUnits="userSpaceOnUse" height="317" width="318" x="58" y="479"><feOffset dy="1"/><feGaussianBlur result="blur-58" stdDeviation="15"/><feFlood flood-color="#3acce1"/><feComposite in2="blur-58" operator="in"/><feComposite in="SourceGraphic"/></filter><filter id="ak" filterUnits="userSpaceOnUse" height="253" width="252" x="91" y="511"><feOffset dy="1"/><feGaussianBlur result="blur-59" stdDeviation="15"/><feFlood flood-color="#3acce1"/><feComposite in2="blur-59" operator="in"/><feComposite in="SourceGraphic"/></filter><filter id="al" filterUnits="userSpaceOnUse" height="210" width="210" x="115" y="530"><feOffset dy="1"/><feGaussianBlur result="blur-60" stdDeviation="15"/><feFlood flood-color="#3acce1"/><feComposite in2="blur-60" operator="in"/><feComposite in="SourceGraphic"/></filter><g opacity=".19" transform="translate(5 27)"><g filter="url(#b)" transform="translate(-5.001 -26.999)"><ellipse cx="18.5" cy="19" fill="url(#a)" opacity=".48" rx="18.5" ry="19" transform="translate(470 340)"/></g><g filter="url(#c)" transform="translate(-5.001 -26.999)"><ellipse cx="14" cy="13" fill="url(#a)" opacity=".37" rx="14" ry="13" transform="translate(474 346)"/></g><g filter="url(#d)" transform="translate(-5.001 -26.999)"><circle cx="9.5" cy="9.5" fill="url(#a)" opacity=".42" r="9.5" transform="translate(480 349)"/></g><g filter="url(#e)" transform="translate(-4.996 -26.995)"><ellipse cx="31" cy="31.5" fill="url(#a)" opacity=".48" rx="31" ry="31.5" transform="translate(633 114)"/></g><g filter="url(#f)" transform="translate(-4.996 -26.995)"><ellipse cx="23" cy="23.5" fill="url(#a)" opacity=".37" rx="23" ry="23.5" transform="translate(641 122)"/></g><g filter="url(#g)" transform="translate(-4.996 -26.995)"><circle cx="16" cy="16" fill="url(#a)" opacity=".42" r="16" transform="translate(649 129)"/></g><g filter="url(#h)" transform="translate(-4.998 -27.002)"><ellipse cx="14" cy="13.5" fill="url(#a)" opacity=".48" rx="14" ry="13.5" transform="translate(750 249)"/></g><g filter="url(#i)" transform="translate(-4.998 -27.002)"><ellipse cx="10" cy="10.5" fill="url(#a)" opacity=".37" rx="10" ry="10.5" transform="translate(754 252)"/></g><g filter="url(#j)" transform="translate(-4.998 -27.002)"><ellipse cx="7.5" cy="7" fill="url(#a)" opacity=".42" rx="7.5" ry="7" transform="translate(757 255)"/></g><g filter="url(#k)" transform="translate(-4.998 -27.001)"><ellipse cx="14.5" cy="13.5" fill="url(#a)" opacity=".48" rx="14.5" ry="13.5" transform="translate(604 177)"/></g><g filter="url(#l)" transform="translate(-4.998 -27.001)"><ellipse cx="10" cy="10.5" fill="url(#a)" opacity=".37" rx="10" ry="10.5" transform="translate(609 180)"/></g><g filter="url(#m)" transform="translate(-4.998 -27.001)"><ellipse cx="7.5" cy="7" fill="url(#a)" opacity=".42" rx="7.5" ry="7" transform="translate(612 183)"/></g><g filter="url(#n)" transform="translate(-4.996 -26.997)"><ellipse cx="14.5" cy="14" fill="url(#a)" opacity=".48" rx="14.5" ry="14" transform="translate(450 131)"/></g><g filter="url(#o)" transform="translate(-4.996 -26.997)"><circle cx="10" cy="10" fill="url(#a)" opacity=".37" r="10" transform="translate(454 135)"/></g><g filter="url(#p)" transform="translate(-4.996 -26.997)"><circle cx="7.5" cy="7.5" fill="url(#a)" opacity=".42" r="7.5" transform="translate(458 137)"/></g><g filter="url(#q)" transform="translate(-4.998 -27)"><ellipse cx="14" cy="14.5" fill="url(#a)" opacity=".48" rx="14" ry="14.5" transform="translate(414 44)"/></g><g filter="url(#r)" transform="translate(-4.998 -27)"><circle cx="10" cy="10" fill="url(#a)" opacity=".37" r="10" transform="translate(418 48)"/></g><g filter="url(#s)" transform="translate(-4.998 -27)"><ellipse cx="7" cy="7.5" fill="url(#a)" opacity=".42" rx="7" ry="7.5" transform="translate(421 50)"/></g><g filter="url(#t)" transform="translate(-5.005 -26.998)"><circle cx="14" cy="14" fill="url(#a)" opacity=".48" r="14" transform="translate(561 263)"/></g><g filter="url(#u)" transform="translate(-5.005 -26.998)"><ellipse cx="10" cy="10.5" fill="url(#a)" opacity=".37" rx="10" ry="10.5" transform="translate(565 267)"/></g><g filter="url(#v)" transform="translate(-5.005 -26.998)"><circle cx="7.5" cy="7.5" fill="url(#a)" opacity=".42" r="7.5" transform="translate(568 269)"/></g><g filter="url(#w)" transform="translate(-4.996 -27.002)"><ellipse cx="13.5" cy="14" fill="url(#a)" opacity=".48" rx="13.5" ry="14" transform="translate(538 352)"/></g><g filter="url(#x)" transform="translate(-4.996 -27.002)"><ellipse cx="10.5" cy="10" fill="url(#a)" opacity=".37" rx="10.5" ry="10" transform="translate(541 356)"/></g><g filter="url(#y)" transform="translate(-4.996 -27.002)"><circle cx="7" cy="7" fill="url(#a)" opacity=".42" r="7" transform="translate(545 358)"/></g><g filter="url(#z)" transform="translate(-4.997 -27.004)"><ellipse cx="14.5" cy="14" fill="url(#a)" opacity=".48" rx="14.5" ry="14" transform="translate(575 127)"/></g><g filter="url(#A)" transform="translate(-4.997 -27.004)"><circle cx="10" cy="10" fill="url(#a)" opacity=".37" r="10" transform="translate(579 131)"/></g><g filter="url(#B)" transform="translate(-4.997 -27.004)"><circle cx="7.5" cy="7.5" fill="url(#a)" opacity=".42" r="7.5" transform="translate(582 133)"/></g><g filter="url(#C)" transform="translate(-5.002 -26.996)"><circle cx="28" cy="28" fill="url(#a)" opacity=".48" r="28" transform="translate(272 51)"/></g><g filter="url(#D)" transform="translate(-5.002 -26.996)"><ellipse cx="20.5" cy="20" fill="url(#a)" opacity=".37" rx="20.5" ry="20" transform="translate(279 59)"/></g><g filter="url(#E)" transform="translate(-5.002 -26.996)"><ellipse cx="15" cy="14.5" fill="url(#a)" opacity=".42" rx="15" ry="14.5" transform="translate(285 64)"/></g><g filter="url(#F)" transform="translate(-5.002 -26.997)"><circle cx="28" cy="28" fill="url(#a)" opacity=".48" r="28" transform="translate(452 332)"/></g><g filter="url(#G)" transform="translate(-5.002 -26.997)"><circle cx="20" cy="20" fill="url(#a)" opacity=".37" r="20" transform="translate(460 340)"/></g><g filter="url(#H)" transform="translate(-5.002 -26.997)"><circle cx="14.5" cy="14.5" fill="url(#a)" opacity=".42" r="14.5" transform="translate(467 344)"/></g><g filter="url(#J)" transform="translate(-5 -27)"><path d="m181.5 206h-121l-60.5-103 60.5-103h121l60.5 103zm-118.65-201.318-58.15 98.708 58.15 98.71h116.3l58.15-98.71-58.15-98.708z" fill="url(#I)" opacity=".68" transform="translate(188 145)"/></g><g filter="url(#L)" transform="translate(-5 -27)"><path d="m103.5 0 34.5 59-34.5 59h-69l-34.5-59 34.5-59z" fill="url(#K)" transform="translate(238 185)"/></g><g filter="url(#M)" transform="translate(-5 -27)"><path d="m103.5 0 34.5 59-34.5 59h-69l-34.5-59 34.5-59z" fill="url(#K)" transform="translate(382 489)"/></g><g filter="url(#N)" transform="translate(-5 -27)"><path d="m152.25 0 50.75 86.5-50.75 86.5h-101.5l-50.75-86.5 50.75-86.5z" fill="url(#K)" opacity=".31" transform="translate(23 470)"/></g><g filter="url(#O)" transform="translate(-5 -27)"><path d="m103.5 0 34.5 59-34.5 59h-69l-34.5-59 34.5-59z" fill="url(#K)" transform="translate(622 347)"/></g><g filter="url(#P)" transform="translate(-5 -27)"><path d="m64.5 0 21.5 37-21.5 37h-43l-21.5-37 21.5-37z" fill="url(#K)" transform="translate(748 315)"/></g><g filter="url(#Q)" transform="translate(-5 -27)"><path d="m103.5 0 34.5 59-34.5 59h-69l-34.5-59 34.5-59z" fill="url(#K)" transform="translate(64 288)"/></g><g filter="url(#R)" transform="translate(-5 -27)"><path d="m181.5 206h-121l-60.5-103 60.5-103h121l60.5 103zm-118.65-201.318-58.15 98.708 58.15 98.71h116.3l58.15-98.71-58.15-98.708z" fill="url(#I)" transform="translate(188 347)"/></g><g filter="url(#S)" transform="translate(-5 -27)"><path d="m181.5 206h-121l-60.5-103 60.5-103h121l60.5 103zm-118.65-201.318-58.15 98.708 58.15 98.71h116.3l58.15-98.71-58.15-98.708z" fill="url(#I)" opacity=".29" transform="translate(9 247)"/></g><g filter="url(#T)" transform="translate(-5 -27)"><path d="m57.75 66h-38.5l-19.25-33 19.25-33h38.5l19.25 33zm-36.975-62.929-17.724 30.054 17.724 30.054h35.45l17.724-30.054-17.724-30.054z" fill="url(#I)" opacity=".13" transform="translate(633 269)"/></g><g filter="url(#V)" transform="translate(-5 -27)"><path d="m102.75 117h-68.5l-34.25-58.5 34.25-58.5h68.5l34.25 58.5zm-65.786-111.556-31.536 53.277 31.536 53.279h63.072l31.536-53.277-31.536-53.279z" fill="url(#U)" transform="translate(240 389)"/></g><g filter="url(#W)" transform="translate(-5 -27)"><path d="m138.749 158h-92.499l-46.25-79 46.25-79h92.5l46.25 79-46.25 79zm-88.834-150.648-42.586 71.948 42.585 71.948h85.171l42.586-71.948-42.586-71.948z" fill="url(#U)" opacity=".23" transform="translate(39 269)"/></g><g filter="url(#X)" transform="translate(-5 -27)"><path d="m138.749 158h-92.499l-46.25-79 46.25-79h92.5l46.25 79-46.25 79zm-88.834-150.648-42.586 71.948 42.585 71.948h85.171l42.586-71.948-42.586-71.948z" fill="url(#U)" transform="translate(32 66)"/></g><g filter="url(#Y)" transform="translate(-5 -27)"><path d="m110.25 126h-73.5l-36.75-63 36.75-63h73.5l36.75 63zm-70.588-120.137-33.838 57.375 33.838 57.376h67.676l33.838-57.375-33.838-57.376z" fill="url(#U)" transform="translate(124 175)"/></g><g filter="url(#Z)" transform="translate(-5 -27)"><path d="m110.25 126h-73.5l-36.75-63 36.75-63h73.5l36.75 63zm-70.588-120.137-33.838 57.375 33.838 57.376h67.676l33.838-57.375-33.838-57.376z" fill="url(#U)" transform="translate(414 114)"/></g><g filter="url(#aa)" transform="translate(-5 -27)"><path d="m110.25 126h-73.5l-36.75-63 36.75-63h73.5l36.75 63zm-70.588-120.137-33.838 57.375 33.838 57.376h67.676l33.838-57.375-33.838-57.376z" fill="url(#U)" opacity=".26" transform="translate(718 289)"/></g><g filter="url(#ab)" transform="translate(-5 -27)"><path d="m40.5 46h-27l-13.5-23 13.5-23h27l13.5 23zm-25.93-43.86-12.431 20.947 12.431 20.947h24.86l12.43-20.946-12.43-20.948z" fill="url(#U)" opacity=".58" transform="translate(704 68)"/></g><g filter="url(#ac)" transform="translate(-5 -27)"><path d="m56.25 63h-37.5l-18.75-31.5 18.75-31.5h37.5l18.75 31.5zm-36.014-60.068-17.265 28.687 17.265 28.688h34.528l17.265-28.687-17.265-28.688z" fill="url(#U)" transform="translate(123 464)"/></g><g opacity=".44" transform="translate(197.392 17.261)"><path d="m235 17.333 43.585 79.34h143.022l38.63-41.753h156.589" fill="none" stroke="#665eff" stroke-width="6" transform="translate(-235 -17.333)"/><path d="m12 24a12 12 0 0 1 -8.485-20.485 12 12 0 0 1 16.97 16.97 11.922 11.922 0 0 1 -8.485 3.515zm-.064-19.871a7.806 7.806 0 1 0 7.806 7.807 7.816 7.816 0 0 0 -7.806-7.807z" fill="#665eff" transform="translate(379.608 25.739)"/></g><g opacity=".25" transform="translate(475.345 188.612)"><path d="m12 24a12 12 0 0 1 -8.485-20.485 12 12 0 0 1 16.97 16.97 11.922 11.922 0 0 1 -8.485 3.515zm-.064-19.871a7.806 7.806 0 1 0 7.806 7.807 7.816 7.816 0 0 0 -7.806-7.807z" fill="#665eff" transform="translate(312.655 .388)"/><path d="m590 315.536 18.269-36.016h132.06l30.8-28.187h131.535" fill="none" stroke="#665eff" stroke-width="6" transform="translate(-590 -239.47)"/></g><g opacity=".21" transform="translate(430.977 442.672)"><path d="m12 24a12 12 0 0 1 -8.485-20.485 12 12 0 0 1 16.97 16.97 11.922 11.922 0 0 1 -8.485 3.515zm-.064-19.871a7.806 7.806 0 1 0 7.806 7.807 7.816 7.816 0 0 0 -7.806-7.807z" fill="#665eff" transform="translate(310.023 29.328)"/><path d="m533.333 560.667h165.989l42.28 40.192h102.829" fill="none" stroke="#665eff" stroke-width="6" transform="translate(-533.333 -560.667)"/></g><g opacity=".21" transform="translate(202.351 515.227)"><path d="m12 24a12 12 0 0 1 -8.485-20.485 12 12 0 0 1 16.97 16.97 11.922 11.922 0 0 1 -8.485 3.515zm-.064-19.871a7.806 7.806 0 1 0 7.806 7.807 7.816 7.816 0 0 0 -7.806-7.807z" fill="#665eff" transform="translate(264.649 70.773)"/><path d="m591.333 508.333 29.348 40.975h91.229l42.28 40.192h102.829" fill="none" stroke="#665eff" stroke-width="6" transform="translate(-591.333 -508.333)"/></g><g opacity=".29" transform="translate(423.147 348.194)"><path d="m12 24a12 12 0 0 1 -8.485-20.485 12 12 0 0 1 16.97 16.97 11.922 11.922 0 0 1 -8.485 3.515zm-.064-19.871a7.806 7.806 0 1 0 7.806 7.807 7.816 7.816 0 0 0 -7.806-7.807z" fill="#665eff" transform="translate(512.853 99.806)"/><path d="m503.333 471 36.907 70.206h152.57l42.28 40.192h282.39" fill="none" stroke="#665eff" stroke-width="6" transform="translate(-503.333 -471)"/></g><g filter="url(#ad)" transform="translate(-4.998 -27.001)"><ellipse cx="14" cy="14.5" fill="url(#a)" opacity=".48" rx="14" ry="14.5" transform="translate(414 359)"/></g><g filter="url(#ae)" transform="translate(-4.998 -27.001)"><circle cx="10" cy="10" fill="url(#a)" opacity=".37" r="10" transform="translate(418 364)"/></g><g filter="url(#af)" transform="translate(-4.998 -27.001)"><circle cx="7" cy="7" fill="url(#a)" opacity=".42" r="7" transform="translate(421 366)"/></g><g filter="url(#ag)" transform="translate(-4.997 -26.999)"><ellipse cx="44.5" cy="44" fill="url(#a)" opacity=".48" rx="44.5" ry="44" transform="translate(143 200)"/></g><g filter="url(#ah)" transform="translate(-4.997 -26.999)"><ellipse cx="32" cy="31.5" fill="url(#a)" opacity=".37" rx="32" ry="31.5" transform="translate(156 212)"/></g><g filter="url(#ai)" transform="translate(-4.997 -26.999)"><ellipse cx="23.5" cy="24" fill="url(#a)" opacity=".42" rx="23.5" ry="24" transform="translate(166 219)"/></g><g opacity=".41" transform="translate(98.473 496.3)"><g filter="url(#aj)" transform="translate(-103.47 -523.3)"><ellipse cx="114" cy="113.5" fill="url(#a)" opacity=".48" rx="114" ry="113.5" transform="translate(103 523)"/></g><g filter="url(#ak)" transform="translate(-103.47 -523.3)"><ellipse cx="81" cy="81.5" fill="url(#a)" opacity=".37" rx="81" ry="81.5" transform="translate(136 555)"/></g><g filter="url(#al)" transform="translate(-103.47 -523.3)"><circle cx="60" cy="60" fill="url(#a)" opacity=".42" r="60" transform="translate(160 574)"/></g></g></g></svg>