<svg width="831" height="372" viewBox="0 0 831 372" fill="none" xmlns="http://www.w3.org/2000/svg">
<path d="M818.611 371.313H12.0492C5.54779 371.313 0.34668 366.704 0.34668 360.942C0.34668 355.18 5.54779 350.57 12.0492 350.57H818.611C825.112 350.57 830.314 355.18 830.314 360.942C830.314 366.704 825.112 371.313 818.611 371.313Z" fill="#C9C9C9"/>
<path d="M163.791 264.142C151.309 264.142 141.297 255.153 141.297 244.206C141.297 233.258 151.439 224.27 163.791 224.27H291.219V264.257H163.791V264.142Z" fill="#CECECE"/>
<path d="M298.63 271.056H163.791C147.018 271.056 133.495 258.956 133.495 244.206C133.495 229.34 147.148 217.355 163.791 217.355H298.63V271.056Z" fill="white"/>
<path d="M155.47 237.983H291.219" stroke="#1F3969" stroke-width="2.70523" stroke-miterlimit="10" stroke-linecap="round" stroke-linejoin="round"/>
<path d="M155.47 250.198H291.219" stroke="#1F3969" stroke-width="2.70523" stroke-miterlimit="10" stroke-linecap="round" stroke-linejoin="round"/>
<path d="M163.791 264.142C151.309 264.142 141.297 255.153 141.297 244.206C141.297 233.258 151.439 224.27 163.791 224.27H291.219V264.257H163.791V264.142Z" stroke="#1F3969" stroke-width="2.70523" stroke-miterlimit="10" stroke-linecap="round" stroke-linejoin="round"/>
<path d="M163.791 264.142C151.309 264.142 141.297 255.153 141.297 244.206C141.297 233.258 151.439 224.27 163.791 224.27H293.429L298.63 217.355H163.791C147.018 217.355 133.495 229.455 133.495 244.206C133.495 259.072 147.148 271.056 163.791 271.056H298.63L293.429 264.142H163.791Z" fill="#FF3E3E"/>
<path d="M163.791 264.142C151.309 264.142 141.297 255.153 141.297 244.206C141.297 233.258 151.439 224.27 163.791 224.27H293.429L298.63 217.355H163.791C147.018 217.355 133.495 229.455 133.495 244.206C133.495 259.072 147.148 271.056 163.791 271.056H298.63L293.429 264.142H163.791Z" stroke="#1F3969" stroke-width="2.70523" stroke-miterlimit="10" stroke-linecap="round" stroke-linejoin="round"/>
<path opacity="0.28" d="M269.634 217.24H245.709V271.056H269.634V217.24Z" fill="#1F3969" stroke="#1F3969" stroke-width="2.70523" stroke-miterlimit="10" stroke-linecap="round" stroke-linejoin="round"/>
<path d="M286.891 315.422H39.9687C35.1577 315.422 31.1268 311.965 31.1268 307.586V278.777C31.1268 274.513 35.0277 270.94 39.9687 270.94H286.891C291.702 270.94 295.733 274.398 295.733 278.777V307.586C295.733 311.965 291.832 315.422 286.891 315.422Z" fill="#E1EC0B"/>
<path d="M82.7273 281.727H85.5455V298.364C85.5455 299.848 85.2727 301.11 84.7273 302.148C84.1818 303.186 83.4129 303.973 82.4205 304.511C81.428 305.049 80.2576 305.318 78.9091 305.318C77.6364 305.318 76.5038 305.087 75.5114 304.625C74.5189 304.155 73.7386 303.489 73.1705 302.625C72.6023 301.761 72.3182 300.735 72.3182 299.545H75.0909C75.0909 300.205 75.2538 300.78 75.5795 301.273C75.9129 301.758 76.3674 302.136 76.9432 302.409C77.5189 302.682 78.1742 302.818 78.9091 302.818C79.7197 302.818 80.4091 302.648 80.9773 302.307C81.5455 301.966 81.9773 301.466 82.2727 300.807C82.5758 300.14 82.7273 299.326 82.7273 298.364V281.727ZM95.9659 305.409C94.8598 305.409 93.8561 305.201 92.9545 304.784C92.053 304.36 91.3371 303.75 90.8068 302.955C90.2765 302.152 90.0114 301.182 90.0114 300.045C90.0114 299.045 90.2083 298.235 90.6023 297.614C90.9962 296.985 91.5227 296.492 92.1818 296.136C92.8409 295.78 93.5682 295.515 94.3636 295.341C95.1667 295.159 95.9735 295.015 96.7841 294.909C97.8447 294.773 98.7045 294.67 99.3636 294.602C100.03 294.527 100.515 294.402 100.818 294.227C101.129 294.053 101.284 293.75 101.284 293.318V293.227C101.284 292.106 100.977 291.235 100.364 290.614C99.7576 289.992 98.8371 289.682 97.6023 289.682C96.322 289.682 95.3182 289.962 94.5909 290.523C93.8636 291.083 93.3523 291.682 93.0568 292.318L90.5114 291.409C90.9659 290.348 91.572 289.523 92.3295 288.932C93.0947 288.333 93.928 287.917 94.8295 287.682C95.7386 287.439 96.6326 287.318 97.5114 287.318C98.072 287.318 98.7159 287.386 99.4432 287.523C100.178 287.652 100.886 287.92 101.568 288.33C102.258 288.739 102.83 289.356 103.284 290.182C103.739 291.008 103.966 292.114 103.966 293.5V305H101.284V302.636H101.148C100.966 303.015 100.663 303.42 100.239 303.852C99.8144 304.284 99.25 304.652 98.5455 304.955C97.8409 305.258 96.9811 305.409 95.9659 305.409ZM96.375 303C97.4356 303 98.3295 302.792 99.0568 302.375C99.7917 301.958 100.345 301.42 100.716 300.761C101.095 300.102 101.284 299.409 101.284 298.682V296.227C101.17 296.364 100.92 296.489 100.534 296.602C100.155 296.708 99.7159 296.803 99.2159 296.886C98.7235 296.962 98.2424 297.03 97.7727 297.091C97.3106 297.144 96.9356 297.189 96.6477 297.227C95.9508 297.318 95.2992 297.466 94.6932 297.67C94.0947 297.867 93.6098 298.167 93.2386 298.568C92.875 298.962 92.6932 299.5 92.6932 300.182C92.6932 301.114 93.0379 301.818 93.7273 302.295C94.4242 302.765 95.3068 303 96.375 303ZM122.509 287.545L116.054 305H113.327L106.872 287.545H109.781L114.599 301.455H114.781L119.599 287.545H122.509ZM130.653 305.409C129.547 305.409 128.544 305.201 127.642 304.784C126.741 304.36 126.025 303.75 125.494 302.955C124.964 302.152 124.699 301.182 124.699 300.045C124.699 299.045 124.896 298.235 125.29 297.614C125.684 296.985 126.21 296.492 126.869 296.136C127.528 295.78 128.256 295.515 129.051 295.341C129.854 295.159 130.661 295.015 131.472 294.909C132.532 294.773 133.392 294.67 134.051 294.602C134.718 294.527 135.203 294.402 135.506 294.227C135.816 294.053 135.972 293.75 135.972 293.318V293.227C135.972 292.106 135.665 291.235 135.051 290.614C134.445 289.992 133.525 289.682 132.29 289.682C131.009 289.682 130.006 289.962 129.278 290.523C128.551 291.083 128.04 291.682 127.744 292.318L125.199 291.409C125.653 290.348 126.259 289.523 127.017 288.932C127.782 288.333 128.616 287.917 129.517 287.682C130.426 287.439 131.32 287.318 132.199 287.318C132.759 287.318 133.403 287.386 134.131 287.523C134.866 287.652 135.574 287.92 136.256 288.33C136.945 288.739 137.517 289.356 137.972 290.182C138.426 291.008 138.653 292.114 138.653 293.5V305H135.972V302.636H135.835C135.653 303.015 135.35 303.42 134.926 303.852C134.502 304.284 133.938 304.652 133.233 304.955C132.528 305.258 131.669 305.409 130.653 305.409ZM131.062 303C132.123 303 133.017 302.792 133.744 302.375C134.479 301.958 135.032 301.42 135.403 300.761C135.782 300.102 135.972 299.409 135.972 298.682V296.227C135.858 296.364 135.608 296.489 135.222 296.602C134.843 296.708 134.403 296.803 133.903 296.886C133.411 296.962 132.93 297.03 132.46 297.091C131.998 297.144 131.623 297.189 131.335 297.227C130.638 297.318 129.987 297.466 129.381 297.67C128.782 297.867 128.297 298.167 127.926 298.568C127.563 298.962 127.381 299.5 127.381 300.182C127.381 301.114 127.725 301.818 128.415 302.295C129.112 302.765 129.994 303 131.062 303ZM156.639 287.545C156.503 286.394 155.95 285.5 154.98 284.864C154.01 284.227 152.821 283.909 151.412 283.909C150.382 283.909 149.48 284.076 148.707 284.409C147.942 284.742 147.344 285.201 146.912 285.784C146.488 286.367 146.276 287.03 146.276 287.773C146.276 288.394 146.423 288.928 146.719 289.375C147.022 289.814 147.408 290.182 147.878 290.477C148.348 290.765 148.84 291.004 149.355 291.193C149.87 291.375 150.344 291.523 150.776 291.636L153.139 292.273C153.745 292.432 154.42 292.652 155.162 292.932C155.912 293.212 156.628 293.595 157.31 294.08C157.999 294.557 158.567 295.17 159.014 295.92C159.461 296.67 159.685 297.591 159.685 298.682C159.685 299.939 159.355 301.076 158.696 302.091C158.045 303.106 157.09 303.913 155.832 304.511C154.582 305.11 153.063 305.409 151.276 305.409C149.609 305.409 148.166 305.14 146.946 304.602C145.734 304.064 144.779 303.314 144.082 302.352C143.393 301.39 143.003 300.273 142.912 299H145.821C145.897 299.879 146.192 300.606 146.707 301.182C147.23 301.75 147.889 302.174 148.685 302.455C149.488 302.727 150.351 302.864 151.276 302.864C152.351 302.864 153.317 302.689 154.173 302.341C155.029 301.985 155.707 301.492 156.207 300.864C156.707 300.227 156.957 299.485 156.957 298.636C156.957 297.864 156.741 297.235 156.31 296.75C155.878 296.265 155.31 295.871 154.605 295.568C153.901 295.265 153.139 295 152.321 294.773L149.457 293.955C147.639 293.432 146.2 292.686 145.139 291.716C144.079 290.746 143.548 289.477 143.548 287.909C143.548 286.606 143.901 285.47 144.605 284.5C145.317 283.523 146.272 282.765 147.469 282.227C148.673 281.682 150.018 281.409 151.503 281.409C153.003 281.409 154.336 281.678 155.503 282.216C156.67 282.746 157.594 283.473 158.276 284.398C158.965 285.322 159.329 286.371 159.366 287.545H156.639ZM171.045 305.364C169.409 305.364 168 304.977 166.818 304.205C165.636 303.432 164.727 302.367 164.091 301.011C163.455 299.655 163.136 298.106 163.136 296.364C163.136 294.591 163.462 293.027 164.114 291.67C164.773 290.307 165.689 289.242 166.864 288.477C168.045 287.705 169.424 287.318 171 287.318C172.227 287.318 173.333 287.545 174.318 288C175.303 288.455 176.11 289.091 176.739 289.909C177.367 290.727 177.758 291.682 177.909 292.773H175.227C175.023 291.977 174.568 291.273 173.864 290.659C173.167 290.038 172.227 289.727 171.045 289.727C170 289.727 169.083 290 168.295 290.545C167.515 291.083 166.905 291.845 166.466 292.83C166.034 293.807 165.818 294.955 165.818 296.273C165.818 297.621 166.03 298.795 166.455 299.795C166.886 300.795 167.492 301.572 168.273 302.125C169.061 302.678 169.985 302.955 171.045 302.955C171.742 302.955 172.375 302.833 172.943 302.591C173.511 302.348 173.992 302 174.386 301.545C174.78 301.091 175.061 300.545 175.227 299.909H177.909C177.758 300.939 177.383 301.867 176.784 302.693C176.193 303.511 175.409 304.163 174.432 304.648C173.462 305.125 172.333 305.364 171.045 305.364ZM181.83 305V287.545H184.42V290.182H184.602C184.92 289.318 185.496 288.617 186.33 288.08C187.163 287.542 188.102 287.273 189.148 287.273C189.345 287.273 189.591 287.277 189.886 287.284C190.182 287.292 190.405 287.303 190.557 287.318V290.045C190.466 290.023 190.258 289.989 189.932 289.943C189.614 289.89 189.277 289.864 188.92 289.864C188.072 289.864 187.314 290.042 186.648 290.398C185.989 290.746 185.466 291.231 185.08 291.852C184.701 292.466 184.511 293.167 184.511 293.955V305H181.83ZM193.736 305V287.545H196.418V305H193.736ZM195.099 284.636C194.577 284.636 194.126 284.458 193.747 284.102C193.376 283.746 193.19 283.318 193.19 282.818C193.19 282.318 193.376 281.89 193.747 281.534C194.126 281.178 194.577 281 195.099 281C195.622 281 196.069 281.178 196.44 281.534C196.819 281.89 197.009 282.318 197.009 282.818C197.009 283.318 196.819 283.746 196.44 284.102C196.069 284.458 195.622 284.636 195.099 284.636ZM201.33 311.545V287.545H203.92V290.318H204.239C204.436 290.015 204.708 289.629 205.057 289.159C205.413 288.682 205.92 288.258 206.58 287.886C207.246 287.508 208.148 287.318 209.284 287.318C210.754 287.318 212.049 287.686 213.17 288.42C214.292 289.155 215.167 290.197 215.795 291.545C216.424 292.894 216.739 294.485 216.739 296.318C216.739 298.167 216.424 299.769 215.795 301.125C215.167 302.473 214.295 303.519 213.182 304.261C212.068 304.996 210.784 305.364 209.33 305.364C208.208 305.364 207.311 305.178 206.636 304.807C205.962 304.428 205.443 304 205.08 303.523C204.716 303.038 204.436 302.636 204.239 302.318H204.011V311.545H201.33ZM203.966 296.273C203.966 297.591 204.159 298.754 204.545 299.761C204.932 300.761 205.496 301.545 206.239 302.114C206.981 302.674 207.89 302.955 208.966 302.955C210.087 302.955 211.023 302.659 211.773 302.068C212.53 301.47 213.098 300.667 213.477 299.659C213.864 298.644 214.057 297.515 214.057 296.273C214.057 295.045 213.867 293.939 213.489 292.955C213.117 291.962 212.553 291.178 211.795 290.602C211.045 290.019 210.102 289.727 208.966 289.727C207.875 289.727 206.958 290.004 206.216 290.557C205.473 291.102 204.913 291.867 204.534 292.852C204.155 293.83 203.966 294.97 203.966 296.273ZM228.42 287.545V289.818H219.375V287.545H228.42ZM222.011 283.364H224.693V300C224.693 300.758 224.803 301.326 225.023 301.705C225.25 302.076 225.538 302.326 225.886 302.455C226.242 302.576 226.617 302.636 227.011 302.636C227.307 302.636 227.549 302.621 227.739 302.591C227.928 302.553 228.08 302.523 228.193 302.5L228.739 304.909C228.557 304.977 228.303 305.045 227.977 305.114C227.652 305.189 227.239 305.227 226.739 305.227C225.981 305.227 225.239 305.064 224.511 304.739C223.792 304.413 223.193 303.917 222.716 303.25C222.246 302.583 222.011 301.742 222.011 300.727V283.364Z" fill="#130707"/>
<path d="M284.717 315.422H37.7946C32.9836 315.422 28.9528 311.965 28.9528 307.586V278.777C28.9528 274.513 32.8536 270.94 37.7946 270.94H284.717C289.528 270.94 293.559 274.398 293.559 278.777V307.586C293.559 311.965 289.658 315.422 284.717 315.422Z" stroke="#1F3969" stroke-width="2.70523" stroke-miterlimit="10" stroke-linecap="round" stroke-linejoin="round"/>
<path opacity="0.28" d="M284.717 271.056H245.709V288.341C245.709 299.174 255.591 308.047 267.944 308.047H293.559C293.559 307.932 293.559 307.817 293.559 307.701V278.892C293.559 274.513 289.658 271.056 284.717 271.056Z" fill="#1F3969" stroke="#1F3969" stroke-width="2.70523" stroke-miterlimit="10" stroke-linecap="round" stroke-linejoin="round"/>
<path d="M354.282 324.411H68.2211C69.9114 328.099 70.8216 332.708 70.8216 337.548C70.8216 342.388 69.9114 346.883 68.2211 350.685H354.152C352.462 346.998 351.551 342.388 351.551 337.548C351.681 332.593 352.592 328.099 354.282 324.411Z" fill="#CECECE"/>
<path d="M362.084 317.382H60.5494V324.296H362.084V317.382Z" fill="#5F5AFF"/>
<path d="M362.084 317.382H60.5494V324.296H362.084V317.382Z" stroke="#1F3969" stroke-width="2.70523" stroke-miterlimit="10" stroke-linecap="round" stroke-linejoin="round"/>
<path d="M362.084 350.57H60.5494V357.485H362.084V350.57Z" fill="#F6F9FD"/>
<path d="M362.084 350.57H60.5494V357.485H362.084V350.57Z" fill="#5F5AFF"/>
<path d="M362.084 350.57H60.5494V357.485H362.084V350.57Z" stroke="#1F3969" stroke-width="2.70523" stroke-miterlimit="10" stroke-linecap="round" stroke-linejoin="round"/>
<path d="M511.876 332.939L507.975 294.104H443.741L439.84 332.939C438.93 341.927 432.819 350.57 423.197 357.484V357.6H528.519V357.484C518.897 350.57 512.786 341.927 511.876 332.939Z" fill="#BFCFE2"/>
<path opacity="0.28" d="M443.741 294.104L441.401 317.382H510.315L507.975 294.104H443.741Z" fill="#1F3969" stroke="#1F3969" stroke-width="2.70523" stroke-miterlimit="10" stroke-linecap="round" stroke-linejoin="round"/>
<path d="M511.876 332.939L507.975 294.104H443.741L439.84 332.939C438.93 341.927 432.819 350.57 423.197 357.484V357.6H528.519V357.484C518.897 350.57 512.786 341.927 511.876 332.939Z" stroke="#1F3969" stroke-width="2.70523" stroke-miterlimit="10" stroke-linecap="round" stroke-linejoin="round"/>
<path d="M681.302 299.865H270.414C261.832 299.865 254.811 293.642 254.811 286.037V48.6469C254.811 41.0412 261.832 34.8184 270.414 34.8184H681.302C689.884 34.8184 696.905 41.0412 696.905 48.6469V286.037C696.905 293.758 689.884 299.865 681.302 299.865Z" fill="white"/>
<path d="M681.302 299.865H270.414C261.832 299.865 254.811 293.642 254.811 286.037V48.6469C254.811 41.0412 261.832 34.8184 270.414 34.8184H681.302C689.884 34.8184 696.905 41.0412 696.905 48.6469V286.037C696.905 293.758 689.884 299.865 681.302 299.865Z" fill="#BFCFE2"/>
<path d="M681.302 299.865H270.414C261.832 299.865 254.811 293.642 254.811 286.037V48.6469C254.811 41.0412 261.832 34.8184 270.414 34.8184H681.302C689.884 34.8184 696.905 41.0412 696.905 48.6469V286.037C696.905 293.758 689.884 299.865 681.302 299.865Z" stroke="#1F3969" stroke-width="2.70523" stroke-miterlimit="10" stroke-linecap="round" stroke-linejoin="round"/>
<path d="M674.873 255.647V54.4414L276.988 54.4414L276.988 255.647L674.873 255.647Z" fill="#F6F9FD"/>
<path opacity="0.28" d="M291.219 34.8184V194.538C291.219 199.608 295.9 203.757 301.621 203.757H547.503C553.224 203.757 557.905 199.608 557.905 194.538V34.8184H291.219Z" fill="#1F3969" stroke="#1F3969" stroke-width="2.70523" stroke-miterlimit="10" stroke-linecap="round" stroke-linejoin="round"/>
<path d="M674.873 255.647V54.4414L276.988 54.4414L276.988 255.647L674.873 255.647Z" stroke="#1F3969" stroke-width="2.70523" stroke-miterlimit="10" stroke-linecap="round" stroke-linejoin="round"/>
<path d="M458.434 277.624H493.412" stroke="#1F3969" stroke-width="2.70523" stroke-miterlimit="10" stroke-linecap="round" stroke-linejoin="round"/>
<path d="M559.206 191.081H313.323C307.602 191.081 302.921 186.932 302.921 181.862V11.0794C302.921 6.00891 307.602 1.86035 313.323 1.86035H559.206C564.927 1.86035 569.608 6.00891 569.608 11.0794V181.977C569.608 187.047 564.927 191.081 559.206 191.081Z" fill="#2D425E"/>
<path d="M569.608 24.2165H302.921V10.9641C302.921 5.89368 307.602 1.74512 313.323 1.74512H559.206C564.927 1.74512 569.608 5.89368 569.608 10.9641V24.2165Z" stroke="#1F3969" stroke-width="2.70523" stroke-miterlimit="10" stroke-linecap="round" stroke-linejoin="round"/>
<path d="M569.608 28.5955H302.921V10.9641C302.921 5.89368 307.602 1.74512 313.323 1.74512H559.206C564.927 1.74512 569.608 5.89368 569.608 10.9641V28.5955Z" fill="#D0DDF0"/>
<path d="M569.608 28.5955H302.921V10.9641C302.921 5.89368 307.602 1.74512 313.323 1.74512H559.206C564.927 1.74512 569.608 5.89368 569.608 10.9641V28.5955Z" stroke="#1F3969" stroke-width="2.70523" stroke-miterlimit="10" stroke-linecap="round" stroke-linejoin="round"/>
<path d="M569.608 28.5955H302.921V10.9641C302.921 5.89368 307.602 1.74512 313.323 1.74512H559.206C564.927 1.74512 569.608 5.89368 569.608 10.9641V28.5955Z" stroke="#1F3969" stroke-width="2.70523" stroke-miterlimit="10" stroke-linecap="round" stroke-linejoin="round"/>
<path d="M559.206 191.081H313.323C307.602 191.081 302.921 186.932 302.921 181.862V11.0794C302.921 6.00891 307.602 1.86035 313.323 1.86035H559.206C564.927 1.86035 569.608 6.00891 569.608 11.0794V181.977C569.608 187.047 564.927 191.081 559.206 191.081Z" stroke="#1F3969" stroke-width="2.70523" stroke-miterlimit="10" stroke-linecap="round" stroke-linejoin="round"/>
<path opacity="0.28" d="M687.543 231.875H536.711C530.99 231.875 526.309 227.726 526.309 222.656V81.0286C526.309 75.9581 530.99 71.8096 536.711 71.8096H687.543C693.264 71.8096 697.945 75.9581 697.945 81.0286V222.656C697.945 227.842 693.264 231.875 687.543 231.875Z" fill="#1F3969" stroke="#1F3969" stroke-width="2.70523" stroke-miterlimit="10" stroke-linecap="round" stroke-linejoin="round"/>
<path d="M697.945 223.808H547.113C541.392 223.808 536.711 219.66 536.711 214.589V72.9622C536.711 67.8917 541.392 63.7432 547.113 63.7432H697.945C703.667 63.7432 708.348 67.8917 708.348 72.9622V214.589C708.348 219.775 703.667 223.808 697.945 223.808Z" fill="#2AA1FF"/>
<path d="M697.945 223.808H547.113C541.392 223.808 536.711 219.66 536.711 214.589V72.9622C536.711 67.8917 541.392 63.7432 547.113 63.7432H697.945C703.667 63.7432 708.348 67.8917 708.348 72.9622V214.589C708.348 219.775 703.667 223.808 697.945 223.808Z" stroke="#1F3969" stroke-width="2.70523" stroke-miterlimit="10" stroke-linecap="round" stroke-linejoin="round"/>
<path opacity="0.34" d="M675.451 107.649H569.348C565.577 107.649 562.586 104.999 562.586 101.657V92.6682C562.586 89.3263 565.577 86.6758 569.348 86.6758H675.451C679.221 86.6758 682.212 89.3263 682.212 92.6682V101.657C682.212 104.999 679.221 107.649 675.451 107.649Z" stroke="white" stroke-width="1.35261" stroke-miterlimit="10" stroke-linecap="round" stroke-linejoin="round"/>
<g opacity="0.34">
<path d="M628.9 141.414H569.608C565.837 141.414 562.846 138.763 562.846 135.421V126.433C562.846 123.091 565.837 120.44 569.608 120.44H628.9C632.671 120.44 635.662 123.091 635.662 126.433V135.421C635.532 138.763 632.541 141.414 628.9 141.414Z" stroke="white" stroke-width="1.35261" stroke-miterlimit="10" stroke-linecap="round" stroke-linejoin="round"/>
<path d="M675.581 141.414H652.566C648.795 141.414 645.804 138.763 645.804 135.421V126.433C645.804 123.091 648.795 120.44 652.566 120.44H675.581C679.351 120.44 682.342 123.091 682.342 126.433V135.421C682.342 138.763 679.351 141.414 675.581 141.414Z" stroke="white" stroke-width="1.35261" stroke-miterlimit="10" stroke-linecap="round" stroke-linejoin="round"/>
</g>
<path d="M562.716 176.445H682.212" stroke="white" stroke-width="1.35261" stroke-miterlimit="10" stroke-linecap="round" stroke-linejoin="round"/>
<path d="M562.716 188.891H682.212" stroke="white" stroke-width="1.35261" stroke-miterlimit="10" stroke-linecap="round" stroke-linejoin="round"/>
<path d="M562.716 201.337H635.532" stroke="white" stroke-width="1.35261" stroke-miterlimit="10" stroke-linecap="round" stroke-linejoin="round"/>
<path d="M329.057 19.8372C331.929 19.8372 334.258 17.7734 334.258 15.2277C334.258 12.6819 331.929 10.6182 329.057 10.6182C326.184 10.6182 323.856 12.6819 323.856 15.2277C323.856 17.7734 326.184 19.8372 329.057 19.8372Z" fill="#1F3969"/>
<path d="M347.131 19.8372C350.003 19.8372 352.332 17.7734 352.332 15.2277C352.332 12.6819 350.003 10.6182 347.131 10.6182C344.258 10.6182 341.929 12.6819 341.929 15.2277C341.929 17.7734 344.258 19.8372 347.131 19.8372Z" fill="#1F3969"/>
<path d="M365.204 19.8372C368.077 19.8372 370.406 17.7734 370.406 15.2277C370.406 12.6819 368.077 10.6182 365.204 10.6182C362.332 10.6182 360.003 12.6819 360.003 15.2277C360.003 17.7734 362.332 19.8372 365.204 19.8372Z" fill="#1F3969"/>
<path d="M456.094 49.9141H472.997" stroke="white" stroke-width="2.70523" stroke-miterlimit="10" stroke-linecap="round" stroke-linejoin="round"/>
<path d="M370.406 49.9141H443.611" stroke="#7BFFA0" stroke-width="2.70523" stroke-miterlimit="10" stroke-linecap="round" stroke-linejoin="round"/>
<path d="M334.258 49.9141H360.003" stroke="#9169FF" stroke-width="2.70523" stroke-miterlimit="10" stroke-linecap="round" stroke-linejoin="round"/>
<path d="M367.805 163.424H423.717" stroke="#9169FF" stroke-width="2.70523" stroke-miterlimit="10" stroke-linecap="round" stroke-linejoin="round"/>
<path d="M334.258 163.424H352.332" stroke="#7BFFA0" stroke-width="2.70523" stroke-miterlimit="10" stroke-linecap="round" stroke-linejoin="round"/>
<path d="M443.611 64.0889H454.143" stroke="white" stroke-width="2.70523" stroke-miterlimit="10" stroke-linecap="round" stroke-linejoin="round"/>
<path d="M395.761 64.0889H431.129" stroke="#9169FF" stroke-width="2.70523" stroke-miterlimit="10" stroke-linecap="round" stroke-linejoin="round"/>
<path d="M347.131 64.0889H383.148" stroke="#FFC47D" stroke-width="2.70523" stroke-miterlimit="10" stroke-linecap="round" stroke-linejoin="round"/>
<path d="M402.912 78.2627H433.989" stroke="white" stroke-width="2.70523" stroke-miterlimit="10" stroke-linecap="round" stroke-linejoin="round"/>
<path d="M363.904 78.2627H393.16" stroke="#FF5757" stroke-width="2.70523" stroke-miterlimit="10" stroke-linecap="round" stroke-linejoin="round"/>
<path d="M407.073 92.4375H413.445" stroke="white" stroke-width="2.70523" stroke-miterlimit="10" stroke-linecap="round" stroke-linejoin="round"/>
<path d="M381.328 92.4375H395.761" stroke="#9169FF" stroke-width="2.70523" stroke-miterlimit="10" stroke-linecap="round" stroke-linejoin="round"/>
<path d="M347.131 92.4375H370.406" stroke="#7BFFA0" stroke-width="2.70523" stroke-miterlimit="10" stroke-linecap="round" stroke-linejoin="round"/>
<path d="M397.061 106.727H438.54" stroke="#FFC47D" stroke-width="2.70523" stroke-miterlimit="10" stroke-linecap="round" stroke-linejoin="round"/>
<path d="M347.131 106.727H384.319" stroke="#FF5757" stroke-width="2.70523" stroke-miterlimit="10" stroke-linecap="round" stroke-linejoin="round"/>
<path d="M445.041 120.901H467.536" stroke="#9169FF" stroke-width="2.70523" stroke-miterlimit="10" stroke-linecap="round" stroke-linejoin="round"/>
<path d="M397.061 120.901H433.079" stroke="#FF5757" stroke-width="2.70523" stroke-miterlimit="10" stroke-linecap="round" stroke-linejoin="round"/>
<path d="M363.904 120.901H384.318" stroke="#7BFFA0" stroke-width="2.70523" stroke-miterlimit="10" stroke-linecap="round" stroke-linejoin="round"/>
<path d="M413.445 135.075H433.079" stroke="white" stroke-width="2.70523" stroke-miterlimit="10" stroke-linecap="round" stroke-linejoin="round"/>
<path d="M363.904 135.075H399.922" stroke="#9169FF" stroke-width="2.70523" stroke-miterlimit="10" stroke-linecap="round" stroke-linejoin="round"/>
<path d="M464.546 149.249H487.04" stroke="white" stroke-width="2.70523" stroke-miterlimit="10" stroke-linecap="round" stroke-linejoin="round"/>
<path d="M395.761 149.249H452.323" stroke="#FFC47D" stroke-width="2.70523" stroke-miterlimit="10" stroke-linecap="round" stroke-linejoin="round"/>
<path d="M347.131 149.249H383.148" stroke="white" stroke-width="2.70523" stroke-miterlimit="10" stroke-linecap="round" stroke-linejoin="round"/>
<path d="M71.4718 332.362H351.682" stroke="#1F3969" stroke-width="2.70523" stroke-miterlimit="10" stroke-linecap="round" stroke-linejoin="round"/>
<path d="M71.4718 341.581H351.682" stroke="#1F3969" stroke-width="2.70523" stroke-miterlimit="10" stroke-linecap="round" stroke-linejoin="round"/>
<path d="M354.282 324.411H68.2211C69.9114 328.099 70.8216 332.708 70.8216 337.548C70.8216 342.388 69.9114 346.883 68.2211 350.685H354.152C352.462 346.998 351.551 342.388 351.551 337.548C351.681 332.593 352.592 328.099 354.282 324.411Z" stroke="#1F3969" stroke-width="2.70523" stroke-miterlimit="10" stroke-linecap="round" stroke-linejoin="round"/>
<path d="M739.098 230.459L726.442 231.775L737.449 314.869L750.105 313.552L739.098 230.459Z" fill="#FFA364"/>
<path d="M739.115 230.547L726.459 231.864L727.581 240.334L740.237 239.017L739.115 230.547Z" fill="#2AA1FF"/>
<path d="M739.115 230.547L726.459 231.864L727.581 240.334L740.237 239.017L739.115 230.547Z" stroke="#1F3969" stroke-width="2.70566" stroke-miterlimit="10" stroke-linecap="round" stroke-linejoin="round"/>
<path d="M739.098 230.459L726.442 231.775L737.449 314.869L750.105 313.552L739.098 230.459Z" stroke="#1F3969" stroke-width="2.70566" stroke-miterlimit="10" stroke-linecap="round" stroke-linejoin="round"/>
<path d="M773.802 247.48L761.135 246.259L750.93 329.428L763.597 330.649L773.802 247.48Z" fill="#FF5252"/>
<path d="M773.802 247.48L761.135 246.259L750.93 329.428L763.597 330.649L773.802 247.48Z" stroke="#1F3969" stroke-width="2.7056" stroke-miterlimit="10" stroke-linecap="round" stroke-linejoin="round"/>
<path d="M773.896 247.499L761.229 246.278L760.188 254.756L772.856 255.976L773.896 247.499Z" fill="#2D425E"/>
<path d="M773.896 247.499L761.229 246.278L760.188 254.756L772.856 255.976L773.896 247.499Z" stroke="#1F3969" stroke-width="2.7056" stroke-miterlimit="10" stroke-linecap="round" stroke-linejoin="round"/>
<path d="M781.683 357.83H730.582L722.261 288.457H790.005L781.683 357.83Z" fill="#6567C3"/>
<path d="M722.261 288.457L722.391 289.725H774.012L765.82 357.83H781.683L790.005 288.457H722.261Z" fill="#6567C3"/>
<path d="M781.683 357.83H730.582L722.261 288.457H790.005L781.683 357.83Z" stroke="#1F3969" stroke-width="2.70523" stroke-miterlimit="10" stroke-linecap="round" stroke-linejoin="round"/>
</svg>
